<?xml version="1.0" encoding="UTF-8" standalone="no"?>
<svg width="20px" height="20px" viewBox="0 0 20 20" version="1.1" xmlns="http://www.w3.org/2000/svg" xmlns:xlink="http://www.w3.org/1999/xlink" xmlns:sketch="http://www.bohemiancoding.com/sketch/ns">
    <!-- Generator: Sketch 3.4.4 (17249) - http://www.bohemiancoding.com/sketch -->
    <title>aisle</title>
    <desc>Created with Sketch.</desc>
    <defs></defs>
    <g id="Blank-Slate" stroke="none" stroke-width="1" fill="none" fill-rule="evenodd" sketch:type="MSPage">
        <g id="Icons" sketch:type="MSArtboardGroup" transform="translate(-5.000000, -5.000000)" fill="#FFFFFF">
            <g id="aisle" sketch:type="MSLayerGroup" transform="translate(5.000000, 5.000000)">
                <path d="M4.6,7.6 C5.59411255,7.6 6.4,6.79411255 6.4,5.8 C6.4,4.80588745 5.59411255,4 4.6,4 C3.60588745,4 2.8,4.80588745 2.8,5.8 C2.8,6.79411255 3.60588745,7.6 4.6,7.6 Z M10.9240449,12.6288202 L7.36323049,12.6288202 C7.23682708,12.6288202 7.01207448,12.4546945 6.98131047,12.3329647 L6.09042942,8.8127748 C5.90281679,8.07084071 5.14487451,7.62096303 4.39793077,7.80711931 C3.65082762,7.99359219 3.19765624,8.74613211 3.38526888,9.48790791 L4.27614992,13.0079395 C4.62092998,14.3708695 5.94792671,15.3986864 7.36323049,15.3986864 L10.2268336,15.3986864 L10.2268336,18.7072344 C10.2268336,19.2807413 10.6949885,19.7459738 11.2728099,19.7459738 C11.8504719,19.7459738 12.3187862,19.2808996 12.3187862,18.7072344 L12.3187862,14.0137533 C12.3186268,13.2490246 11.6942609,12.6288202 10.9240449,12.6288202 Z" id="Oval-31" sketch:type="MSShapeGroup"></path>
                <path d="M8.78044706,16.0912321 L7.05463401,16.0912321 C5.48965456,16.0912321 3.83828085,14.7900377 3.44839088,13.2501327 L2.63019578,10.0166171 C2.55974142,9.73817413 2.27489539,9.56832235 1.99562833,9.63955562 C1.71556428,9.70920593 1.54548554,9.99160628 1.6159399,10.2697326 L2.4342944,13.5034065 C2.93990805,15.5030036 5.01289213,17.1299715 7.05463401,17.1299715 L8.78044706,17.1299715 C9.06927806,17.1299715 9.3034352,16.8974344 9.3034352,16.6107601 C9.3034352,16.3237691 9.06927806,16.0912321 8.78044706,16.0912321 L8.78044706,16.0912321 Z" id="Shape" sketch:type="MSShapeGroup"></path>
                <path d="M8.03729701,4.99063212 C8.9272287,4.99063212 9.64922153,4.27363461 9.64922153,3.38847642 C9.64922153,2.50331823 8.9272287,1.78632072 8.03729701,1.78632072 C7.14736532,1.78632072 6.42537249,2.50331823 6.42537249,3.38847642 C6.42537249,4.27363461 7.14736532,4.99063212 8.03729701,4.99063212 L8.03729701,4.99063212 Z M8.03729701,4.59063212 C7.36765993,4.59063212 6.82537249,4.05209665 6.82537249,3.38847642 C6.82537249,2.72485619 7.36765993,2.18632072 8.03729701,2.18632072 C8.70693408,2.18632072 9.24922153,2.72485619 9.24922153,3.38847642 C9.24922153,4.05209665 8.70693408,4.59063212 8.03729701,4.59063212 L8.03729701,4.59063212 Z" id="Shape" sketch:type="MSShapeGroup"></path>
                <path d="M13.8937281,9.41184233 L10.6889951,9.41184233 C10.6666157,9.41184233 10.5443696,9.31713991 10.5391707,9.29656831 L9.73736145,6.12833291 C9.5414749,5.3536787 8.75090675,4.88409049 7.97186,5.07824761 C7.19233169,5.27281361 6.71885371,6.05880169 6.91493529,6.8340617 L7.71673585,10.0021203 C8.04955379,11.3177635 9.32392247,12.3047219 10.6889951,12.3047219 L13.266238,12.3047219 L13.066238,12.1047219 L13.066238,15.082415 C13.066238,15.7094292 13.5775198,16.2172805 14.2076166,16.2172805 C14.8376597,16.2172805 15.3489953,15.7094828 15.3489953,15.082415 L15.3489953,10.8582821 C15.3488287,10.05917 14.6969911,9.41184233 13.8937281,9.41184233 L13.8937281,9.41184233 Z M13.8937281,9.81184233 C14.4767105,9.81184233 14.9488749,10.28074 14.9489953,10.8583238 L14.9489953,15.082415 C14.9489953,15.4879448 14.6173651,15.8172805 14.2076166,15.8172805 C13.7978331,15.8172805 13.466238,15.4879103 13.466238,15.082415 L13.466238,12.1047219 L13.466238,11.9047219 L13.266238,11.9047219 L10.6889951,11.9047219 C9.50663694,11.9047219 8.39232379,11.0417214 8.10451487,9.90400082 L7.30271644,6.73595063 C7.16106099,6.17587862 7.50350023,5.6074189 8.06865845,5.46635849 C8.63439619,5.3253631 9.20785938,5.66599351 9.34957729,6.22643207 L10.1513798,9.39464089 C10.2015434,9.59313279 10.4838634,9.81184233 10.6889951,9.81184233 L13.8937281,9.81184233 L13.8937281,9.81184233 Z" id="Shape" sketch:type="MSShapeGroup"></path>
                <path d="M11.2241295,3.15781262 C12.0274184,3.15781262 12.6791735,2.51056694 12.6791735,1.711452 C12.6791735,0.912337057 12.0274184,0.26509138 11.2241295,0.26509138 C10.4208405,0.26509138 9.76908545,0.912337057 9.76908545,1.711452 C9.76908545,2.51056694 10.4208405,3.15781262 11.2241295,3.15781262 L11.2241295,3.15781262 Z M11.2241295,2.75781262 C10.6411351,2.75781262 10.1690855,2.28902898 10.1690855,1.711452 C10.1690855,1.13387502 10.6411351,0.66509138 11.2241295,0.66509138 C11.8071238,0.66509138 12.2791735,1.13387502 12.2791735,1.711452 C12.2791735,2.28902898 11.8071238,2.75781262 11.2241295,2.75781262 L11.2241295,2.75781262 Z" id="Shape" sketch:type="MSShapeGroup"></path>
                <path d="M16.429846,7.04333281 L13.5811945,7.04333281 C13.5714545,7.04333281 13.4716844,6.96604217 13.469562,6.95764434 L12.7568409,4.14142793 C12.5797107,3.44094765 11.864922,3.01637159 11.1605893,3.19190818 C10.455762,3.36782921 10.0276128,4.07857019 10.2049308,4.77964341 L10.9176432,7.59569884 C11.2159816,8.77504284 12.3576457,9.65922573 13.5811945,9.65922573 L15.872077,9.65922573 L15.672077,9.45922573 L15.672077,12.1060641 C15.672077,12.6757167 16.1365323,13.1370556 16.708858,13.1370556 C17.2811349,13.1370556 17.745639,12.6757653 17.745639,12.1060641 L17.745639,8.35127927 C17.7454884,7.62864799 17.1560953,7.04333281 16.429846,7.04333281 L16.429846,7.04333281 Z M16.429846,7.44333281 C16.9358147,7.44333281 17.3455346,7.85021791 17.345639,8.35132096 L17.345639,12.1060641 C17.345639,12.4542273 17.0608403,12.7370556 16.708858,12.7370556 C16.3568456,12.7370556 16.072077,12.4541977 16.072077,12.1060641 L16.072077,9.45922573 L16.072077,9.25922573 L15.872077,9.25922573 L13.5811945,9.25922573 C12.5403602,9.25922573 11.5587516,8.49900079 11.3054223,7.49757937 L10.5927119,4.68153234 C10.4698201,4.19564712 10.7669306,3.7024345 11.2573878,3.58001906 C11.7484115,3.45764419 12.2460952,3.75326245 12.3690567,4.23952709 L13.0817712,7.05571692 C13.1288582,7.24203505 13.3887022,7.44333281 13.5811945,7.44333281 L16.429846,7.44333281 L16.429846,7.44333281 Z" id="Shape" sketch:type="MSShapeGroup"></path>
                <path d="M14.356611,2.39686077 L14.356611,2.39686077 L14.356611,3.80704251 C14.356611,4.68974388 15.0733258,5.40390328 15.959452,5.40390328 L16.289423,5.40390328 C17.173887,5.40390328 17.892264,4.68807808 17.892264,3.80704251 L17.892264,2.39686077 C17.892264,1.51415941 17.1755492,0.8 16.289423,0.8 L15.959452,0.8 C15.074988,0.8 14.356611,1.5158252 14.356611,2.39686077 L14.356611,2.39686077 Z M13.956611,2.39686077 C13.956611,1.29402502 14.8549611,0.4 15.959452,0.4 L16.289423,0.4 C17.3955615,0.4 18.292264,1.29234472 18.292264,2.39686077 L18.292264,3.80704251 C18.292264,4.90987826 17.3939139,5.80390328 16.289423,5.80390328 L15.959452,5.80390328 C14.8533135,5.80390328 13.956611,4.91155856 13.956611,3.80704251 L13.956611,2.39686077 L13.956611,2.39686077 Z" id="Shape" sketch:type="MSShapeGroup"></path>
            </g>
        </g>
    </g>
</svg>