<?xml version="1.0" encoding="UTF-8" standalone="no"?>
<svg width="43px" height="49px" viewBox="0 0 43 49" version="1.1" xmlns="http://www.w3.org/2000/svg" xmlns:xlink="http://www.w3.org/1999/xlink" xmlns:sketch="http://www.bohemiancoding.com/sketch/ns">
    <!-- Generator: Sketch 3.4.2 (15855) - http://www.bohemiancoding.com/sketch -->
    <title>aisle</title>
    <desc>Created with Sketch.</desc>
    <defs></defs>
    <g id="Blank-Slate" stroke="none" stroke-width="1" fill="none" fill-rule="evenodd" sketch:type="MSPage">
        <g id="Icons" sketch:type="MSArtboardGroup" transform="translate(-93.000000, -18.000000)">
            <g id="aisle" sketch:type="MSLayerGroup" transform="translate(93.846154, 18.000000)">
                <g id="Aisle" sketch:type="MSShapeGroup">
                    <g id="Blank-Slate">
                        <g id="Air-Search">
                            <g id="Group">
                                <g id="Aisle" transform="translate(0.014110, 0.749794)">
                                    <g id="noun_8158_cc-copy-2" transform="translate(0.000000, 9.081196)" fill="#FFFFFF">
                                        <g id="Group">
                                            <ellipse id="Oval" cx="6.96142118" cy="4.05124967" rx="3.87699792" ry="3.85017375"></ellipse>
                                            <path d="M23.042572,21.1399654 L14.2427085,21.1399654 C13.9303269,21.1399654 13.3748944,20.7096472 13.2988671,20.4088158 L11.097227,11.7093478 C10.6335788,9.87580125 8.76047113,8.76401569 6.91454425,9.2240649 C5.06822346,9.68489654 3.94829813,11.5446533 4.41194642,13.3778086 L6.61358648,22.0768853 C7.46564363,25.4451027 10.7450591,27.9851534 14.2427085,27.9851534 L21.3195493,27.9851534 L21.3195493,36.1615891 C21.3195493,37.5789007 22.4765035,38.7286325 23.9044772,38.7286325 C25.332057,38.7286325 26.4894051,37.5792918 26.4894051,36.1615891 L26.4894051,24.5625593 C26.4890113,22.6726803 24.9460117,21.1399654 23.042572,21.1399654 L23.042572,21.1399654 L23.042572,21.1399654 Z" id="Shape"></path>
                                            <path d="M17.7450849,29.696646 L13.480072,29.696646 C9.61252828,29.696646 5.53147784,26.4809959 4.56794025,22.6754187 L2.54592944,14.6844109 C2.37181513,13.9962931 1.66787332,13.5765373 0.977718846,13.7525765 C0.285594746,13.9247037 -0.134721936,14.6226015 0.0393923788,15.309937 L2.06179711,23.3013361 C3.31132337,28.2429531 8.43430223,32.2636892 13.480072,32.2636892 L17.7450849,32.2636892 C18.4588748,32.2636892 19.0375488,31.6890189 19.0375488,30.9805587 C19.0375488,30.2713162 18.4588748,29.696646 17.7450849,29.696646 L17.7450849,29.696646 L17.7450849,29.696646 Z" id="Shape"></path>
                                        </g>
                                    </g>
                                    <g id="noun_8158_cc-copy-3" transform="translate(12.321937, 3.739316)" stroke="#FFFFFF">
                                        <g id="Group">
                                            <ellipse id="Oval" cx="3.58659731" cy="3.64612471" rx="3.48929813" ry="3.46515637"></ellipse>
                                            <path d="M18.059633,19.0259688 L10.1397559,19.0259688 C9.8586125,19.0259688 9.35872318,18.6386825 9.29029862,18.3679341 L7.30882257,10.538413 C6.89153911,8.88822115 5.20574225,7.88761413 3.54440807,8.30165841 C1.88271936,8.71640686 0.874786556,10.390188 1.29207003,12.0400277 L3.27354607,19.8691967 C4.04039751,22.9005925 6.99187149,25.186638 10.1397559,25.186638 L16.5089126,25.186638 L16.5089126,32.5454303 C16.5089126,33.8210106 17.5501713,34.8557692 18.8353478,34.8557692 C20.1201696,34.8557692 21.1617829,33.8213627 21.1617829,32.5454303 L21.1617829,22.1063035 C21.1614284,20.4054123 19.7727287,19.0259688 18.059633,19.0259688 L18.059633,19.0259688 L18.059633,19.0259688 Z" id="Shape"></path>
                                        </g>
                                    </g>
                                    <g id="noun_8158_cc-copy-4" transform="translate(20.357982, 0.000000)" stroke="#FFFFFF">
                                        <g id="Group">
                                            <ellipse id="Oval" cx="3.42619154" cy="3.24099974" rx="3.10159834" ry="3.080139"></ellipse>
                                            <path d="M16.2911122,16.9119723 L9.25122138,16.9119723 C9.00131613,16.9119723 8.5569701,16.5677178 8.49614826,16.3270526 L6.73483622,9.3674782 C6.36391758,7.90064103 4.86543149,7.01121255 3.38868999,7.37925192 C1.91163336,7.7479172 1.0156931,9.23572262 1.38661173,10.7022468 L3.14792378,17.6615083 C3.8295695,20.3560822 6.45310192,22.3881227 9.25122138,22.3881227 L14.912694,22.3881227 L14.912694,28.9292713 C14.912694,30.0631205 15.8382574,30.982906 16.9806363,30.982906 C18.1227002,30.982906 19.0485787,30.0634335 19.0485787,28.9292713 L19.0485787,19.6500475 C19.0482636,18.1381442 17.8138639,16.9119723 16.2911122,16.9119723 L16.2911122,16.9119723 L16.2911122,16.9119723 Z" id="Shape"></path>
                                        </g>
                                    </g>
                                    <rect id="Rectangle-21" stroke="#FFFFFF" x="30.536972" y="0" width="10.714727" height="13.3547009" rx="5"></rect>
                                </g>
                            </g>
                        </g>
                    </g>
                </g>
            </g>
        </g>
    </g>
</svg>