<?xml version="1.0" encoding="UTF-8" standalone="no"?>
<svg width="50px" height="50px" viewBox="0 0 50 50" version="1.1" xmlns="http://www.w3.org/2000/svg" xmlns:xlink="http://www.w3.org/1999/xlink" xmlns:sketch="http://www.bohemiancoding.com/sketch/ns">
    <!-- Generator: Sketch 3.4.4 (17249) - http://www.bohemiancoding.com/sketch -->
    <title>aisle</title>
    <desc>Created with Sketch.</desc>
    <defs></defs>
    <g id="Blank-Slate" stroke="none" stroke-width="1" fill="none" fill-rule="evenodd" sketch:type="MSPage">
        <g id="Icons" sketch:type="MSArtboardGroup" transform="translate(-9.000000, -18.000000)" fill="#FFFFFF">
            <g id="aisle" sketch:type="MSLayerGroup" transform="translate(9.000000, 18.000000)">
                <path d="M11.5,19 C13.9852814,19 16,16.9852814 16,14.5 C16,12.0147186 13.9852814,10 11.5,10 C9.01471863,10 7,12.0147186 7,14.5 C7,16.9852814 9.01471863,19 11.5,19 Z M27.3101122,31.5720506 L18.4080762,31.5720506 C18.0920677,31.5720506 17.5301862,31.1367362 17.4532762,30.8324118 L15.2260735,22.031937 C14.757042,20.1771018 12.8621863,19.0524076 10.9948269,19.5177983 C9.12706905,19.9839805 7.99414061,21.8653303 8.46317219,23.7197698 L10.6903748,32.5198489 C11.5523249,35.9271736 14.8698168,38.496716 18.4080762,38.496716 L25.5670841,38.496716 L25.5670841,46.7680859 C25.5670841,48.2018534 26.7374713,49.3649344 28.1820248,49.3649344 C29.6261798,49.3649344 30.7969655,48.2022491 30.7969655,46.7680859 L30.7969655,35.0343833 C30.796567,33.1225615 29.2356523,31.5720506 27.3101122,31.5720506 Z" id="Oval-31" sketch:type="MSShapeGroup"></path>
                <path d="M21.9511176,40.2280802 L17.636585,40.2280802 C13.7241364,40.2280802 9.59570213,36.9750942 8.62097721,33.1253317 L6.57548945,25.0415427 C6.39935355,24.3454353 5.68723849,23.9208059 4.98907084,24.0988891 C4.2889107,24.2730148 3.86371385,24.9790157 4.03984975,25.6743316 L6.085736,33.7585163 C7.34977013,38.7575089 12.5322303,42.8249287 17.636585,42.8249287 L21.9511176,42.8249287 C22.6731951,42.8249287 23.258588,42.243586 23.258588,41.5269002 C23.258588,40.8094228 22.6731951,40.2280802 21.9511176,40.2280802 L21.9511176,40.2280802 Z" id="Shape" sketch:type="MSShapeGroup"></path>
                <path d="M20.0932425,12.4765803 C22.3180717,12.4765803 24.1230538,10.6840865 24.1230538,8.47119105 C24.1230538,6.25829558 22.3180717,4.4658018 20.0932425,4.4658018 C17.8684133,4.4658018 16.0634312,6.25829558 16.0634312,8.47119105 C16.0634312,10.6840865 17.8684133,12.4765803 20.0932425,12.4765803 L20.0932425,12.4765803 Z M20.0932425,11.4765803 C18.4191498,11.4765803 17.0634312,10.1302416 17.0634312,8.47119105 C17.0634312,6.81214047 18.4191498,5.4658018 20.0932425,5.4658018 C21.7673352,5.4658018 23.1230538,6.81214047 23.1230538,8.47119105 C23.1230538,10.1302416 21.7673352,11.4765803 20.0932425,11.4765803 L20.0932425,11.4765803 Z" id="Shape" sketch:type="MSShapeGroup"></path>
                <path d="M34.7343202,23.5296058 L26.7224878,23.5296058 C26.6665392,23.5296058 26.3609241,23.2928498 26.3479267,23.2414208 L24.3434036,15.3208323 C23.8536872,13.3841967 21.8772669,12.2102262 19.92965,12.695619 C17.9808292,13.182034 16.7971343,15.1470042 17.2873382,17.0851542 L19.2918396,25.0053007 C20.1238845,28.2944087 23.3098062,30.7618047 26.7224878,30.7618047 L33.1655949,30.7618047 L32.6655949,30.2618047 L32.6655949,37.7060376 C32.6655949,39.2735731 33.9437995,40.5432012 35.5190415,40.5432012 C37.0941493,40.5432012 38.3724882,39.2737069 38.3724882,37.7060376 L38.3724882,27.1457053 C38.3720718,25.1479251 36.7424777,23.5296058 34.7343202,23.5296058 L34.7343202,23.5296058 Z M34.7343202,24.5296058 C36.1917761,24.5296058 37.3721872,25.7018499 37.3724882,27.1458095 L37.3724882,37.7060376 C37.3724882,38.719862 36.5434128,39.5432012 35.5190415,39.5432012 C34.4945828,39.5432012 33.6655949,38.7197756 33.6655949,37.7060376 L33.6655949,30.2618047 L33.6655949,29.7618047 L33.1655949,29.7618047 L26.7224878,29.7618047 C23.7665923,29.7618047 20.9808095,27.6043036 20.2612872,24.7600021 L18.2567911,16.8398766 C17.9026525,15.4396965 18.7587506,14.0185473 20.1716461,13.6658962 C21.5859905,13.3134078 23.0196484,14.1649838 23.3739432,15.5660802 L25.3784495,23.4866022 C25.5038586,23.982832 26.2096585,24.5296058 26.7224878,24.5296058 L34.7343202,24.5296058 L34.7343202,24.5296058 Z" id="Shape" sketch:type="MSShapeGroup"></path>
                <path d="M28.0603237,7.89453155 C30.0685461,7.89453155 31.6979337,6.27641736 31.6979337,4.27863 C31.6979337,2.28084264 30.0685461,0.662728449 28.0603237,0.662728449 C26.0521012,0.662728449 24.4227136,2.28084264 24.4227136,4.27863 C24.4227136,6.27641736 26.0521012,7.89453155 28.0603237,7.89453155 L28.0603237,7.89453155 Z M28.0603237,6.89453155 C26.6028378,6.89453155 25.4227136,5.72257246 25.4227136,4.27863 C25.4227136,2.83468754 26.6028378,1.66272845 28.0603237,1.66272845 C29.5178096,1.66272845 30.6979337,2.83468754 30.6979337,4.27863 C30.6979337,5.72257246 29.5178096,6.89453155 28.0603237,6.89453155 L28.0603237,6.89453155 Z" id="Shape" sketch:type="MSShapeGroup"></path>
                <path d="M41.074615,17.608332 L33.9529862,17.608332 C33.9286364,17.608332 33.6792109,17.4151054 33.6739051,17.3941108 L31.8921022,10.3535698 C31.4492767,8.60236912 29.6623051,7.54092896 27.9014733,7.97977045 C26.1394051,8.41957303 25.069032,10.1964255 25.512327,11.9491085 L27.2941081,18.9892471 C28.039954,21.9376071 30.8941143,24.1480643 33.9529862,24.1480643 L39.6801925,24.1480643 L39.1801925,23.6480643 L39.1801925,30.2651603 C39.1801925,31.6892916 40.3413308,32.842639 41.772145,32.842639 C43.2028373,32.842639 44.3640976,31.6894133 44.3640976,30.2651603 L44.3640976,20.8781982 C44.363721,19.07162 42.8902384,17.608332 41.074615,17.608332 L41.074615,17.608332 Z M41.074615,18.608332 C42.3395368,18.608332 43.3638365,19.6255448 43.3640976,20.8783024 L43.3640976,30.2651603 C43.3640976,31.1355684 42.6521008,31.842639 41.772145,31.842639 C40.8921141,31.842639 40.1801925,31.1354942 40.1801925,30.2651603 L40.1801925,23.6480643 L40.1801925,23.1480643 L39.6801925,23.1480643 L33.9529862,23.1480643 C31.3509005,23.1480643 28.896879,21.247502 28.2635557,18.7439484 L26.4817798,11.7038309 C26.1745502,10.4891178 26.9173265,9.25608625 28.1434694,8.95004766 C29.3710287,8.64411049 30.6152379,9.38315614 30.9226418,10.5988177 L32.7044279,17.6392923 C32.8221454,18.1050876 33.4717556,18.608332 33.9529862,18.608332 L41.074615,18.608332 L41.074615,18.608332 Z" id="Shape" sketch:type="MSShapeGroup"></path>
                <path d="M35.8915275,5.99215194 L35.8915275,5.99215194 L35.8915275,9.51760627 C35.8915275,11.7243597 37.6833144,13.5097582 39.8986301,13.5097582 L40.7235574,13.5097582 C42.9347176,13.5097582 44.73066,11.7201952 44.73066,9.51760627 L44.73066,5.99215194 C44.73066,3.78539851 42.938873,2 40.7235574,2 L39.8986301,2 C37.6874699,2 35.8915275,3.78956301 35.8915275,5.99215194 L35.8915275,5.99215194 Z M34.8915275,5.99215194 C34.8915275,3.23506255 37.1374028,1 39.8986301,1 L40.7235574,1 C43.4889038,1 45.73066,3.2308618 45.73066,5.99215194 L45.73066,9.51760627 C45.73066,12.2746957 43.4847847,14.5097582 40.7235574,14.5097582 L39.8986301,14.5097582 C37.1332837,14.5097582 34.8915275,12.2788964 34.8915275,9.51760627 L34.8915275,5.99215194 L34.8915275,5.99215194 Z" id="Shape" sketch:type="MSShapeGroup"></path>
            </g>
        </g>
    </g>
</svg>