<?xml version="1.0" encoding="UTF-8" standalone="no"?>
<svg width="46px" height="28px" viewBox="0 0 46 28" version="1.1" xmlns="http://www.w3.org/2000/svg" xmlns:xlink="http://www.w3.org/1999/xlink" xmlns:sketch="http://www.bohemiancoding.com/sketch/ns">
    <!-- Generator: Sketch 3.4.2 (15855) - http://www.bohemiancoding.com/sketch -->
    <title>arriving</title>
    <desc>Created with Sketch.</desc>
    <defs></defs>
    <g id="Blank-Slate" stroke="none" stroke-width="1" fill="none" fill-rule="evenodd" sketch:type="MSPage">
        <g id="Icons" sketch:type="MSArtboardGroup" transform="translate(-93.000000, -107.000000)" fill="#FFFFFF">
            <g id="arriving" sketch:type="MSLayerGroup" transform="translate(88.000000, 98.000000)">
                <g id="noun_365" transform="translate(27.004909, 25.433735) rotate(-321.000000) translate(-27.004909, -25.433735) translate(2.004909, 14.209246)" sketch:type="MSShapeGroup">
                    <g id="Group" transform="translate(0.000000, 0.000000)">
                        <path d="M49.0212912,3.55122465 C48.6700353,1.93358937 45.4047292,1.79454474 44.0909537,2.34824032 C39.3131868,4.35880082 34.5349294,6.36998205 29.7561813,8.38116329 L13.1696429,0 L11.4192504,2.36065501 L18.5169741,13.1465455 C13.9418171,15.147795 5.56220565,18.8430301 4.04140502,19.4823872 C2.73204474,20.0342206 12.5024529,21.7884175 14.7424451,21.3172796 C14.7424451,21.3172796 31.9530024,14.2142096 39.5624019,11.0105965 C41.5183477,10.187502 43.4752747,9.36440746 45.4312206,8.54069218 C46.7400903,7.99010027 49.4024725,5.30666309 49.0212912,3.55122465 L49.0212912,3.55122465 L49.0212912,3.55122465 Z" id="Shape"></path>
                        <path d="M1.3294741,11.8107239 L0,13.3650443 L3.52580455,18.569286 L8.63520408,16.2924302 L1.3294741,11.8107239 L1.3294741,11.8107239 Z" id="Shape"></path>
                    </g>
                </g>
            </g>
        </g>
    </g>
</svg>