<?xml version="1.0" encoding="UTF-8" standalone="no"?>
<svg width="50px" height="47px" viewBox="0 0 50 47" version="1.1" xmlns="http://www.w3.org/2000/svg" xmlns:xlink="http://www.w3.org/1999/xlink" xmlns:sketch="http://www.bohemiancoding.com/sketch/ns">
    <!-- Generator: Sketch 3.4.2 (15855) - http://www.bohemiancoding.com/sketch -->
    <title>calendar1</title>
    <desc>Created with Sketch.</desc>
    <defs></defs>
    <g id="Blank-Slate" stroke="none" stroke-width="1" fill="none" fill-rule="evenodd" sketch:type="MSPage">
        <g id="Icons" sketch:type="MSArtboardGroup" transform="translate(-194.000000, -19.000000)" fill="#FFFFFF">
            <g id="calendar1" sketch:type="MSLayerGroup" transform="translate(194.000000, 19.000000)">
                <g id="noun_15995_cc" sketch:type="MSShapeGroup">
                    <g id="Blank-Slate">
                        <g id="Air-Search">
                            <g id="Depart-Return">
                                <g id="noun_15995_cc">
                                    <g id="Group">
                                        <g>
                                            <path d="M0,0 L0,46.7741935 L50,46.7741935 L50,0 L0,0 L0,0 L0,0 Z M9.67741935,45.1612903 L1.61290323,45.1612903 L1.61290323,37.0967742 L9.67741935,37.0967742 L9.67741935,45.1612903 L9.67741935,45.1612903 L9.67741935,45.1612903 Z M19.3548387,45.1612903 L11.2903226,45.1612903 L11.2903226,37.0967742 L19.3548387,37.0967742 L19.3548387,45.1612903 L19.3548387,45.1612903 L19.3548387,45.1612903 Z M29.0322581,45.1612903 L20.9677419,45.1612903 L20.9677419,37.0967742 L29.0322581,37.0967742 L29.0322581,45.1612903 L29.0322581,45.1612903 L29.0322581,45.1612903 Z M29.0322581,16.1290323 L20.9677419,16.1290323 L20.9677419,17.7419355 L29.0322581,17.7419355 L29.0322581,25.8064516 L20.9677419,25.8064516 L20.9677419,27.4193548 L29.0322581,27.4193548 L29.0322581,35.483871 L20.9677419,35.483871 L20.9677419,27.4193548 L19.3548387,27.4193548 L19.3548387,35.483871 L11.2903226,35.483871 L11.2903226,27.4193548 L9.67741935,27.4193548 L9.67741935,35.483871 L1.61290323,35.483871 L1.61290323,27.4193548 L9.67741935,27.4193548 L9.67741935,25.8064516 L1.61290323,25.8064516 L1.61290323,17.7419355 L9.67741935,17.7419355 L9.67741935,16.1290323 L1.61290323,16.1290323 L1.61290323,8.06451613 L9.67741935,8.06451613 L9.67741935,16.1290323 L11.2903226,16.1290323 L11.2903226,8.06451613 L19.3548387,8.06451613 L19.3548387,16.1290323 L20.9677419,16.1290323 L20.9677419,8.06451613 L29.0322581,8.06451613 L29.0322581,16.1290323 L29.0322581,16.1290323 L29.0322581,16.1290323 Z M38.7096774,45.1612903 L30.6451613,45.1612903 L30.6451613,37.0967742 L38.7096774,37.0967742 L38.7096774,45.1612903 L38.7096774,45.1612903 L38.7096774,45.1612903 Z M38.7096774,35.483871 L30.6451613,35.483871 L30.6451613,27.4193548 L38.7096774,27.4193548 L38.7096774,35.483871 L38.7096774,35.483871 L38.7096774,35.483871 Z M38.7096774,25.8064516 L30.6451613,25.8064516 L30.6451613,17.7419355 L38.7096774,17.7419355 L38.7096774,25.8064516 L38.7096774,25.8064516 L38.7096774,25.8064516 Z M38.7096774,16.1290323 L30.6451613,16.1290323 L30.6451613,8.06451613 L38.7096774,8.06451613 L38.7096774,16.1290323 L38.7096774,16.1290323 L38.7096774,16.1290323 Z M48.3870968,45.1612903 L40.3225806,45.1612903 L40.3225806,37.0967742 L48.3870968,37.0967742 L48.3870968,45.1612903 L48.3870968,45.1612903 L48.3870968,45.1612903 Z M48.3870968,35.483871 L40.3225806,35.483871 L40.3225806,27.4193548 L48.3870968,27.4193548 L48.3870968,35.483871 L48.3870968,35.483871 L48.3870968,35.483871 Z M48.3870968,25.8064516 L40.3225806,25.8064516 L40.3225806,17.7419355 L48.3870968,17.7419355 L48.3870968,25.8064516 L48.3870968,25.8064516 L48.3870968,25.8064516 Z M48.3870968,16.1290323 L40.3225806,16.1290323 L40.3225806,8.06451613 L48.3870968,8.06451613 L48.3870968,16.1290323 L48.3870968,16.1290323 L48.3870968,16.1290323 Z" id="Shape"></path>
                                            <rect id="Rectangle-path" x="11.2903226" y="17.7419355" width="8.06451613" height="8.06451613"></rect>
                                        </g>
                                    </g>
                                </g>
                            </g>
                        </g>
                    </g>
                </g>
            </g>
        </g>
    </g>
</svg>