<?xml version="1.0" encoding="UTF-8" standalone="no"?>
<svg width="20px" height="20px" viewBox="0 0 20 20" version="1.1" xmlns="http://www.w3.org/2000/svg" xmlns:xlink="http://www.w3.org/1999/xlink" xmlns:sketch="http://www.bohemiancoding.com/sketch/ns">
    <!-- Generator: Sketch 3.4.4 (17249) - http://www.bohemiancoding.com/sketch -->
    <title>calendar1</title>
    <desc>Created with Sketch.</desc>
    <defs></defs>
    <g id="Blank-Slate" stroke="none" stroke-width="1" fill="none" fill-rule="evenodd" sketch:type="MSPage">
        <g id="Icons" sketch:type="MSArtboardGroup" transform="translate(-56.000000, -5.000000)" fill="#FFFFFF">
            <g id="calendar1" sketch:type="MSLayerGroup" transform="translate(56.000000, 5.000000)">
                <path d="M0,0.8 L0,19.5096774 L20,19.5096774 L20,0.8 L0,0.8 L0,0.8 L0,0.8 Z M3.87096774,18.8645161 L0.645161292,18.8645161 L0.645161292,15.6387097 L3.87096774,15.6387097 L3.87096774,18.8645161 L3.87096774,18.8645161 L3.87096774,18.8645161 Z M7.74193548,18.8645161 L4.51612904,18.8645161 L4.51612904,15.6387097 L7.74193548,15.6387097 L7.74193548,18.8645161 L7.74193548,18.8645161 L7.74193548,18.8645161 Z M11.6129032,18.8645161 L8.38709676,18.8645161 L8.38709676,15.6387097 L11.6129032,15.6387097 L11.6129032,18.8645161 L11.6129032,18.8645161 L11.6129032,18.8645161 Z M11.6129032,7.25161292 L8.38709676,7.25161292 L8.38709676,7.8967742 L11.6129032,7.8967742 L11.6129032,11.1225806 L8.38709676,11.1225806 L8.38709676,11.7677419 L11.6129032,11.7677419 L11.6129032,14.9935484 L8.38709676,14.9935484 L8.38709676,11.7677419 L7.74193548,11.7677419 L7.74193548,14.9935484 L4.51612904,14.9935484 L4.51612904,11.7677419 L3.87096774,11.7677419 L3.87096774,14.9935484 L0.645161292,14.9935484 L0.645161292,11.7677419 L3.87096774,11.7677419 L3.87096774,11.1225806 L0.645161292,11.1225806 L0.645161292,7.8967742 L3.87096774,7.8967742 L3.87096774,7.25161292 L0.645161292,7.25161292 L0.645161292,4.02580645 L3.87096774,4.02580645 L3.87096774,7.25161292 L4.51612904,7.25161292 L4.51612904,4.02580645 L7.74193548,4.02580645 L7.74193548,7.25161292 L8.38709676,7.25161292 L8.38709676,4.02580645 L11.6129032,4.02580645 L11.6129032,7.25161292 L11.6129032,7.25161292 L11.6129032,7.25161292 Z M15.483871,18.8645161 L12.2580645,18.8645161 L12.2580645,15.6387097 L15.483871,15.6387097 L15.483871,18.8645161 L15.483871,18.8645161 L15.483871,18.8645161 Z M15.483871,14.9935484 L12.2580645,14.9935484 L12.2580645,11.7677419 L15.483871,11.7677419 L15.483871,14.9935484 L15.483871,14.9935484 L15.483871,14.9935484 Z M15.483871,11.1225806 L12.2580645,11.1225806 L12.2580645,7.8967742 L15.483871,7.8967742 L15.483871,11.1225806 L15.483871,11.1225806 L15.483871,11.1225806 Z M15.483871,7.25161292 L12.2580645,7.25161292 L12.2580645,4.02580645 L15.483871,4.02580645 L15.483871,7.25161292 L15.483871,7.25161292 L15.483871,7.25161292 Z M19.3548387,18.8645161 L16.1290322,18.8645161 L16.1290322,15.6387097 L19.3548387,15.6387097 L19.3548387,18.8645161 L19.3548387,18.8645161 L19.3548387,18.8645161 Z M19.3548387,14.9935484 L16.1290322,14.9935484 L16.1290322,11.7677419 L19.3548387,11.7677419 L19.3548387,14.9935484 L19.3548387,14.9935484 L19.3548387,14.9935484 Z M19.3548387,11.1225806 L16.1290322,11.1225806 L16.1290322,7.8967742 L19.3548387,7.8967742 L19.3548387,11.1225806 L19.3548387,11.1225806 L19.3548387,11.1225806 Z M19.3548387,7.25161292 L16.1290322,7.25161292 L16.1290322,4.02580645 L19.3548387,4.02580645 L19.3548387,7.25161292 L19.3548387,7.25161292 L19.3548387,7.25161292 Z" id="Shape" sketch:type="MSShapeGroup"></path>
                <rect id="Rectangle-path" sketch:type="MSShapeGroup" x="4.51612904" y="7.8967742" width="3.22580645" height="3.22580645"></rect>
            </g>
        </g>
    </g>
</svg>