<?xml version="1.0" encoding="UTF-8"?>
<svg width="20px" height="20px" viewBox="0 0 20 20" version="1.1" xmlns="http://www.w3.org/2000/svg" xmlns:xlink="http://www.w3.org/1999/xlink">
    <!-- Generator: Sketch 54.1 (76490) - https://sketchapp.com -->
    <title>departure</title>
    <desc>Created with Sketch.</desc>
    <g id="departure" stroke="none" stroke-width="1" fill="none" fill-rule="evenodd">
        <rect fill="#000000" opacity="0" x="0" y="0" width="20" height="20"></rect>
        <path d="M2.28411742,13.0091913 C2.35526936,13.0031056 2.42727201,13 2.5,13 C3.88071187,13 5,14.1192881 5,15.5 C5,16.8807119 3.88071187,18 2.5,18 C1.11928813,18 0,16.8807119 0,15.5 C0,14.3719091 0.747177814,13.4183309 1.77364562,13.1071533 C1.78472449,12.9652663 1.79968246,12.8238568 1.81848991,12.6830401 L1.85158596,12.4352405 L2.3471852,12.5014326 L2.31408915,12.7492322 C2.30254649,12.8356554 2.29255329,12.9223183 2.28411742,13.0091913 L2.28411742,13.0091913 Z M3.35093249,9.85125451 L3.25993606,10.0068193 C3.09676132,10.2857781 2.95196764,10.5746798 2.82660299,10.8717134 L2.72939259,11.1020396 L2.26874028,10.9076187 L2.36595068,10.6772926 C2.49975449,10.3602636 2.65426219,10.0519798 2.82834914,9.7543659 L2.92611246,9.58723261 L2.32131122,8.68181865 L1,7.80338234 L1.42975485,7.37464466 L2.52005994,7.60489228 L4.08488608,6.04376988 L1.22186948,4.50676979 L1.7728549,3.95708848 L5.40725109,4.72453473 L6.96102998,3.17443344 C7.20459309,2.93144682 7.59475726,2.94915746 7.83116543,3.18500555 C8.06758737,3.42086737 8.0853405,3.81008014 7.84176362,4.0530805 L6.28798474,5.6031818 L7.05725674,9.22897086 L6.50627132,9.77865217 L5.37365493,7.67887902 L5.1805668,7.8275692 C4.9244993,8.02475751 4.68132445,8.23799648 4.45260076,8.46581562 L4.27547416,8.64224172 L3.92262196,8.28798852 L4.09974856,8.11156242 C4.3434874,7.86878751 4.60262312,7.64155253 4.87550414,7.43141674 L5.07358037,7.27888541 L5.35507342,7.64443052 L4.96561973,6.92241694 L3.40079358,8.48353934 L3.63158896,9.57126232 L3.35093249,9.85125451 L3.35093249,9.85125451 Z M6.93091612,6.81883681 L6.69960226,6.91367296 L6.50992996,6.45104523 L6.74124383,6.35620908 C7.05909122,6.22589513 7.38558071,6.11576423 7.71912913,6.02663309 L7.9606545,5.96209244 L8.0897358,6.44514318 L7.84821043,6.50968383 C7.53531112,6.5932971 7.22905818,6.69660184 6.93091612,6.81883681 Z M9.70718864,6.25112624 L9.45722425,6.25534567 L9.4487854,5.75541689 L9.69874979,5.75119746 C9.76819096,5.75021657 9.76819096,5.75021657 9.83792128,5.75000049 C10.1412819,5.74999999 10.4392004,5.76743502 10.7337713,5.80211256 L10.9820568,5.83134128 L10.9235994,6.32791225 L10.6753139,6.29868353 C10.4001677,6.26629271 10.1217688,6.25000002 9.83800809,6.25000047 C9.77249647,6.25020373 9.77249647,6.25020373 9.70718864,6.25112624 Z M12.5540545,6.79212744 L12.3234453,6.69559061 L12.5165189,6.23437205 L12.7471282,6.33090888 C13.0649088,6.46393704 13.3734895,6.6187223 13.6713414,6.79406563 L13.8867818,6.92089392 L13.6331252,7.3517748 L13.4176848,7.22494651 C13.1392222,7.06101755 12.8508735,6.91638072 12.5540545,6.79212744 Z M14.9521152,8.42581624 L14.7767109,8.24767777 L15.1329878,7.89686907 L15.3083922,8.07500754 C15.5492415,8.31961105 15.7751675,8.57968395 15.9846216,8.85318971 L16.1366227,9.05167314 L15.7396558,9.3556753 L15.5876547,9.15719187 C15.3907467,8.90006881 15.1784042,8.65563244 14.9521152,8.42581624 Z M16.6006292,10.9051581 L16.5041358,10.6745306 L16.9653907,10.4815438 L17.0618841,10.7121713 C17.1953294,11.0311171 17.3081218,11.356924 17.3992652,11.6870533 L17.4657972,11.9280378 L16.9838283,12.0611017 L16.9172963,11.8201172 C16.8318036,11.5104552 16.7259387,11.2046585 16.6006292,10.9051581 Z M17.5,18 C16.1192881,18 15,16.8807119 15,15.5 C15,14.1192881 16.1192881,13 17.5,13 C18.8807119,13 20,14.1192881 20,15.5 C20,16.8807119 18.8807119,18 17.5,18 Z" id="Shape" fill="#FFFFFF" fill-rule="nonzero"></path>
    </g>
</svg>