<?xml version="1.0" encoding="UTF-8" standalone="no"?>
<svg width="44px" height="20px" viewBox="0 0 44 20" version="1.1" xmlns="http://www.w3.org/2000/svg" xmlns:xlink="http://www.w3.org/1999/xlink" xmlns:sketch="http://www.bohemiancoding.com/sketch/ns">
    <!-- Generator: Sketch 3.4.2 (15855) - http://www.bohemiancoding.com/sketch -->
    <title>departing</title>
    <desc>Created with Sketch.</desc>
    <defs></defs>
    <g id="Blank-Slate" stroke="none" stroke-width="1" fill="none" fill-rule="evenodd" sketch:type="MSPage">
        <g id="Icons" sketch:type="MSArtboardGroup" transform="translate(-23.000000, -111.000000)" fill="#FFFFFF">
            <g id="departing" sketch:type="MSLayerGroup" transform="translate(23.000000, 111.000000)">
                <g id="noun_365" transform="translate(0.849033, 0.814053)" sketch:type="MSShapeGroup">
                    <g id="Group" transform="translate(0.000000, 0.000000)">
                        <path d="M42.2759615,3.06257614 C41.9730385,1.66752748 39.1570385,1.54761538 38.0240385,2.02512245 C33.9036923,3.75902983 29.7829231,5.49347252 25.6617308,7.22791523 L11.3575,0 L9.84796154,2.03582888 L15.9690385,11.3375809 C12.0234231,13.0634584 4.79684615,16.2502292 3.48530769,16.8016107 C2.35611538,17.2775118 10.7821154,18.7903312 12.7138846,18.384022 C12.7138846,18.384022 27.5562692,12.2583343 34.1186154,9.49553846 C35.8054231,8.78570169 37.4930769,8.07586499 39.1798846,7.36549294 C40.3086538,6.89066248 42.6046923,4.57646625 42.2759615,3.06257614 L42.2759615,3.06257614 L42.2759615,3.06257614 Z" id="Shape"></path>
                        <path d="M1.14653846,10.1855683 L0,11.5260142 L3.04065385,16.0141523 L7.447,14.0505918 L1.14653846,10.1855683 L1.14653846,10.1855683 Z" id="Shape"></path>
                    </g>
                </g>
            </g>
        </g>
    </g>
</svg>