<?xml version="1.0" encoding="UTF-8" standalone="no"?>
<svg width="20px" height="20px" viewBox="0 0 20 20" version="1.1" xmlns="http://www.w3.org/2000/svg" xmlns:xlink="http://www.w3.org/1999/xlink" xmlns:sketch="http://www.bohemiancoding.com/sketch/ns">
    <!-- Generator: Sketch 3.5.2 (25235) - http://www.bohemiancoding.com/sketch -->
    <title>desk</title>
    <desc>Created with Sketch.</desc>
    <defs></defs>
    <g id="Blank-Slate" stroke="none" stroke-width="1" fill="none" fill-rule="evenodd" sketch:type="MSPage">
        <g id="Icons" sketch:type="MSArtboardGroup" transform="translate(-30.000000, -55.000000)" fill="#FFFFFF">
            <g id="desk" sketch:type="MSLayerGroup" transform="translate(30.000000, 55.000000)">
                <g id="Group" transform="translate(0.000000, 7.000000)" sketch:type="MSShapeGroup">
                    <g>
                        <path d="M0,0.111111111 L0,9.55555556 L1.11111111,9.55555556 L1.11111111,1.22222222 L14.4444444,1.22222222 L14.4444444,9.55555556 L20,9.55555556 L20,0.111111111 L0,0.111111111 L0,0.111111111 Z M15,4 L19.4444444,4 L19.4444444,6.22222222 L15,6.22222222 L15,4 L15,4 Z M15,9 L15,6.77777778 L19.4444444,6.77777778 L19.4444444,9 L15,9 L15,9 Z M19.4444444,3.44444444 L15,3.44444444 L15,1.22222222 L19.4444444,1.22222222 L19.4444444,3.44444444 L19.4444444,3.44444444 Z" id="Shape"></path>
                        <rect id="Rectangle-path" x="16.6666667" y="7.33333333" width="1.11111111" height="0.555555556"></rect>
                        <rect id="Rectangle-path" x="16.6666667" y="1.77777778" width="1.11111111" height="0.555555556"></rect>
                    </g>
                </g>
            </g>
        </g>
    </g>
</svg>