<?xml version="1.0" encoding="UTF-8"?>
<svg width="100px" height="100px" viewBox="0 0 100 100" version="1.1" xmlns="http://www.w3.org/2000/svg" xmlns:xlink="http://www.w3.org/1999/xlink">
    <!-- Generator: Sketch 54.1 (76490) - https://sketchapp.com -->
    <title>expense</title>
    <desc>Created with Sketch.</desc>
    <g id="expense" stroke="none" stroke-width="1" fill="none" fill-rule="evenodd">
        <path d="M69.7405742,69.2581977 C69.9155685,69.7973556 70.0000562,70.3365698 70,70.875334 C70,72.0303751 69.7432179,73.0172281 69.2380913,73.835162 C68.7324023,74.6537708 68.0597064,75.3224728 67.2349663,75.8422245 C66.40972,76.3619761 65.456617,76.742396 64.4046825,76.982753 C63.8663683,77.1058847 63.3625355,77.1970662 62.8000337,77.2571976 L62.8000337,79.2000787 L59.2000225,79.2000787 L59.2000225,77.21186 C58.6937709,77.1404223 58.1289629,77.047272 57.6291801,76.9176716 C56.5151454,76.6288269 55.5740237,76.1932818 54.7492836,75.5962987 C53.9240373,74.9999343 53.2639977,74.248657 52.7690524,73.3146791 C52.2953134,72.421595 52.0390939,71.3813043 52,70.2000506 L55.8652871,70.2000506 C55.8840746,70.8750527 56.0131125,71.5105109 56.2819321,72.0296438 C56.570608,72.5882643 56.9585092,73.0172281 57.4743233,73.373123 C57.9687061,73.7151241 58.5812143,73.9671249 59.1999662,74.1313191 L59.1999662,67.4045856 C58.7499648,67.2897228 58.2131694,67.1665911 57.690774,67.0346845 C56.7417773,66.803665 55.9811624,66.500364 55.3521167,66.1250629 C54.7225648,65.7496492 54.2223882,65.3309229 53.8509683,64.8688839 C53.4797171,64.406845 53.2159038,63.916006 53.0611033,63.3961981 C52.9064153,62.876334 52.8272713,62.3471323 52.8272713,61.8079744 C52.8272713,60.7684711 53.0557033,59.8686371 53.5198235,59.107966 C53.9839999,58.3477448 54.5904331,57.7173491 55.3538042,57.2164413 C56.1167254,56.7160397 56.9686905,56.3456323 57.938556,56.1047128 C58.3479448,56.0031813 58.8062713,55.9243748 59.2000225,55.8656496 L59.2000225,54 L62.8000337,54 L62.8000337,55.8779684 C63.3062853,55.9465373 63.6981803,56.0484064 64.1416567,56.169513 C65.1627099,56.4487951 66.0894315,56.8744965 66.8628714,57.4326107 C67.6364801,57.9912875 68.2500008,58.6933459 68.7039397,59.5113922 C69.1171535,60.2572695 69.3419292,61.0875221 69.3787168,62.1000253 L65.4876671,62.1000253 C65.3401229,60.9187716 64.8365151,60.0488626 64.0333188,59.5403611 C63.6579052,59.3025353 63.3062291,59.0884471 62.7999775,58.9536717 L62.7999775,64.900609 C63.3062291,65.0225032 63.7553305,65.1420911 64.234357,65.2587539 C64.9045778,65.4225544 65.4134169,65.5430986 65.7027115,65.6197675 C66.4245138,65.8318307 67.0535033,66.1205066 67.5900737,66.4860202 C68.1263629,66.8519276 68.5749018,67.270654 68.9361404,67.7421429 C69.296704,68.2141381 69.5651299,68.7194897 69.7405742,69.2581977 Z M59.2000225,63.9956 L59.2000225,58.8507339 C58.8062713,58.9392154 58.3753949,59.0728658 58.0277688,59.2522477 C57.6358176,59.4543545 57.3358917,59.7286866 57.0782659,60.075244 C56.8200776,60.4218576 56.6842896,60.8549277 56.6842896,61.3747355 C56.6842896,62.1066066 56.9122153,62.6791771 57.3971481,63.0928972 C57.8549683,63.4843984 58.5250204,63.7850556 59.2000225,63.9956 Z M65.8882809,72.4203013 C66.0532064,72.0448876 66.1284691,71.6649177 66.1284129,71.279604 C66.1284129,70.490414 65.9301873,69.9079997 65.5485298,69.5324735 C65.1666474,69.1571161 64.7343085,68.8927965 64.2808196,68.738446 C63.8226057,68.5810018 63.3624792,68.4286763 62.7999775,68.2810759 L62.7999775,74.3060322 C63.1374785,74.261482 63.3468979,74.2015193 63.6000237,74.1240066 C64.1981319,73.9412498 64.712371,73.7052803 65.0837346,73.4165481 C65.4552108,73.1277035 65.7229616,72.7956587 65.8882809,72.4203013 Z M61,95 C45.536027,95 33,82.463973 33,67 C33,51.536027 45.536027,39 61,39 C76.463973,39 89,51.536027 89,67 C89,82.463973 76.463973,95 61,95 Z M61,89.4 C73.3711784,89.4 83.4,79.3711784 83.4,67 C83.4,54.6288216 73.3711784,44.6 61,44.6 C48.6288216,44.6 38.6,54.6288216 38.6,67 C38.6,79.3711784 48.6288216,89.4 61,89.4 Z M73.0000006,38.408057 C71.0897992,37.6053878 69.0822562,36.9885602 67,36.5802026 L67,11 L18,11 L18,84 L35.0728513,84 C36.5273172,86.213751 38.2576754,88.2300514 40.2150249,90 L12,90 L12,5 L73,5 L73,38.4080529 Z M38.19627,46 C37.3233906,46.9473698 36.5087948,47.9492663 35.758172,49 L25,49 L25,46 L38.19627,46 Z M30.7935964,60 C30.566727,60.9829407 30.3866003,61.983763 30.2556834,63 L25,63 L25,60 L30.7935964,60 Z M30.7935964,74 C31.0290613,75.0201816 31.3148781,76.021101 31.6482887,77 L25,77 L25,74 L30.7935964,74 Z M25,21 L25,18 L60,18 L60,21 L25,21 Z M25,35 L25,32 L60,32 L60,35 L25,35 Z" id="Combined-Shape" fill="#FFFFFF"></path>
    </g>
</svg>