<?xml version="1.0" encoding="UTF-8"?>
<svg width="100px" height="100px" viewBox="0 0 100 100" version="1.1" xmlns="http://www.w3.org/2000/svg" xmlns:xlink="http://www.w3.org/1999/xlink">
    <!-- Generator: Sketch 54.1 (76490) - https://sketchapp.com -->
    <title>flight-times</title>
    <desc>Created with Sketch.</desc>
    <g id="flight-times" stroke="none" stroke-width="1" fill="none" fill-rule="evenodd">
        <rect fill="#FFFFFF" opacity="0" x="0" y="0" width="100" height="100"></rect>
        <path d="M59.2970314,61.2333879 L56.5276138,56.4736733 L34.230218,78.5481276 L37.5278585,93.9375988 L31.4042299,100 L18.8425379,81.34586 L0,68.9097667 L6.12362855,62.8473655 L21.6685261,66.1120343 L43.9659219,44.03758 L3.14042299,22.2744167 L10.9914805,14.5018583 L62.8084598,25.38344 L84.9484419,3.46482551 C88.4190018,0.0289661002 93.9812798,0.282157188 97.3531127,3.62027668 C100.725142,6.95859048 100.98089,12.4648651 97.5101338,15.9009188 L75.3701518,37.8195333 L78.6066307,53.5951848 C90.3218033,54.65896 99.5,64.5076387 99.5,76.5 C99.5,89.2025492 89.2025492,99.5 76.5,99.5 C63.7974508,99.5 53.5,89.2025492 53.5,76.5 C53.5,70.641423 55.6904444,65.2944518 59.2970314,61.2333879 Z M76.5,94.5 C86.4411255,94.5 94.5,86.4411255 94.5,76.5 C94.5,66.5588745 86.4411255,58.5 76.5,58.5 C66.5588745,58.5 58.5,66.5588745 58.5,76.5 C58.5,86.4411255 66.5588745,94.5 76.5,94.5 Z M79,72.75 L79,74.5484283 C79.2181582,74.7110948 79.473481,74.9379471 79.8017097,75.2661758 L83.5459415,79.0104076 C84.5222523,79.9867184 84.5222523,81.5696308 83.5459415,82.5459415 C82.5696308,83.5222523 80.9867184,83.5222523 80.0104076,82.5459415 L74,76.5355339 L74,71 L74,65.5 C74,64.1192881 75.1192881,63 76.5,63 C77.8807119,63 79,64.1192881 79,65.5 L79,72.75 Z" id="Combined-Shape" fill="#FFFFFF"></path>
    </g>
</svg>