<?xml version="1.0" encoding="UTF-8"?>
<svg width="100px" height="100px" viewBox="0 0 100 100" version="1.1" xmlns="http://www.w3.org/2000/svg" xmlns:xlink="http://www.w3.org/1999/xlink">
    <!-- Generator: Sketch 54.1 (76490) - https://sketchapp.com -->
    <title>flight-landing-time</title>
    <desc>Created with Sketch.</desc>
    <g id="flight-landing-time" stroke="none" stroke-width="1" fill="none" fill-rule="evenodd">
        <rect fill="#000000" opacity="0" x="0" y="0" width="100" height="100"></rect>
        <path d="M84.5444304,85.924326 C80.4899045,84.5716005 76.4346945,83.2166439 72.3809792,81.862986 C56.6085357,76.598905 21.1215083,64.4785643 21.1215083,64.4785643 C17.0946216,62.2202542 4.50296585,46.6493524 7.21771397,47.5542749 C10.3687763,48.6077128 27.9561639,54.1532831 37.5373656,57.2055701 L40.807264,31.6098082 L46.5551435,30.3822251 L60.8773774,64.9302545 C70.7816428,68.2371903 80.6851611,71.5434766 90.5871218,74.8500457 C93.3110262,75.7580174 98.1030322,80.2902519 96.5262578,83.1846644 C94.8151651,86.3256497 87.2568106,86.8304633 84.5444304,85.924326 Z M15.1177754,30.9271877 L20.439463,50.3431241 L7.87587807,46.9355087 L10.277031,31.8485306 L15.1177754,30.9271877 Z M0,96 L100,96 L100,100 L0,100 L0,96 Z M79,41 C67.954305,41 59,32.045695 59,21 C59,9.954305 67.954305,1 79,1 C90.045695,1 99,9.954305 99,21 C99,32.045695 90.045695,41 79,41 Z M79,36.6521739 C87.644457,36.6521739 94.6521739,29.644457 94.6521739,21 C94.6521739,12.355543 87.644457,5.34782609 79,5.34782609 C70.355543,5.34782609 63.3478261,12.355543 63.3478261,21 C63.3478261,29.644457 70.355543,36.6521739 79,36.6521739 Z M81.173913,17.7391304 L81.173913,19.3029811 C81.3636158,19.4444302 81.5856356,19.6416931 81.8710519,19.9271094 L85.1269057,23.1829632 C85.9758715,24.031929 85.9758715,25.4083746 85.1269057,26.2573405 C84.2779398,27.1063063 82.9014942,27.1063063 82.0525284,26.2573405 L76.826087,21.030899 L76.826087,16.2173913 L76.826087,11.4347826 C76.826087,10.2341636 77.799381,9.26086957 79,9.26086957 C80.200619,9.26086957 81.173913,10.2341636 81.173913,11.4347826 L81.173913,17.7391304 Z" id="Combined-Shape" fill="#FFFFFF" fill-rule="nonzero"></path>
    </g>
</svg>