<?xml version="1.0" encoding="UTF-8"?>
<svg width="100px" height="100px" viewBox="0 0 100 100" version="1.1" xmlns="http://www.w3.org/2000/svg" xmlns:xlink="http://www.w3.org/1999/xlink">
    <!-- Generator: Sketch 54.1 (76490) - https://sketchapp.com -->
    <title>flight-takeoff-time</title>
    <desc>Created with Sketch.</desc>
    <g id="flight-takeoff-time" stroke="none" stroke-width="1" fill="none" fill-rule="evenodd">
        <rect fill="#000000" opacity="0" x="0" y="0" width="100" height="100"></rect>
        <path d="M92.0368643,61.3423721 C88.0614021,62.9123232 84.0839818,64.481005 80.1085411,66.0497209 C64.6424623,72.1555322 29.6670174,85.681434 29.6670174,85.681434 C25.1306295,86.539901 5.47607879,82.7056585 8.13736947,81.6538629 C11.2283601,80.4353794 28.2657045,73.3785778 37.5673031,69.5580875 L23.619552,47.8487462 L27.2336079,43.2136973 L60.4121209,60.4728687 C70.1248857,56.6397894 79.8366607,52.8066929 89.5474243,48.974814 C92.2176891,47.9194688 98.8018429,48.3111197 99.454456,51.5418994 C100.162669,55.0479029 94.697122,60.2930291 92.0368643,61.3423721 Z M3.50148199,63.8387135 L20.0584545,75.2914689 L8.24381715,80.7568007 L0.385484447,67.6560736 L3.50148199,63.8387135 Z M0,96 L100,96 L100,100 L0,100 L0,96 Z M79,41 C67.954305,41 59,32.045695 59,21 C59,9.954305 67.954305,1 79,1 C90.045695,1 99,9.954305 99,21 C99,32.045695 90.045695,41 79,41 Z M79,36.6521739 C87.644457,36.6521739 94.6521739,29.644457 94.6521739,21 C94.6521739,12.355543 87.644457,5.34782609 79,5.34782609 C70.355543,5.34782609 63.3478261,12.355543 63.3478261,21 C63.3478261,29.644457 70.355543,36.6521739 79,36.6521739 Z M81.173913,17.7391304 L81.173913,19.3029811 C81.3636158,19.4444302 81.5856356,19.6416931 81.8710519,19.9271094 L85.1269057,23.1829632 C85.9758715,24.031929 85.9758715,25.4083746 85.1269057,26.2573405 C84.2779398,27.1063063 82.9014942,27.1063063 82.0525284,26.2573405 L76.826087,21.030899 L76.826087,16.2173913 L76.826087,11.4347826 C76.826087,10.2341636 77.799381,9.26086957 79,9.26086957 C80.200619,9.26086957 81.173913,10.2341636 81.173913,11.4347826 L81.173913,17.7391304 Z" id="Combined-Shape" fill="#FFFFFF" fill-rule="nonzero"></path>
    </g>
</svg>