<?xml version="1.0" encoding="UTF-8"?>
<svg width="100px" height="100px" viewBox="0 0 100 100" version="1.1" xmlns="http://www.w3.org/2000/svg" xmlns:xlink="http://www.w3.org/1999/xlink">
    <!-- Generator: Sketch 54.1 (76490) - https://sketchapp.com -->
    <title>grab</title>
    <desc>Created with Sketch.</desc>
    <g id="grab" stroke="none" stroke-width="1" fill="none" fill-rule="evenodd">
        <path d="M94.9287202,54.1383732 C92.6683768,56.3974338 89.7024779,57.6417772 86.575584,57.6417772 C84.2889426,57.6417772 81.9913972,56.7899792 80.7284528,55.9490853 C78.1140488,54.207646 75.9653115,52.3173985 72.0969429,47.3194996 L72.0969429,43.7269391 C75.379059,48.0026057 78.4847862,51.3719541 80.8426245,53.2249995 C82.3922811,54.4693429 84.5910487,55.2403227 86.575584,55.2403227 C91.6979172,55.2403227 96.0274626,50.9127016 96.0274626,45.7878027 L96.0274626,43.6255957 C96.0274626,41.0932927 95.0332707,38.7142877 93.2212758,36.9234595 C91.4278819,35.149308 89.0655536,34.1724343 86.575584,34.1724343 C82.3659831,34.1724343 78.6605337,37.0620049 77.6535135,41.0079846 L75.961463,38.9567422 C77.1955438,34.8221868 81.6527306,31.7716212 86.575584,31.7716212 C89.7024779,31.7716212 92.6683768,33.0178888 94.9287202,35.2724595 C97.1858565,37.5315201 98.4282757,40.497419 98.4282757,43.6255957 L98.4282757,45.7878027 C98.4282757,48.9146966 97.1858565,51.8818783 94.9287202,54.1383732 L94.9287202,54.1383732 Z M43.499494,55.2403227 C45.1306102,55.2403227 46.5410798,54.8901106 47.8142869,54.1691611 C48.4127262,54.91705 49.0169384,55.5244692 49.4672111,55.9741005 C48.1202414,57.0029287 45.8393728,57.6417772 43.499494,57.6417772 C40.164782,57.6417772 37.1366659,56.4391257 34.9744589,54.2538278 C32.8282872,52.0884137 31.6429539,49.0821057 31.6429539,45.7878027 L31.6429539,31.7716212 L34.043767,31.7716212 L34.043767,45.7878027 C34.043767,51.3533531 37.9320194,55.2403227 43.499494,55.2403227 L43.499494,55.2403227 Z M66.3145945,31.7716212 L66.3145945,45.7878027 C66.3145945,50.0968228 62.938832,53.4732268 58.6291705,53.4732268 C56.6221857,53.4732268 54.7062817,52.6605551 53.2297463,51.185944 C51.7564181,49.7126157 50.9443878,47.7935047 50.9443878,45.7878027 L50.9443878,43.6255957 C50.9443878,39.4608938 54.46511,35.9395302 58.6291705,35.9395302 C59.7708876,35.9395302 61.325034,36.2204696 62.2762512,37.0010706 L62.2762512,39.5385049 C61.3417108,38.7874089 59.9851199,38.3403433 58.6291705,38.3403433 C55.66712,38.3403433 53.3452009,40.6635452 53.3452009,43.6255957 L53.3452009,45.7878027 C53.3452009,48.7504946 55.66712,51.069848 58.6291705,51.069848 C61.5937866,51.069848 63.9137815,48.7504946 63.9137815,45.7878027 L63.9137815,31.7716212 L66.3145945,31.7716212 Z M2,47.1790299 L2,46.4035603 C2,42.2407826 3.57916158,38.3563786 6.44820697,35.4674494 C9.31019681,32.5849343 13.1464947,31 17.2502623,31 C20.5496966,31 23.4713379,31.746606 25.9375752,33.2135202 C27.970858,34.4257929 28.8720449,35.6508938 28.949656,35.7631413 L28.949656,48.687636 L16.6672168,48.687636 L16.6672168,46.2855401 L26.5488429,46.2855401 L26.5488429,36.5091059 L26.5392217,36.5007676 C25.3821106,35.3417322 22.6355753,33.4027373 17.2502623,33.4027373 C13.7410856,33.4027373 10.492323,34.7400858 8.09664128,37.1742524 C5.71314638,39.5968735 4.40081308,42.8751412 4.40081308,46.4035603 L4.40081308,47.1790299 C4.40081308,50.5105349 5.90364638,53.8343429 8.52189885,56.2935247 C11.1953129,58.7995297 14.6781916,60.1811357 18.3310451,60.1811357 C21.7375955,60.1811357 24.1108278,59.6641559 26.0171106,58.5096105 L26.0171106,61.2041913 C24.0325753,62.0482922 21.6606258,62.427368 18.3310451,62.427368 C9.47953014,62.427368 2,55.4430096 2,47.1790299 L2,47.1790299 Z M43.499494,51.069848 C44.4103021,51.069848 45.1819233,50.9191157 45.796398,50.6202167 C46.095297,51.36554 46.401893,51.9800147 46.8489586,52.7259793 C46.195999,53.1929288 44.6418526,53.4732268 43.499494,53.4732268 C39.1186355,53.4732268 35.81407,50.1693026 35.81407,45.7878027 L35.81407,31.7716212 L38.214883,31.7716212 L38.214883,45.7878027 C38.214883,48.8993026 40.3886355,51.069848 43.499494,51.069848 L43.499494,51.069848 Z M26.0171106,53.8888631 L26.0171106,56.7277621 C23.8446409,57.8932115 21.4739743,58.412757 18.3310451,58.412757 C15.1239745,58.412757 12.0836715,57.235762 9.76688367,55.1037015 C7.4481716,52.963944 6.16983324,50.1494188 6.16983324,47.1790299 L6.16983324,46.4035603 C6.16983324,40.2081412 11.1395099,35.1685504 17.2502623,35.1685504 C22.2205804,35.1685504 24.2609187,36.7951766 24.7804641,37.3095908 L24.7804641,44.5178027 L16.6672168,44.5178027 L16.6672168,42.1176311 L22.5342319,42.1176311 L22.5342319,38.5058281 L22.5130652,38.4987726 C21.7581208,38.1979493 20.1905046,37.5706463 17.2502623,37.5706463 C14.9193634,37.5706463 12.7385553,38.4769645 11.1080806,40.127323 C9.46990893,41.7834543 8.57064632,44.0136512 8.57064632,46.4035603 L8.57064632,47.1790299 C8.57064632,51.966545 13.0406614,56.0106611 18.3310451,56.0106611 C21.9909541,56.0106611 24.1550854,55.4179944 26.0171106,53.8888631 L26.0171106,53.8888631 Z M82.6918215,49.3656107 C83.7751699,50.4463935 85.1933365,51.069848 86.575584,51.069848 C89.5376344,51.069848 91.8608364,48.7504946 91.8608364,45.7878027 L91.8608364,43.6255957 C91.8608364,40.6635452 89.5376344,38.3403433 86.575584,38.3403433 C85.141382,38.3403433 83.7559275,39.1286412 82.6706548,40.553222 C81.7085336,41.8129594 81.0850791,43.5171967 80.9888669,45.0488936 L79.0447407,42.6750199 C79.4263821,40.8591766 80.375675,39.11902 81.716872,37.8958433 C83.1010437,36.6361059 84.8264477,35.9395302 86.575584,35.9395302 C90.81469,35.9395302 94.2603667,39.3877725 94.2603667,43.6255957 L94.2603667,45.7878027 C94.2603667,47.7935047 93.4483364,49.7126157 91.9750081,51.185944 C90.4991142,52.6605551 88.5825688,53.4732268 86.575584,53.4732268 C85.3068669,53.4732268 83.288978,53.0184642 80.8843164,50.8562571 L80.8759781,50.8479188 C80.2326397,50.203939 78.721468,48.6927673 77.8023216,47.6151916 C76.2565135,45.9289138 74.0102812,43.3831411 72.0969429,40.8360856 L72.0969429,37.0870201 C74.2206651,39.8155958 75.4432004,41.3440856 77.4392812,43.649328 C79.2269023,45.7352067 81.4397811,48.2700754 82.6918215,49.3656107 L82.6918215,49.3656107 Z M46.7764788,43.6255957 C46.7764788,40.497419 48.0201808,37.5315201 50.2773171,35.2724595 C52.5363777,33.0178888 55.502918,31.7716212 58.6291705,31.7716212 C59.9536906,31.7716212 61.31413,32.0544848 62.2762512,32.5284899 L62.2762512,34.9273787 C61.1524936,34.4565807 59.7946199,34.1724343 58.6291705,34.1724343 C53.5068372,34.1724343 49.1760091,38.5006968 49.1760091,43.6255957 L49.1760091,45.7878027 C49.1760091,50.9127016 53.5068372,55.2403227 58.6291705,55.2403227 C61.176226,55.2403227 63.5571552,54.2653732 65.3332309,52.4892975 C67.1073824,50.715146 68.0823319,48.3348582 68.0823319,45.7878027 L68.0823319,31.7716212 L70.483145,31.7716212 L70.483145,46.2496209 C70.3336955,49.3085248 69.0277763,52.1705147 66.8065592,54.3102722 C64.582135,56.4583681 61.6746047,57.6417772 58.6291705,57.6417772 C55.502918,57.6417772 52.5363777,56.3974338 50.2773171,54.1383732 C48.0201808,51.8818783 46.7764788,48.9146966 46.7764788,45.7878027 L46.7764788,43.6255957 Z M74.5689529,52.9203278 C75.3040135,53.8029136 76.0647307,54.6996106 76.966559,55.4564793 L76.966559,68.1391608 L74.5689529,68.1391608 L74.5689529,52.9203278 Z M78.7355791,56.4391257 L78.7355791,68.1391608 L81.1351094,68.1391608 L81.1351094,58.0856358 C80.4834326,57.7565903 79.5726246,57.1305701 78.7355791,56.4391257 L78.7355791,56.4391257 Z" id="path1764" fill="#FFFFFF" fill-rule="nonzero" transform="translate(50.214138, 49.569580) scale(1, -1) translate(-50.214138, -49.569580) "></path>
    </g>
</svg>