<?xml version="1.0" encoding="UTF-8" standalone="no"?>
<svg width="20px" height="20px" viewBox="0 0 20 20" version="1.1" xmlns="http://www.w3.org/2000/svg" xmlns:xlink="http://www.w3.org/1999/xlink" xmlns:sketch="http://www.bohemiancoding.com/sketch/ns">
    <!-- Generator: Sketch 3.4.4 (17249) - http://www.bohemiancoding.com/sketch -->
    <title>grip</title>
    <desc>Created with Sketch.</desc>
    <defs>
        <filter x="-50%" y="-50%" width="200%" height="200%" filterUnits="objectBoundingBox" id="filter-1">
            <feOffset dx="0" dy="1" in="SourceAlpha" result="shadowOffsetInner1"></feOffset>
            <feGaussianBlur stdDeviation="1.5" in="shadowOffsetInner1" result="shadowBlurInner1"></feGaussianBlur>
            <feComposite in="shadowBlurInner1" in2="SourceAlpha" operator="arithmetic" k2="-1" k3="1" result="shadowInnerInner1"></feComposite>
            <feColorMatrix values="0 0 0 0 0   0 0 0 0 0   0 0 0 0 0  0 0 0 0.35 0" in="shadowInnerInner1" type="matrix" result="shadowMatrixInner1"></feColorMatrix>
            <feMerge>
                <feMergeNode in="SourceGraphic"></feMergeNode>
                <feMergeNode in="shadowMatrixInner1"></feMergeNode>
            </feMerge>
        </filter>
        <filter x="-50%" y="-50%" width="200%" height="200%" filterUnits="objectBoundingBox" id="filter-2">
            <feOffset dx="0" dy="1" in="SourceAlpha" result="shadowOffsetInner1"></feOffset>
            <feGaussianBlur stdDeviation="1.5" in="shadowOffsetInner1" result="shadowBlurInner1"></feGaussianBlur>
            <feComposite in="shadowBlurInner1" in2="SourceAlpha" operator="arithmetic" k2="-1" k3="1" result="shadowInnerInner1"></feComposite>
            <feColorMatrix values="0 0 0 0 0   0 0 0 0 0   0 0 0 0 0  0 0 0 0.35 0" in="shadowInnerInner1" type="matrix" result="shadowMatrixInner1"></feColorMatrix>
            <feMerge>
                <feMergeNode in="SourceGraphic"></feMergeNode>
                <feMergeNode in="shadowMatrixInner1"></feMergeNode>
            </feMerge>
        </filter>
        <filter x="-50%" y="-50%" width="200%" height="200%" filterUnits="objectBoundingBox" id="filter-3">
            <feOffset dx="0" dy="1" in="SourceAlpha" result="shadowOffsetInner1"></feOffset>
            <feGaussianBlur stdDeviation="1.5" in="shadowOffsetInner1" result="shadowBlurInner1"></feGaussianBlur>
            <feComposite in="shadowBlurInner1" in2="SourceAlpha" operator="arithmetic" k2="-1" k3="1" result="shadowInnerInner1"></feComposite>
            <feColorMatrix values="0 0 0 0 0   0 0 0 0 0   0 0 0 0 0  0 0 0 0.35 0" in="shadowInnerInner1" type="matrix" result="shadowMatrixInner1"></feColorMatrix>
            <feMerge>
                <feMergeNode in="SourceGraphic"></feMergeNode>
                <feMergeNode in="shadowMatrixInner1"></feMergeNode>
            </feMerge>
        </filter>
        <filter x="-50%" y="-50%" width="200%" height="200%" filterUnits="objectBoundingBox" id="filter-4">
            <feOffset dx="0" dy="1" in="SourceAlpha" result="shadowOffsetInner1"></feOffset>
            <feGaussianBlur stdDeviation="1.5" in="shadowOffsetInner1" result="shadowBlurInner1"></feGaussianBlur>
            <feComposite in="shadowBlurInner1" in2="SourceAlpha" operator="arithmetic" k2="-1" k3="1" result="shadowInnerInner1"></feComposite>
            <feColorMatrix values="0 0 0 0 0   0 0 0 0 0   0 0 0 0 0  0 0 0 0.35 0" in="shadowInnerInner1" type="matrix" result="shadowMatrixInner1"></feColorMatrix>
            <feMerge>
                <feMergeNode in="SourceGraphic"></feMergeNode>
                <feMergeNode in="shadowMatrixInner1"></feMergeNode>
            </feMerge>
        </filter>
        <filter x="-50%" y="-50%" width="200%" height="200%" filterUnits="objectBoundingBox" id="filter-5">
            <feOffset dx="0" dy="1" in="SourceAlpha" result="shadowOffsetInner1"></feOffset>
            <feGaussianBlur stdDeviation="1.5" in="shadowOffsetInner1" result="shadowBlurInner1"></feGaussianBlur>
            <feComposite in="shadowBlurInner1" in2="SourceAlpha" operator="arithmetic" k2="-1" k3="1" result="shadowInnerInner1"></feComposite>
            <feColorMatrix values="0 0 0 0 0   0 0 0 0 0   0 0 0 0 0  0 0 0 0.35 0" in="shadowInnerInner1" type="matrix" result="shadowMatrixInner1"></feColorMatrix>
            <feMerge>
                <feMergeNode in="SourceGraphic"></feMergeNode>
                <feMergeNode in="shadowMatrixInner1"></feMergeNode>
            </feMerge>
        </filter>
        <filter x="-50%" y="-50%" width="200%" height="200%" filterUnits="objectBoundingBox" id="filter-6">
            <feOffset dx="0" dy="1" in="SourceAlpha" result="shadowOffsetInner1"></feOffset>
            <feGaussianBlur stdDeviation="1.5" in="shadowOffsetInner1" result="shadowBlurInner1"></feGaussianBlur>
            <feComposite in="shadowBlurInner1" in2="SourceAlpha" operator="arithmetic" k2="-1" k3="1" result="shadowInnerInner1"></feComposite>
            <feColorMatrix values="0 0 0 0 0   0 0 0 0 0   0 0 0 0 0  0 0 0 0.35 0" in="shadowInnerInner1" type="matrix" result="shadowMatrixInner1"></feColorMatrix>
            <feMerge>
                <feMergeNode in="SourceGraphic"></feMergeNode>
                <feMergeNode in="shadowMatrixInner1"></feMergeNode>
            </feMerge>
        </filter>
        <filter x="-50%" y="-50%" width="200%" height="200%" filterUnits="objectBoundingBox" id="filter-7">
            <feOffset dx="0" dy="1" in="SourceAlpha" result="shadowOffsetInner1"></feOffset>
            <feGaussianBlur stdDeviation="1.5" in="shadowOffsetInner1" result="shadowBlurInner1"></feGaussianBlur>
            <feComposite in="shadowBlurInner1" in2="SourceAlpha" operator="arithmetic" k2="-1" k3="1" result="shadowInnerInner1"></feComposite>
            <feColorMatrix values="0 0 0 0 0   0 0 0 0 0   0 0 0 0 0  0 0 0 0.35 0" in="shadowInnerInner1" type="matrix" result="shadowMatrixInner1"></feColorMatrix>
            <feMerge>
                <feMergeNode in="SourceGraphic"></feMergeNode>
                <feMergeNode in="shadowMatrixInner1"></feMergeNode>
            </feMerge>
        </filter>
        <filter x="-50%" y="-50%" width="200%" height="200%" filterUnits="objectBoundingBox" id="filter-8">
            <feOffset dx="0" dy="1" in="SourceAlpha" result="shadowOffsetInner1"></feOffset>
            <feGaussianBlur stdDeviation="1.5" in="shadowOffsetInner1" result="shadowBlurInner1"></feGaussianBlur>
            <feComposite in="shadowBlurInner1" in2="SourceAlpha" operator="arithmetic" k2="-1" k3="1" result="shadowInnerInner1"></feComposite>
            <feColorMatrix values="0 0 0 0 0   0 0 0 0 0   0 0 0 0 0  0 0 0 0.35 0" in="shadowInnerInner1" type="matrix" result="shadowMatrixInner1"></feColorMatrix>
            <feMerge>
                <feMergeNode in="SourceGraphic"></feMergeNode>
                <feMergeNode in="shadowMatrixInner1"></feMergeNode>
            </feMerge>
        </filter>
    </defs>
    <g id="Blank-Slate" stroke="none" stroke-width="1" fill="none" fill-rule="evenodd" sketch:type="MSPage">
        <g id="Icons" sketch:type="MSArtboardGroup" transform="translate(-108.000000, -5.000000)" fill="#FFFFFF">
            <g id="grip" sketch:type="MSLayerGroup" transform="translate(108.000000, 5.000000)">
                <path d="M12.5621875,0.3121875 C13.223125,0.3121875 13.7590625,0.871875 13.7590625,1.5621875 C13.7590625,2.2525 13.223125,2.8121875 12.5621875,2.8121875 C11.90125,2.8121875 11.365625,2.2528125 11.365625,1.5621875 C11.365625,0.8715625 11.90125,0.3121875 12.5621875,0.3121875 L12.5621875,0.3121875 Z" id="more-path" filter="url(#filter-1)" sketch:type="MSShapeGroup"></path>
                <path d="M12.5621875,5.93718748 C13.223125,5.93718748 13.7590625,6.496875 13.7590625,7.18718748 C13.7590625,7.8775 13.223125,8.43718748 12.5621875,8.43718748 C11.90125,8.43718748 11.365625,7.87781248 11.365625,7.18718748 C11.365625,6.49656248 11.90125,5.93718748 12.5621875,5.93718748 L12.5621875,5.93718748 Z" id="more-path" filter="url(#filter-2)" sketch:type="MSShapeGroup"></path>
                <path d="M12.5621875,11.5621875 C13.223125,11.5621875 13.7590625,12.121875 13.7590625,12.8121875 C13.7590625,13.5025 13.223125,14.0621875 12.5621875,14.0621875 C11.90125,14.0621875 11.365625,13.5028125 11.365625,12.8121875 C11.365625,12.1215625 11.90125,11.5621875 12.5621875,11.5621875 L12.5621875,11.5621875 Z" id="more-path" filter="url(#filter-3)" sketch:type="MSShapeGroup"></path>
                <path d="M12.5621875,17.1875 C13.223125,17.1875 13.7590625,17.7471875 13.7590625,18.4375 C13.7590625,19.1278125 13.223125,19.6875 12.5621875,19.6875 C11.90125,19.6875 11.365625,19.128125 11.365625,18.4375 C11.365625,17.746875 11.90125,17.1875 12.5621875,17.1875 L12.5621875,17.1875 Z" id="more-path" filter="url(#filter-4)" sketch:type="MSShapeGroup"></path>
                <path d="M7.5090625,17.1875 C8.17,17.1875 8.7059375,17.7471875 8.7059375,18.4375 C8.7059375,19.1278125 8.17,19.6875 7.5090625,19.6875 C6.848125,19.6875 6.3121875,19.128125 6.3121875,18.4375 C6.3121875,17.746875 6.848125,17.1875 7.5090625,17.1875 L7.5090625,17.1875 Z" id="more-path" filter="url(#filter-5)" sketch:type="MSShapeGroup"></path>
                <path d="M7.5090625,11.5621875 C8.17,11.5621875 8.7059375,12.121875 8.7059375,12.8121875 C8.7059375,13.5025 8.17,14.0621875 7.5090625,14.0621875 C6.848125,14.0621875 6.3121875,13.5028125 6.3121875,12.8121875 C6.3121875,12.1215625 6.848125,11.5621875 7.5090625,11.5621875 L7.5090625,11.5621875 Z" id="more-path" filter="url(#filter-6)" sketch:type="MSShapeGroup"></path>
                <path d="M7.5090625,5.93718748 C8.17,5.93718748 8.7059375,6.496875 8.7059375,7.18718748 C8.7059375,7.8775 8.17,8.43718748 7.5090625,8.43718748 C6.848125,8.43718748 6.3121875,7.87781248 6.3121875,7.18718748 C6.3121875,6.49656248 6.848125,5.93718748 7.5090625,5.93718748 L7.5090625,5.93718748 Z" id="more-path" filter="url(#filter-7)" sketch:type="MSShapeGroup"></path>
                <path d="M7.5090625,0.3121875 C8.17,0.3121875 8.7059375,0.871875 8.7059375,1.5621875 C8.7059375,2.2525 8.17,2.8121875 7.5090625,2.8121875 C6.848125,2.8121875 6.3121875,2.2528125 6.3121875,1.5621875 C6.3121875,0.8715625 6.848125,0.3121875 7.5090625,0.3121875 L7.5090625,0.3121875 Z" id="more-path" filter="url(#filter-8)" sketch:type="MSShapeGroup"></path>
            </g>
        </g>
    </g>
</svg>