<?xml version="1.0" encoding="UTF-8" standalone="no"?>
<svg width="20px" height="50px" viewBox="0 0 20 50" version="1.1" xmlns="http://www.w3.org/2000/svg" xmlns:xlink="http://www.w3.org/1999/xlink" xmlns:sketch="http://www.bohemiancoding.com/sketch/ns">
    <!-- Generator: Sketch 3.4.2 (15855) - http://www.bohemiancoding.com/sketch -->
    <title>grip</title>
    <desc>Created with Sketch.</desc>
    <defs>
        <filter x="-50%" y="-50%" width="200%" height="200%" filterUnits="objectBoundingBox" id="filter-1">
            <feOffset dx="0" dy="1" in="SourceAlpha" result="shadowOffsetInner1"></feOffset>
            <feGaussianBlur stdDeviation="1.5" in="shadowOffsetInner1" result="shadowBlurInner1"></feGaussianBlur>
            <feComposite in="shadowBlurInner1" in2="SourceAlpha" operator="arithmetic" k2="-1" k3="1" result="shadowInnerInner1"></feComposite>
            <feColorMatrix values="0 0 0 0 0   0 0 0 0 0   0 0 0 0 0  0 0 0 0.35 0" in="shadowInnerInner1" type="matrix" result="shadowMatrixInner1"></feColorMatrix>
            <feMerge>
                <feMergeNode in="SourceGraphic"></feMergeNode>
                <feMergeNode in="shadowMatrixInner1"></feMergeNode>
            </feMerge>
        </filter>
        <filter x="-50%" y="-50%" width="200%" height="200%" filterUnits="objectBoundingBox" id="filter-2">
            <feOffset dx="0" dy="1" in="SourceAlpha" result="shadowOffsetInner1"></feOffset>
            <feGaussianBlur stdDeviation="1.5" in="shadowOffsetInner1" result="shadowBlurInner1"></feGaussianBlur>
            <feComposite in="shadowBlurInner1" in2="SourceAlpha" operator="arithmetic" k2="-1" k3="1" result="shadowInnerInner1"></feComposite>
            <feColorMatrix values="0 0 0 0 0   0 0 0 0 0   0 0 0 0 0  0 0 0 0.35 0" in="shadowInnerInner1" type="matrix" result="shadowMatrixInner1"></feColorMatrix>
            <feMerge>
                <feMergeNode in="SourceGraphic"></feMergeNode>
                <feMergeNode in="shadowMatrixInner1"></feMergeNode>
            </feMerge>
        </filter>
        <filter x="-50%" y="-50%" width="200%" height="200%" filterUnits="objectBoundingBox" id="filter-3">
            <feOffset dx="0" dy="1" in="SourceAlpha" result="shadowOffsetInner1"></feOffset>
            <feGaussianBlur stdDeviation="1.5" in="shadowOffsetInner1" result="shadowBlurInner1"></feGaussianBlur>
            <feComposite in="shadowBlurInner1" in2="SourceAlpha" operator="arithmetic" k2="-1" k3="1" result="shadowInnerInner1"></feComposite>
            <feColorMatrix values="0 0 0 0 0   0 0 0 0 0   0 0 0 0 0  0 0 0 0.35 0" in="shadowInnerInner1" type="matrix" result="shadowMatrixInner1"></feColorMatrix>
            <feMerge>
                <feMergeNode in="SourceGraphic"></feMergeNode>
                <feMergeNode in="shadowMatrixInner1"></feMergeNode>
            </feMerge>
        </filter>
        <filter x="-50%" y="-50%" width="200%" height="200%" filterUnits="objectBoundingBox" id="filter-4">
            <feOffset dx="0" dy="1" in="SourceAlpha" result="shadowOffsetInner1"></feOffset>
            <feGaussianBlur stdDeviation="1.5" in="shadowOffsetInner1" result="shadowBlurInner1"></feGaussianBlur>
            <feComposite in="shadowBlurInner1" in2="SourceAlpha" operator="arithmetic" k2="-1" k3="1" result="shadowInnerInner1"></feComposite>
            <feColorMatrix values="0 0 0 0 0   0 0 0 0 0   0 0 0 0 0  0 0 0 0.35 0" in="shadowInnerInner1" type="matrix" result="shadowMatrixInner1"></feColorMatrix>
            <feMerge>
                <feMergeNode in="SourceGraphic"></feMergeNode>
                <feMergeNode in="shadowMatrixInner1"></feMergeNode>
            </feMerge>
        </filter>
    </defs>
    <g id="Blank-Slate" stroke="none" stroke-width="1" fill="none" fill-rule="evenodd" sketch:type="MSPage">
        <g id="Icons" sketch:type="MSArtboardGroup" transform="translate(-391.000000, -20.000000)" fill="#FFFFFF">
            <g id="grip" sketch:type="MSLayerGroup" transform="translate(391.000000, 20.000000)">
                <g id="Grip" sketch:type="MSShapeGroup">
                    <path d="M3.77265625,0.78046875 C5.425,0.78046875 6.76484375,2.1796875 6.76484375,3.90546875 C6.76484375,5.63125 5.425,7.03046875 3.77265625,7.03046875 C2.1203125,7.03046875 0.78046875,5.63203125 0.78046875,3.90546875 C0.78046875,2.17890625 2.1203125,0.78046875 3.77265625,0.78046875 L3.77265625,0.78046875 Z M16.4054688,0.78046875 C18.0578125,0.78046875 19.3976563,2.1796875 19.3976563,3.90546875 C19.3976563,5.63125 18.0578125,7.03046875 16.4054688,7.03046875 C14.753125,7.03046875 13.4140625,5.63203125 13.4140625,3.90546875 C13.4140625,2.17890625 14.753125,0.78046875 16.4054688,0.78046875 L16.4054688,0.78046875 Z" id="more" filter="url(#filter-1)"></path>
                    <path d="M3.77265625,14.8429687 C5.425,14.8429687 6.76484375,16.2421875 6.76484375,17.9679687 C6.76484375,19.69375 5.425,21.0929687 3.77265625,21.0929687 C2.1203125,21.0929687 0.78046875,19.6945312 0.78046875,17.9679687 C0.78046875,16.2414062 2.1203125,14.8429687 3.77265625,14.8429687 L3.77265625,14.8429687 Z M16.4054688,14.8429687 C18.0578125,14.8429687 19.3976563,16.2421875 19.3976563,17.9679687 C19.3976563,19.69375 18.0578125,21.0929687 16.4054688,21.0929687 C14.753125,21.0929687 13.4140625,19.6945312 13.4140625,17.9679687 C13.4140625,16.2414062 14.753125,14.8429687 16.4054688,14.8429687 L16.4054688,14.8429687 Z" id="more" filter="url(#filter-2)"></path>
                    <path d="M3.77265625,28.9054687 C5.425,28.9054687 6.76484375,30.3046875 6.76484375,32.0304687 C6.76484375,33.75625 5.425,35.1554687 3.77265625,35.1554687 C2.1203125,35.1554687 0.78046875,33.7570312 0.78046875,32.0304687 C0.78046875,30.3039062 2.1203125,28.9054687 3.77265625,28.9054687 L3.77265625,28.9054687 Z M16.4054688,28.9054687 C18.0578125,28.9054687 19.3976563,30.3046875 19.3976563,32.0304687 C19.3976563,33.75625 18.0578125,35.1554687 16.4054688,35.1554687 C14.753125,35.1554687 13.4140625,33.7570312 13.4140625,32.0304687 C13.4140625,30.3039062 14.753125,28.9054687 16.4054688,28.9054687 L16.4054688,28.9054687 Z" id="more" filter="url(#filter-3)"></path>
                    <path d="M3.77265625,42.96875 C5.425,42.96875 6.76484375,44.3679687 6.76484375,46.09375 C6.76484375,47.8195313 5.425,49.21875 3.77265625,49.21875 C2.1203125,49.21875 0.78046875,47.8203125 0.78046875,46.09375 C0.78046875,44.3671875 2.1203125,42.96875 3.77265625,42.96875 L3.77265625,42.96875 Z M16.4054688,42.96875 C18.0578125,42.96875 19.3976563,44.3679687 19.3976563,46.09375 C19.3976563,47.8195313 18.0578125,49.21875 16.4054688,49.21875 C14.753125,49.21875 13.4140625,47.8203125 13.4140625,46.09375 C13.4140625,44.3671875 14.753125,42.96875 16.4054688,42.96875 L16.4054688,42.96875 Z" id="more" filter="url(#filter-4)"></path>
                </g>
            </g>
        </g>
    </g>
</svg>