<?xml version="1.0" encoding="UTF-8" standalone="no"?>
<svg width="50px" height="50px" viewBox="0 0 50 50" version="1.1" xmlns="http://www.w3.org/2000/svg" xmlns:xlink="http://www.w3.org/1999/xlink" xmlns:sketch="http://www.bohemiancoding.com/sketch/ns">
    <!-- Generator: Sketch 3.4.2 (15855) - http://www.bohemiancoding.com/sketch -->
    <title>gym</title>
    <desc>Created with Sketch.</desc>
    <defs></defs>
    <g id="Blank-Slate" stroke="none" stroke-width="1" fill="none" fill-rule="evenodd" sketch:type="MSPage">
        <g id="Icons" sketch:type="MSArtboardGroup" transform="translate(-467.000000, -101.000000)" fill="#FFFFFF">
            <g id="gym" sketch:type="MSLayerGroup" transform="translate(466.000000, 100.000000)">
                <g id="Group" transform="translate(0.961538, 0.604192)" sketch:type="MSShapeGroup">
                    <path d="M48.4091346,22.490199 L47.2375,22.490199 L47.2375,28.4873207 L48.4091346,28.4873207 C48.7764423,28.4873207 49.0769231,28.186624 49.0769231,27.8196395 L49.0769231,23.1569194 C49.0769231,22.7904153 48.7764423,22.490199 48.4091346,22.490199 L48.4091346,22.490199 Z" id="Shape"></path>
                    <path d="M1.66778846,22.490199 C1.30048077,22.490199 1,22.7904153 1,23.1573998 L1,27.8201199 C1,28.1871043 1.30048077,28.487801 1.66778846,28.487801 L2.83942308,28.487801 L2.83942308,22.490199 L1.66778846,22.490199 L1.66778846,22.490199 Z" id="Shape"></path>
                    <path d="M16.56875,13.2324875 L11.8793269,13.2324875 C11.5115385,13.2324875 11.2115385,13.5327039 11.2115385,13.8996883 L11.2115385,22.4897186 L11.2115385,28.4868403 L11.2115385,37.0768706 C11.2115385,37.4438551 11.5115385,37.7440714 11.8793269,37.7440714 L16.56875,37.7440714 C16.9360577,37.7440714 17.2365385,37.4438551 17.2365385,37.0768706 L17.2365385,28.4873207 L17.2365385,22.490199 L17.2365385,13.9001687 C17.2360577,13.5331842 16.9355769,13.2324875 16.56875,13.2324875 L16.56875,13.2324875 Z" id="Shape"></path>
                    <path d="M9.37019231,16.1525118 L4.68028846,16.1525118 C4.31298077,16.1525118 4.0125,16.4527282 4.0125,16.8197126 L4.0125,22.4897186 L4.0125,28.4868403 L4.0125,34.156366 C4.0125,34.5233505 4.31298077,34.8235668 4.68028846,34.8235668 L9.37019231,34.8235668 C9.73653846,34.8235668 10.0379808,34.5233505 10.0379808,34.156366 L10.0379808,28.4873207 L10.0379808,22.490199 L10.0379808,16.820193 C10.0379808,16.4532085 9.73653846,16.1525118 9.37019231,16.1525118 L9.37019231,16.1525118 Z" id="Shape"></path>
                    <path d="M38.1975962,13.2324875 L33.5081731,13.2324875 C33.1408654,13.2324875 32.8403846,13.5327039 32.8403846,13.8996883 L32.8403846,22.4897186 L32.8403846,28.4868403 L32.8403846,37.0778313 C32.8403846,37.4448158 33.1408654,37.7450321 33.5081731,37.7450321 L38.1975962,37.7450321 C38.5649038,37.7450321 38.8653846,37.4448158 38.8653846,37.0778313 L38.8653846,28.4873207 L38.8653846,22.490199 L38.8653846,13.9001687 C38.8653846,13.5331842 38.5649038,13.2324875 38.1975962,13.2324875 L38.1975962,13.2324875 Z" id="Shape"></path>
                    <path d="M45.3966346,16.1534725 L40.7067308,16.1534725 C40.3394231,16.1534725 40.0389423,16.4536888 40.0389423,16.8206733 L40.0389423,22.490199 L40.0389423,28.4873207 L40.0389423,34.1573267 C40.0389423,34.5243112 40.3394231,34.8245275 40.7067308,34.8245275 L45.3966346,34.8245275 C45.7639423,34.8245275 46.0644231,34.5243112 46.0644231,34.1573267 L46.0644231,28.4873207 L46.0644231,22.490199 L46.0644231,16.8206733 C46.0639423,16.4536888 45.7634615,16.1534725 45.3966346,16.1534725 L45.3966346,16.1534725 Z" id="Shape"></path>
                    <path d="M30.4482924,23 L19.5517076,23 C18.6970954,23 18,23.0612397 18,23.1360991 L18,24.888338 L18,26.111662 L18,27.8639009 C18,27.9387603 18.6970954,28 19.5517076,28 L30.4482924,28 C31.3017874,28 32,27.9387603 32,27.8639009 L32,26.11176 L32,24.888436 L32,23.1361971 C31.9988829,23.0613377 31.3006703,23 30.4482924,23 L30.4482924,23 Z" id="Shape"></path>
                </g>
            </g>
        </g>
    </g>
</svg>