<?xml version="1.0" encoding="UTF-8" standalone="no"?>
<svg width="21px" height="21px" viewBox="0 0 21 21" version="1.1" xmlns="http://www.w3.org/2000/svg" xmlns:xlink="http://www.w3.org/1999/xlink" xmlns:sketch="http://www.bohemiancoding.com/sketch/ns">
    <!-- Generator: Sketch 3.4.4 (17249) - http://www.bohemiancoding.com/sketch -->
    <title>gym</title>
    <desc>Created with Sketch.</desc>
    <defs></defs>
    <g id="Blank-Slate" stroke="none" stroke-width="1" fill="none" fill-rule="evenodd" sketch:type="MSPage">
        <g id="Icons" sketch:type="MSArtboardGroup" transform="translate(-133.000000, -30.000000)" fill="#FFFFFF">
            <g id="gym" sketch:type="MSLayerGroup" transform="translate(133.000000, 30.000000)">
                <g id="Group" transform="translate(0.369822, 5.232381)" sketch:type="MSShapeGroup">
                    <path d="M19.5988399,3.84218581 L19.1244939,3.84218581 L19.1244939,6.27017032 L19.5988399,6.27017032 C19.7475475,6.27017032 19.8691996,6.14843077 19.8691996,5.99985406 L19.8691996,4.11211313 C19.8691996,3.96373089 19.7475475,3.84218581 19.5988399,3.84218581 L19.5988399,3.84218581 Z" id="Shape"></path>
                    <path d="M0.675218001,3.84218581 C0.526510433,3.84218581 0.4048583,3.96373089 0.4048583,4.1123076 L0.4048583,6.00004854 C0.4048583,6.14862524 0.526510433,6.27036479 0.675218001,6.27036479 L1.149564,6.27036479 L1.149564,3.84218581 L0.675218001,3.84218581 L0.675218001,3.84218581 Z" id="Shape"></path>
                    <path d="M6.70799595,0.0941245095 L4.8094441,0.0941245095 C4.66054189,0.0941245095 4.5390844,0.215669589 4.5390844,0.364246294 L4.5390844,3.84199134 L4.5390844,6.26997585 L4.5390844,9.7477209 C4.5390844,9.8962976 4.66054189,10.0178427 4.8094441,10.0178427 L6.70799595,10.0178427 C6.85670352,10.0178427 6.97835565,9.8962976 6.97835565,9.7477209 L6.97835565,6.27017032 L6.97835565,3.84218581 L6.97835565,0.364440766 C6.97816101,0.215864061 6.85650888,0.0941245095 6.70799595,0.0941245095 L6.70799595,0.0941245095 Z" id="Shape"></path>
                    <path d="M3.79360012,1.27632057 L1.89485363,1.27632057 C1.74614606,1.27632057 1.62449393,1.39786565 1.62449393,1.54644235 L1.62449393,3.84199134 L1.62449393,6.26997585 L1.62449393,8.56533036 C1.62449393,8.71390707 1.74614606,8.83545215 1.89485363,8.83545215 L3.79360012,8.83545215 C3.94191841,8.83545215 4.06395983,8.71390707 4.06395983,8.56533036 L4.06395983,6.27017032 L4.06395983,3.84218581 L4.06395983,1.54663683 C4.06395983,1.39806012 3.94191841,1.27632057 3.79360012,1.27632057 L3.79360012,1.27632057 Z" id="Shape"></path>
                    <path d="M15.4646138,0.0941245095 L13.566062,0.0941245095 C13.4173544,0.0941245095 13.2957023,0.215669589 13.2957023,0.364246294 L13.2957023,3.84199134 L13.2957023,6.26997585 L13.2957023,9.74810984 C13.2957023,9.89668655 13.4173544,10.0182316 13.566062,10.0182316 L15.4646138,10.0182316 C15.6133214,10.0182316 15.7349735,9.89668655 15.7349735,9.74810984 L15.7349735,6.27017032 L15.7349735,3.84218581 L15.7349735,0.364440766 C15.7349735,0.215864061 15.6133214,0.0941245095 15.4646138,0.0941245095 L15.4646138,0.0941245095 Z" id="Shape"></path>
                    <path d="M18.3792043,1.27670951 L16.4804578,1.27670951 C16.3317502,1.27670951 16.2100981,1.39825459 16.2100981,1.5468313 L16.2100981,3.84218581 L16.2100981,6.27017032 L16.2100981,8.56571931 C16.2100981,8.71429601 16.3317502,8.83584109 16.4804578,8.83584109 L18.3792043,8.83584109 C18.5279119,8.83584109 18.649564,8.71429601 18.649564,8.56571931 L18.649564,6.27017032 L18.649564,3.84218581 L18.649564,1.5468313 C18.6493694,1.39825459 18.5277172,1.27670951 18.3792043,1.27670951 L18.3792043,1.27670951 Z" id="Shape"></path>
                    <path d="M12.3272439,4.048583 L7.9156711,4.048583 C7.56967427,4.048583 7.28744939,4.07337639 7.28744939,4.10368384 L7.28744939,4.81309231 L7.28744939,5.30836518 L7.28744939,6.01777365 C7.28744939,6.0480811 7.56967427,6.07287449 7.9156711,6.07287449 L12.3272439,6.07287449 C12.6727884,6.07287449 12.9554656,6.0480811 12.9554656,6.01777365 L12.9554656,5.30840485 L12.9554656,4.81313198 L12.9554656,4.10372351 C12.9550133,4.07341606 12.6723361,4.048583 12.3272439,4.048583 L12.3272439,4.048583 Z" id="Shape"></path>
                </g>
            </g>
        </g>
    </g>
</svg>