<?xml version="1.0" encoding="UTF-8" standalone="no"?>
<svg width="20px" height="20px" viewBox="0 0 20 20" version="1.1" xmlns="http://www.w3.org/2000/svg" xmlns:xlink="http://www.w3.org/1999/xlink" xmlns:sketch="http://www.bohemiancoding.com/sketch/ns">
    <!-- Generator: Sketch 3.4.4 (17249) - http://www.bohemiancoding.com/sketch -->
    <title>landing</title>
    <desc>Created with Sketch.</desc>
    <defs></defs>
    <g id="Blank-Slate" stroke="none" stroke-width="1" fill="none" fill-rule="evenodd" sketch:type="MSPage">
        <g id="Icons" sketch:type="MSArtboardGroup" transform="translate(-31.000000, -30.000000)" fill="#FFFFFF">
            <g id="landing" sketch:type="MSLayerGroup" transform="translate(31.000000, 30.000000)">
                <path d="M19.0037109,14.560671 C19.3618971,14.0037845 18.4776568,13.0408887 17.9494563,12.8259056 C16.0294273,12.0432215 14.1090841,11.2605741 12.1886021,10.477788 L9.86777148,3.41585555 L8.70499166,3.58846387 L7.66182056,8.64671382 C5.80173191,7.91870285 2.38644956,6.59376113 1.7754647,6.34445123 C1.24903963,6.13019028 3.51636656,9.38984084 4.28318993,9.89014838 C4.28318993,9.89014838 11.1601222,12.7489775 14.218504,13.9951221 C15.0045354,14.3155408 15.7908442,14.6362371 16.5770511,14.9564802 C17.1029863,15.1709536 18.6150123,15.1649984 19.0037109,14.560671 L19.0037109,14.560671 L19.0037109,14.560671 L19.0037109,14.560671 Z" id="Shape" sketch:type="MSShapeGroup"></path>
                <path d="M3.1206078,3.61326321 L2.30494756,3.67685933 L1.83021382,6.14608931 L3.91936231,6.94725367 L3.1206078,3.61326321 L3.1206078,3.61326321 L3.1206078,3.61326321 Z" id="Shape" sketch:type="MSShapeGroup"></path>
            </g>
        </g>
    </g>
</svg>