<?xml version="1.0" encoding="UTF-8" standalone="no"?>
<svg width="50px" height="50px" viewBox="0 0 50 50" version="1.1" xmlns="http://www.w3.org/2000/svg" xmlns:xlink="http://www.w3.org/1999/xlink" xmlns:sketch="http://www.bohemiancoding.com/sketch/ns">
    <!-- Generator: Sketch 3.4.2 (15855) - http://www.bohemiancoding.com/sketch -->
    <title>logo</title>
    <desc>Created with Sketch.</desc>
    <defs></defs>
    <g id="Page-1" stroke="none" stroke-width="1" fill="none" fill-rule="evenodd" sketch:type="MSPage">
        <rect id="Rectangle-2" fill="#000000" sketch:type="MSShapeGroup" x="-535" y="-135" width="750" height="456"></rect>
        <g id="logofont" sketch:type="MSLayerGroup" fill="#FFFFFF">
            <path d="M6.73088685,4.66577866 C6.73088685,5.77049196 5.83493206,6.66666667 4.72999884,6.66666667 L45.3984415,6.66666667 C44.2937282,6.66666667 43.3975535,5.77071187 43.3975535,4.66577866 L43.3975535,45.3342213 C43.3975535,44.229508 44.2935083,43.3333333 45.3984415,43.3333333 L4.72999884,43.3333333 C5.83471215,43.3333333 6.73088685,44.2292881 6.73088685,45.3342213 L6.73088685,4.66577866 L6.73088685,4.66577866 Z M0.0642201835,4.66577866 L0.0642201835,45.3342213 C0.0642201835,47.9115528 2.15318002,50 4.72999884,50 L45.3984415,50 C47.9757729,50 50.0642202,47.9110402 50.0642202,45.3342213 L50.0642202,4.66577866 C50.0642202,2.08844723 47.9752603,0 45.3984415,0 L4.72999884,0 C2.15266742,0 0.0642201835,2.08895984 0.0642201835,4.66577866 L0.0642201835,4.66577866 Z" id="Shape" sketch:type="MSShapeGroup"></path>
            <path d="M42.2797395,40.6293793 C41.609436,39.1451358 41.2742842,36.7033157 41.2742842,33.3039191 L41.2742842,15.1099655 C41.2742842,13.0990549 40.795496,11.5190536 39.7900406,10.2742042 C38.6409488,8.88571824 36.96519,8.16753587 34.8585216,8.16753587 C31.8900345,8.16753587 29.6397297,9.5560218 28.0118496,12.3329937 L27.9639708,12.3329937 C27.9639708,9.5560218 26.3839696,8.16753587 23.2718459,8.16753587 C21.88336,8.16753587 20.6385106,8.64632412 19.4415399,9.60390062 C18.2445693,10.5614771 17.3348716,11.8063266 16.7603257,13.338449 L17.8615387,13.8651161 C18.6754787,12.3329937 19.4894188,11.5669325 20.2076011,11.5669325 C20.9736623,11.5669325 21.3566929,12.4287513 21.3566929,14.2481467 L21.3566929,30.8142202 L28.0118496,30.8142202 L28.0118496,14.152389 C28.0118496,13.9129949 28.2991226,13.5299643 28.8257897,13.0032972 C29.9270026,11.9020842 31.0282156,11.3754172 32.2251863,11.3754172 C33.8530663,11.3754172 34.6191275,12.7639031 34.6191275,15.5408749 L34.6191275,33.3517979 C34.6191275,35.2669509 34.6670063,36.6554369 34.762764,37.4214981 C34.9064005,38.6184687 35.1936734,39.6718028 35.6724617,40.6293793 L42.2797395,40.6293793 Z" id="ð›ˆ" sketch:type="MSShapeGroup" transform="translate(30.357912, 24.398458) scale(-1, 1) rotate(-270.000000) translate(-30.357912, -24.398458) "></path>
        </g>
    </g>
</svg>