<?xml version="1.0" encoding="UTF-8" standalone="no"?>
<svg width="294px" height="294px" viewBox="0 0 294 294" version="1.1" xmlns="http://www.w3.org/2000/svg" xmlns:xlink="http://www.w3.org/1999/xlink" xmlns:sketch="http://www.bohemiancoding.com/sketch/ns">
    <!-- Generator: Sketch 3.4.2 (15855) - http://www.bohemiancoding.com/sketch -->
    <title>Rectangle 9 Copy 2</title>
    <desc>Created with Sketch.</desc>
    <defs></defs>
    <g id="Page-1" stroke="none" stroke-width="1" fill="none" fill-rule="evenodd" sketch:type="MSPage">
        <g id="Logos" sketch:type="MSLayerGroup" transform="translate(-46.000000, -378.000000)" fill="#FFFFFF">
            <g id="logo-white" transform="translate(46.000000, 378.000000)" sketch:type="MSShapeGroup">
                <path d="M252,170.234416 L252,42 L42,42 L42,252 L252,252 L252,210.674136 C245.567368,210.000712 238.172701,209.664 229.816,209.664 L120.376,209.664 C108.28,209.664 98.776,206.784 91.288,200.736 C82.936,193.824 78.616,183.744 78.616,171.072 C78.616,153.216 86.968,139.68 103.672,129.888 L103.672,129.6 C86.968,129.6 78.616,120.096 78.616,101.376 C78.616,93.024 81.496,85.536 87.256,78.336 C93.016,71.136 100.504,65.664 109.72,62.208 L112.888,68.832 C103.672,73.728 99.064,78.624 99.064,82.944 C99.064,87.552 104.248,89.856 115.192,89.856 L214.84,89.856 L214.84,129.888 L114.616,129.888 C113.176,129.888 110.872,131.616 107.704,134.784 C101.08,141.408 97.912,148.032 97.912,155.232 C97.912,165.024 106.264,169.632 122.968,169.632 L230.104,169.632 C239.723308,169.632 247.133757,169.832805 252,170.234416 Z M0,39.9944291 C0,17.9061158 17.9071998,0 39.9944291,0 L254.005571,0 C276.093884,0 294,17.9071998 294,39.9944291 L294,254.005571 C294,276.093884 276.0928,294 254.005571,294 L39.9944291,294 C17.9061158,294 0,276.0928 0,254.005571 L0,39.9944291 Z" id="Rectangle-9-Copy-2"></path>
            </g>
        </g>
    </g>
</svg>