<?xml version="1.0" encoding="UTF-8" standalone="no"?>
<svg width="20px" height="20px" viewBox="0 0 20 20" version="1.1" xmlns="http://www.w3.org/2000/svg" xmlns:xlink="http://www.w3.org/1999/xlink" xmlns:sketch="http://www.bohemiancoding.com/sketch/ns">
    <!-- Generator: Sketch 3.4.4 (17249) - http://www.bohemiancoding.com/sketch -->
    <title>logo</title>
    <desc>Created with Sketch.</desc>
    <defs></defs>
    <g id="Blank-Slate" stroke="none" stroke-width="1" fill="none" fill-rule="evenodd" sketch:type="MSPage">
        <g id="Icons" sketch:type="MSArtboardGroup" transform="translate(-208.000000, -5.000000)" fill="#FFFFFF">
            <g id="logo" sketch:type="MSLayerGroup" transform="translate(208.000000, 5.000000)">
                <path d="M17.1428571,11.5805725 L17.1428571,2.85714286 L2.85714286,2.85714286 L2.85714286,17.1428571 L17.1428571,17.1428571 L17.1428571,14.3315739 C16.7052631,14.2857627 16.2022246,14.2628571 15.6337415,14.2628571 L8.18884354,14.2628571 C7.36598639,14.2628571 6.71945578,14.0669388 6.21006803,13.6555102 C5.64190476,13.1853061 5.34802721,12.4995918 5.34802721,11.637551 C5.34802721,10.4228571 5.91619048,9.50204082 7.05251701,8.83591837 L7.05251701,8.81632653 C5.91619048,8.81632653 5.34802721,8.16979592 5.34802721,6.89632653 C5.34802721,6.32816327 5.54394558,5.81877551 5.93578231,5.32897959 C6.32761905,4.83918367 6.8370068,4.46693878 7.46394558,4.23183673 L7.67945578,4.68244898 C7.05251701,5.0155102 6.73904762,5.34857143 6.73904762,5.64244898 C6.73904762,5.95591837 7.09170068,6.11265306 7.83619048,6.11265306 L14.614966,6.11265306 L14.614966,8.83591837 L7.7970068,8.83591837 C7.69904762,8.83591837 7.54231293,8.95346939 7.32680272,9.16897959 C6.87619048,9.61959184 6.66068027,10.0702041 6.66068027,10.56 C6.66068027,11.2261224 7.22884354,11.5395918 8.36517007,11.5395918 L15.6533333,11.5395918 C16.307708,11.5395918 16.8118202,11.553252 17.1428571,11.5805725 L17.1428571,11.5805725 Z M0,2.72070946 C0,1.21810312 1.21817686,0 2.72070946,0 L17.2792905,0 C18.7818969,0 20,1.21817686 20,2.72070946 L20,17.2792905 C20,18.7818969 18.7818231,20 17.2792905,20 L2.72070946,20 C1.21810312,20 0,18.7818231 0,17.2792905 L0,2.72070946 L0,2.72070946 Z" id="Rectangle-9-Copy-2" sketch:type="MSShapeGroup"></path>
            </g>
        </g>
    </g>
</svg>