<?xml version="1.0" encoding="UTF-8" standalone="no"?>
<svg width="50px" height="50px" viewBox="0 0 50 50" version="1.1" xmlns="http://www.w3.org/2000/svg" xmlns:xlink="http://www.w3.org/1999/xlink" xmlns:sketch="http://www.bohemiancoding.com/sketch/ns">
    <!-- Generator: Sketch 3.4.2 (15855) - http://www.bohemiancoding.com/sketch -->
    <title>loyalty</title>
    <desc>Created with Sketch.</desc>
    <defs></defs>
    <g id="Blank-Slate" stroke="none" stroke-width="1" fill="none" fill-rule="evenodd" sketch:type="MSPage">
        <g id="Icons" sketch:type="MSArtboardGroup" transform="translate(-467.000000, -19.000000)" fill="#FFFFFF">
            <g id="loyalty" sketch:type="MSLayerGroup" transform="translate(467.000000, 19.000000)">
                <g id="Shape-+-Rectangle-path-+-Shape" transform="translate(2.000000, 10.000000)" sketch:type="MSShapeGroup">
                    <path d="M40.9340904,30.4629521 L5.51594126,30.4629521 C2.80635608,30.4629521 0.483854496,28.2734274 0.483854496,25.5127224 L0.483854496,4.95022971 C0.483854496,2.18952468 2.70958518,0 5.51594126,0 L41.0308613,0 C43.7404464,0 46.062948,2.18952468 46.062948,4.95022971 L46.062948,25.6079191 C45.9661771,28.2734274 43.7404464,30.4629521 40.9340904,30.4629521 L40.9340904,30.4629521 Z M5.51594126,1.9039345 C3.87083597,1.9039345 2.41927248,3.23668866 2.41927248,4.95022971 L2.41927248,25.6079191 C2.41927248,27.2262634 3.77406507,28.6542143 5.51594126,28.6542143 L41.0308613,28.6542143 C42.6759666,28.6542143 44.12753,27.3214601 44.12753,25.6079191 L44.12753,4.95022971 C44.12753,3.33188538 42.7727375,1.9039345 41.0308613,1.9039345 L5.51594126,1.9039345 L5.51594126,1.9039345 Z" id="Shape"></path>
                    <rect id="Rectangle-path" x="7.74167194" y="5.71180351" width="30.9666878" height="1.9039345"></rect>
                    <path d="M40.1599232,24.7511486 L28.5474153,24.7511486 L28.5474153,16.4690335 L40.1599232,16.4690335 L40.1599232,24.7511486 L40.1599232,24.7511486 Z M30.4828333,22.8472141 L38.2245052,22.8472141 L38.2245052,18.372968 L30.4828333,18.372968 L30.4828333,22.8472141 L30.4828333,22.8472141 Z" id="Shape"></path>
                </g>
            </g>
        </g>
    </g>
</svg>