<?xml version="1.0" encoding="UTF-8" standalone="no"?>
<svg width="20px" height="20px" viewBox="0 0 20 20" version="1.1" xmlns="http://www.w3.org/2000/svg" xmlns:xlink="http://www.w3.org/1999/xlink" xmlns:sketch="http://www.bohemiancoding.com/sketch/ns">
    <!-- Generator: Sketch 3.4.4 (17249) - http://www.bohemiancoding.com/sketch -->
    <title>loyalty</title>
    <desc>Created with Sketch.</desc>
    <defs></defs>
    <g id="Blank-Slate" stroke="none" stroke-width="1" fill="none" fill-rule="evenodd" sketch:type="MSPage">
        <g id="Icons" sketch:type="MSArtboardGroup" transform="translate(-133.000000, -5.000000)" fill="#FFFFFF">
            <g id="loyalty" sketch:type="MSLayerGroup" transform="translate(133.000000, 5.000000)">
                <g id="Shape-+-Rectangle-path-+-Shape" transform="translate(0.800000, 4.000000)" sketch:type="MSShapeGroup">
                    <path d="M16.3736361,12.1851808 L2.2063765,12.1851808 C1.12254243,12.1851808 0.193541798,11.309371 0.193541798,10.2050889 L0.193541798,1.98009188 C0.193541798,0.875809872 1.08383407,0 2.2063765,0 L16.4123445,0 C17.4961786,0 18.4251792,0.875809872 18.4251792,1.98009188 L18.4251792,10.2431676 C18.3864709,11.309371 17.4961786,12.1851808 16.3736361,12.1851808 L16.3736361,12.1851808 Z M2.2063765,0.761573802 C1.54833439,0.761573802 0.967708992,1.29467546 0.967708992,1.98009188 L0.967708992,10.2431676 C0.967708992,10.8905054 1.50962603,11.4616857 2.2063765,11.4616857 L16.4123445,11.4616857 C17.0703866,11.4616857 17.651012,10.9285841 17.651012,10.2431676 L17.651012,1.98009188 C17.651012,1.33275415 17.109095,0.761573802 16.4123445,0.761573802 L2.2063765,0.761573802 L2.2063765,0.761573802 Z" id="Shape"></path>
                    <rect id="Rectangle-path" x="3.09666878" y="2.28472141" width="12.3866751" height="0.761573802"></rect>
                    <path d="M16.0639693,9.90045942 L11.4189661,9.90045942 L11.4189661,6.58761339 L16.0639693,6.58761339 L16.0639693,9.90045942 L16.0639693,9.90045942 Z M12.1931333,9.13888562 L15.2898021,9.13888562 L15.2898021,7.34918719 L12.1931333,7.34918719 L12.1931333,9.13888562 L12.1931333,9.13888562 Z" id="Shape"></path>
                </g>
            </g>
        </g>
    </g>
</svg>