<?xml version="1.0" encoding="UTF-8"?>
<svg width="100px" height="100px" viewBox="0 0 100 100" version="1.1" xmlns="http://www.w3.org/2000/svg" xmlns:xlink="http://www.w3.org/1999/xlink">
    <!-- Generator: Sketch 54.1 (76490) - https://sketchapp.com -->
    <title>ontime</title>
    <desc>Created with Sketch.</desc>
    <g id="ontime" stroke="none" stroke-width="1" fill="none" fill-rule="evenodd">
        <rect fill="#291212" opacity="0" x="0" y="0" width="100" height="100"></rect>
        <path d="M74.6379845,53.1082068 C85.3897274,53.1082068 94.1379845,61.8564639 94.1379845,72.6082068 C94.1379845,83.3599496 85.3897274,92.1082068 74.6379845,92.1082068 C63.8862414,92.1082068 55.1379845,83.3599496 55.1379845,72.6082068 C55.1379845,61.8564639 63.8862414,53.1082068 74.6379845,53.1082068 Z M74.1379845,86.1082068 C81.8581447,86.1082068 88.1379845,79.8283668 88.1379845,72.1082068 C88.1379845,64.3880468 81.8581447,58.1082068 74.1379845,58.1082068 C66.4178247,58.1082068 60.1379845,64.3880468 60.1379845,72.1082068 C60.1379845,79.8283668 66.4178247,86.1082068 74.1379845,86.1082068 Z M76.6379845,71.5082067 L79.3879843,71.5082067 C80.9070844,71.5082067 82.1379845,72.7614868 82.1379845,74.3082068 C82.1379845,75.8549267 80.9070844,77.1082068 79.3879843,77.1082068 L73.8879847,77.1082068 C72.3688846,77.1082068 71.1379845,75.8549267 71.1379845,74.3082068 L71.1379845,65.9082068 C71.1379845,64.3614868 72.3688846,63.1082068 73.8879847,63.1082068 C75.4070844,63.1082068 76.6379845,64.3614868 76.6379845,65.9082068 L76.6379845,71.5082067 Z M92.0485704,21.1875681 C88.3699312,23.4462217 84.6891219,25.7039563 81.0102875,27.9613775 C66.6986309,36.7465169 34.2843818,56.3330544 34.2843818,56.3330544 C29.9230743,57.9824424 9.7023696,57.6158206 12.1648137,56.1029919 C15.0254017,54.3490184 30.7330496,44.3424723 39.314342,38.9113844 L21.6347603,19.7654912 L24.4164101,14.5216937 L60.4423319,25.868911 C69.4303596,20.3531944 78.4173998,14.8376343 87.4036476,9.32346263 C89.8743947,7.80552969 96.4916336,7.04037629 97.7073116,10.1392362 C99.0265562,13.502081 94.5104172,19.67736 92.0485704,21.1875681 Z M4.42968539,39.19718 L22.9056463,47.6843554 L12.1133648,55.1921119 L2,43.5403636 L4.42968539,39.19718 Z" id="Shape" fill="#FFFFFF" fill-rule="nonzero"></path>
    </g>
</svg>