<?xml version="1.0" encoding="UTF-8" standalone="no"?>
<svg width="20px" height="20px" viewBox="0 0 20 20" version="1.1" xmlns="http://www.w3.org/2000/svg" xmlns:xlink="http://www.w3.org/1999/xlink" xmlns:sketch="http://www.bohemiancoding.com/sketch/ns">
    <!-- Generator: Sketch 3.4.4 (17249) - http://www.bohemiancoding.com/sketch -->
    <title>ontime</title>
    <desc>Created with Sketch.</desc>
    <defs></defs>
    <g id="Blank-Slate" stroke="none" stroke-width="1" fill="none" fill-rule="evenodd" sketch:type="MSPage">
        <g id="Icons" sketch:type="MSArtboardGroup" transform="translate(-82.000000, -30.000000)" fill="#FFFFFF">
            <g id="ontime" sketch:type="MSLayerGroup" transform="translate(82.000000, 30.000000)">
                <path d="M14.2883841,0.521217145 C11.4711368,0.521217145 9.17885704,2.82679686 9.17885704,5.66038988 C9.17885704,8.49398286 11.4711368,10.7995626 14.2883841,10.7995626 C17.1056313,10.7995626 19.3979111,8.49398286 19.3979111,5.66038988 C19.3979111,2.82679686 17.1056313,0.521217145 14.2883841,0.521217145 L14.2883841,0.521217145 L14.2883841,0.521217145 Z M14.2883841,9.33122753 C12.2758144,9.33122753 10.6387219,7.68463659 10.6387219,5.66038988 C10.6387219,3.63614315 12.2758144,1.98955221 14.2883841,1.98955221 C16.3009538,1.98955221 17.9380462,3.63614315 17.9380462,5.66038988 C17.9380462,7.68463659 16.3009538,9.33122753 14.2883841,9.33122753 L14.2883841,9.33122753 L14.2883841,9.33122753 Z M15.7482489,4.92622231 L15.0183165,4.92622231 L15.0183165,3.45788727 C15.0183165,3.05233313 14.6915987,2.72371974 14.2883841,2.72371974 C13.8851694,2.72371974 13.5584516,3.05233313 13.5584516,3.45788727 L13.5584516,5.66038988 C13.5584516,6.065944 13.8851694,6.39455741 14.2883841,6.39455741 L15.7482489,6.39455741 C16.1514636,6.39455741 16.4781814,6.065944 16.4781814,5.66038988 C16.4781814,5.25483573 16.1514636,4.92622231 15.7482489,4.92622231 L15.7482489,4.92622231 L15.7482489,4.92622231 Z" id="Shape" sketch:type="MSShapeGroup"></path>
                <path d="M17.7621856,13.9461955 L12.5470175,13.9461955 L9.66359851,11.408699 C9.56676969,11.3234822 9.44254843,11.2764954 9.31408035,11.2764954 L7.19064055,11.2764954 C7.00144204,11.2764954 6.82647063,11.377944 6.73155286,11.5423976 C6.6366351,11.7070647 6.63578573,11.9101755 6.72985408,12.0752697 L7.79284808,13.9461955 L3.06904388,13.9461955 L1.0577217,12.9346996 C0.893155114,12.8518321 0.697586306,12.8608023 0.541088793,12.9579793 C0.38459128,13.0551564 0.289461176,13.2272987 0.289461176,13.4122555 L0.289461176,15.5480156 C0.289461176,15.7502721 0.403065206,15.9352289 0.582920557,16.0255716 L2.70636036,17.0934516 C2.78004372,17.1306138 2.86137147,17.1498357 2.94376093,17.1498357 L7.84550937,17.1498357 L6.73537506,19.010937 C6.63705976,19.1758177 6.63429929,19.3812778 6.72858004,19.5487214 C6.82264843,19.716165 6.99910627,19.8195358 7.1904282,19.8195358 L9.313868,19.8195358 C9.43808922,19.8195358 9.55827592,19.7757527 9.65383071,19.6956617 L12.6914113,17.1498357 L17.8078395,17.1498357 C18.2554607,17.1498357 18.6850325,16.9586851 18.9863486,16.625293 C19.2874524,16.2921144 19.4356685,15.8427505 19.3929874,15.3923187 C19.3161188,14.5813706 18.5996702,13.9461955 17.7621856,13.9461955 L17.7621856,13.9461955 L17.7621856,13.9461955 Z M9.11468933,12.3443755 L10.9346896,13.9461955 L9.01552471,13.9461955 L8.10563075,12.3443755 L9.11468933,12.3443755 L9.11468933,12.3443755 L9.11468933,12.3443755 Z M18.2008883,15.9070369 C18.0989631,16.019805 17.9592408,16.0819556 17.8078395,16.0819556 L12.49924,16.0819556 C12.3750188,16.0819556 12.2548321,16.1257387 12.1592773,16.2058297 L9.12190902,18.7516558 L8.12835157,18.7516558 L9.23848588,16.8905544 C9.33680114,16.7256737 9.33956161,16.5202136 9.2452809,16.35277 C9.15100016,16.1853264 8.97454231,16.0819556 8.78322039,16.0819556 L3.06904388,16.0819556 L1.35118108,15.2180407 L1.35118108,14.2761705 L2.70636036,14.9576915 C2.78004372,14.9948538 2.86137147,15.0140756 2.94376093,15.0140756 L17.7621856,15.0140756 C18.0586178,15.0140756 18.3106701,15.2248751 18.3361514,15.4937673 C18.3508031,15.647542 18.302601,15.7942687 18.2008883,15.9070369 L18.2008883,15.9070369 L18.2008883,15.9070369 Z" id="Shape" sketch:type="MSShapeGroup"></path>
            </g>
        </g>
    </g>
</svg>