<?xml version="1.0" encoding="UTF-8" standalone="no"?>
<svg width="49px" height="49px" viewBox="0 0 49 49" version="1.1" xmlns="http://www.w3.org/2000/svg" xmlns:xlink="http://www.w3.org/1999/xlink" xmlns:sketch="http://www.bohemiancoding.com/sketch/ns">
    <!-- Generator: Sketch 3.4.2 (15855) - http://www.bohemiancoding.com/sketch -->
    <title>ontime</title>
    <desc>Created with Sketch.</desc>
    <defs></defs>
    <g id="Blank-Slate" stroke="none" stroke-width="1" fill="none" fill-rule="evenodd" sketch:type="MSPage">
        <g id="Icons" sketch:type="MSArtboardGroup" transform="translate(-285.000000, -101.000000)" fill="#FFFFFF">
            <g id="ontime" sketch:type="MSLayerGroup" transform="translate(285.000000, 101.000000)">
                <g id="noun_96947_cc" transform="translate(0.723653, 0.119501)" sketch:type="MSShapeGroup">
                    <g id="Shape-+-Shape" transform="translate(21.813725, 0.000000)">
                        <path d="M13.1835818,0.183541882 C6.14046369,0.183541882 0.409764157,5.94749117 0.409764157,13.0314737 C0.409764157,20.1154562 6.14046369,25.8794055 13.1835818,25.8794055 C20.2266998,25.8794055 25.9573993,20.1154562 25.9573993,13.0314737 C25.9573993,5.94749117 20.2266998,0.183541882 13.1835818,0.183541882 L13.1835818,0.183541882 L13.1835818,0.183541882 Z M13.1835818,22.2085678 C8.15215747,22.2085678 4.05942632,18.0920905 4.05942632,13.0314737 C4.05942632,7.97085688 8.15215747,3.85437954 13.1835818,3.85437954 C18.215006,3.85437954 22.3077372,7.97085688 22.3077372,13.0314737 C22.3077372,18.0920905 18.215006,22.2085678 13.1835818,22.2085678 L13.1835818,22.2085678 L13.1835818,22.2085678 Z" id="Shape"></path>
                        <path d="M16.8332439,11.1960548 L15.0084128,11.1960548 L15.0084128,7.5252172 C15.0084128,6.51133183 14.1916184,5.68979836 13.1835818,5.68979836 C12.175545,5.68979836 11.3587507,6.51133183 11.3587507,7.5252172 L11.3587507,13.0314737 C11.3587507,14.045359 12.175545,14.8668925 13.1835818,14.8668925 L16.8332439,14.8668925 C17.8412806,14.8668925 18.658075,14.045359 18.658075,13.0314737 C18.658075,12.0175883 17.8412806,11.1960548 16.8332439,11.1960548 L16.8332439,11.1960548 L16.8332439,11.1960548 Z" id="Shape"></path>
                    </g>
                    <path d="M43.6818111,33.7459878 L30.6438907,33.7459878 L23.4353433,27.4022465 C23.1932713,27.1892044 22.8827181,27.0717375 22.5615479,27.0717375 L17.2529484,27.0717375 C16.7799522,27.0717375 16.3425236,27.3253591 16.1052292,27.7364929 C15.8679348,28.1481607 15.8658114,28.6559376 16.1009823,29.0686732 L18.7584673,33.7459878 L6.94895675,33.7459878 L1.9206513,31.2172479 C1.50923484,31.0100792 1.02031282,31.0325047 0.629069041,31.2754474 C0.237825258,31.5183901 0,31.9487458 0,32.4111378 L0,37.750538 C0,38.2561792 0.284010074,38.7185713 0.733648452,38.9444279 L6.04224796,41.614128 C6.22645636,41.7070336 6.42977573,41.7550882 6.63574938,41.7550882 L18.8901205,41.7550882 L16.1147847,46.4078416 C15.8689965,46.8200432 15.8620953,47.3336935 16.0977972,47.7523025 C16.3329681,48.1709116 16.7741127,48.4293385 17.2524175,48.4293385 L22.5610171,48.4293385 C22.8715701,48.4293385 23.1720369,48.3198808 23.4109238,48.1196532 L31.0048754,41.7550882 L43.7959459,41.7550882 C44.9149987,41.7550882 45.9889284,41.2772119 46.7422186,40.4437315 C47.494978,39.6107851 47.8655183,38.4873753 47.7588155,37.3612958 C47.5666441,35.3339255 45.7755226,33.7459878 43.6818111,33.7459878 L43.6818111,33.7459878 L43.6818111,33.7459878 Z M22.0630704,29.7414377 L26.6130711,33.7459878 L21.8151588,33.7459878 L19.5404239,29.7414377 L22.0630704,29.7414377 L22.0630704,29.7414377 L22.0630704,29.7414377 Z M44.7785677,38.6480912 C44.5237549,38.9300116 44.1744491,39.0853881 43.7959459,39.0853881 L30.5244472,39.0853881 C30.2138941,39.0853881 29.9134274,39.1948458 29.6745404,39.3950733 L22.0811196,45.7596384 L19.597226,45.7596384 L22.3725618,41.106885 C22.6183499,40.6946833 22.6252511,40.181033 22.3895493,39.762424 C22.1538475,39.3438151 21.7127028,39.0853881 21.234398,39.0853881 L6.94895675,39.0853881 L2.65429975,36.9256007 L2.65429975,34.5709252 L6.04224796,36.2747278 C6.22645636,36.3676334 6.42977573,36.4156879 6.63574938,36.4156879 L43.6818111,36.4156879 C44.4228916,36.4156879 45.0530223,36.9426868 45.1167255,37.6149173 C45.1533548,37.9993541 45.0328496,38.3661709 44.7785677,38.6480912 L44.7785677,38.6480912 L44.7785677,38.6480912 Z" id="Shape"></path>
                </g>
            </g>
        </g>
    </g>
</svg>