<?xml version="1.0" encoding="UTF-8"?>
<svg width="100px" height="100px" viewBox="0 0 100 100" version="1.1" xmlns="http://www.w3.org/2000/svg" xmlns:xlink="http://www.w3.org/1999/xlink">
    <!-- Generator: Sketch 54.1 (76490) - https://sketchapp.com -->
    <title>policy</title>
    <desc>Created with Sketch.</desc>
    <g id="policy" stroke="none" stroke-width="1" fill="none" fill-rule="evenodd">
        <path d="M75,39.7714805 C71.2045759,37.9934337 66.9683024,37 62.5,37 C46.2075999,37 33,50.2075999 33,66.5 C33,76.0904854 37.5765156,84.6120683 44.664798,90 L14,90 L14,79 L18,79 C21.3137085,79 24,76.3137085 24,73 C24,69.6862915 21.3137085,67 18,67 L14,67 L14,53 L18,53 C21.3137085,53 24,50.3137085 24,47 C24,43.6862915 21.3137085,41 18,41 L14,41 L14,27 L18,27 C21.3137085,27 24,24.3137085 24,21 C24,17.6862915 21.3137085,15 18,15 L14,15 L14,5 L75,5 L75,39.7714805 L75,39.7714805 Z M14,16 L18.1666667,16 C20.9280904,16 23.1666667,18.2385763 23.1666667,21 C23.1666667,23.7614237 20.9280904,26 18.1666667,26 L14,26 C11.2385763,26 9,23.7614237 9,21 C9,18.2385763 11.2385763,16 14,16 Z M14,42 L18.1666667,42 C20.9280904,42 23.1666667,44.2385763 23.1666667,47 C23.1666667,49.7614237 20.9280904,52 18.1666667,52 L14,52 C11.2385763,52 9,49.7614237 9,47 C9,44.2385763 11.2385763,42 14,42 Z M14,68 L18.1666667,68 C20.9280904,68 23.1666667,70.2385763 23.1666667,73 C23.1666667,75.7614237 20.9280904,78 18.1666667,78 L14,78 C11.2385763,78 9,75.7614237 9,73 C9,70.2385763 11.2385763,68 14,68 Z M63,94.5 C47.8121694,94.5 35.5,82.1878306 35.5,67 C35.5,51.8121694 47.8121694,39.5 63,39.5 C78.1878306,39.5 90.5,51.8121694 90.5,67 C90.5,82.1878306 78.1878306,94.5 63,94.5 Z M63,89.5 C75.4264069,89.5 85.5,79.4264069 85.5,67 C85.5,54.5735931 75.4264069,44.5 63,44.5 C50.5735931,44.5 40.5,54.5735931 40.5,67 C40.5,79.4264069 50.5735931,89.5 63,89.5 Z M75.8499639,57.8569368 C75.937485,57.9694638 76,58.1007454 76,58.2570329 C76,58.394566 75.949988,58.5133446 75.8749699,58.6196201 L60.3024766,78.6244289 C60.183698,78.7432075 59.9773984,79.0120221 59.7273383,79.0120221 C59.4710267,79.0120221 59.2959846,78.8307285 59.1522,78.686944 C59.0084155,78.5431594 50.3000721,70.1786487 50.3000721,70.1786487 L50.1250301,70.0161096 C50.050012,69.9098341 50,69.797307 50,69.659774 C50,69.5284924 50.050012,69.4097139 50.1250301,69.3034383 C50.1687906,69.2596778 50.2000481,69.2284203 50.2500601,69.1721568 C51.1127675,68.2594374 52.8631883,66.4214956 52.9694638,66.3089685 C53.1132484,66.1651839 53.2382784,65.9713874 53.5133446,65.9713874 C53.7884107,65.9713874 53.9697043,66.202693 54.1072373,66.340226 C54.2447704,66.4777591 59.1522,71.1976437 59.1522,71.1976437 L71.6364511,55.1562876 C71.7427266,55.062515 71.8802597,55 72.0302957,55 C72.1803318,55 72.3116134,55.062515 72.4178889,55.1500361 L75.8499639,57.8569368 Z" id="Shape" fill="#FFFFFF"></path>
    </g>
</svg>