<?xml version="1.0" encoding="UTF-8" standalone="no"?>
<svg width="50px" height="50px" viewBox="0 0 50 50" version="1.1" xmlns="http://www.w3.org/2000/svg" xmlns:xlink="http://www.w3.org/1999/xlink" xmlns:sketch="http://www.bohemiancoding.com/sketch/ns">
    <!-- Generator: Sketch 3.4.2 (15855) - http://www.bohemiancoding.com/sketch -->
    <title>proximity</title>
    <desc>Created with Sketch.</desc>
    <defs></defs>
    <g id="Blank-Slate" stroke="none" stroke-width="1" fill="none" fill-rule="evenodd" sketch:type="MSPage">
        <g id="Icons" sketch:type="MSArtboardGroup" transform="translate(-641.000000, -25.000000)" fill="#FFFFFF">
            <g id="proximity" sketch:type="MSLayerGroup" transform="translate(641.000000, 25.000000)">
                <g id="Group" transform="translate(10.000000, 0.000000)" sketch:type="MSShapeGroup">
                    <path d="M29.5740251,46.9315 L29.5740251,46.9315 L29.5740251,46.9305 C29.5239811,46.667 25.3182801,34.971 25.3182801,34.971 L18.9646889,28.507 L18.9646889,15.386 C18.9646889,12.4055 13.553427,10.459 12.9203699,10.896 C12.5050044,11.1825 2.98762911,17.0845 2.98762911,17.0845 L1.97824085,27.1255 C1.96572984,27.218 1.95722236,27.3105 1.95722236,27.406 C1.95722236,28.539 2.87653135,29.4575 4.01052927,29.4575 C5.14452718,29.4575 6.06383618,28.539 6.06383618,27.406 L6.91308351,19.7595 L11.6422452,17.008 L11.6422452,28.469 L20.3203819,36.8295 L24.7492794,48.293 C25.1110978,49.2395 26.0259028,49.9125 27.0998479,49.9125 C28.4905717,49.9125 29.6185643,48.7855 29.6185643,47.397 C29.6190648,47.2375 29.6190648,47.167 29.5740251,46.9315 L29.5740251,46.9315 Z" id="Shape"></path>
                    <path d="M1.00938826,45.302 C0.634558411,45.7415 0.407358475,46.31 0.407358475,46.932 C0.407358475,48.321 1.53535111,49.448 2.92557451,49.448 C3.81435663,49.448 4.59354232,48.987 5.0419369,48.292 L12.7442149,38.337 L15.1132997,33.104 L11.2183722,29.457 L8.33933862,35.3265 L1.00938826,45.302 L1.00938826,45.302 Z" id="Shape"></path>
                    <path d="M20.0881776,20.5725 C20.0881776,20.5725 20.0111098,26.224 20.0881776,26.1075 C20.155737,26.006 22.9361838,28.3115 23.6518136,28.9075 C23.7043598,28.957 23.7594083,29.0025 23.8169589,29.046 C23.8179598,29.046 23.8189607,29.047 23.8189607,29.047 L23.8189607,29.047 C24.1612619,29.304 24.5861358,29.457 25.0475418,29.457 C26.1805389,29.457 27.1003483,28.5385 27.1003483,27.4055 C27.1003483,26.642 26.6849828,26.171 26.0614341,25.624 L20.0881776,20.5725 L20.0881776,20.5725 Z" id="Shape"></path>
                    <path d="M15.4397485,9.84817927 C17.923107,9.84817927 19.9386138,7.80128064 19.9386138,5.28917778 C19.9386138,2.77556207 17.9234852,0.738118812 15.4397485,0.738118812 C12.9510949,0.738118812 10.9386138,2.77556207 10.9386138,5.28917778 C10.9382356,7.80128064 12.773334,9.84817927 15.4397485,9.84817927 L15.4397485,9.84817927 Z" id="Shape"></path>
                </g>
            </g>
        </g>
    </g>
</svg>