<?xml version="1.0" encoding="UTF-8" standalone="no"?>
<svg width="20px" height="20px" viewBox="0 0 20 20" version="1.1" xmlns="http://www.w3.org/2000/svg" xmlns:xlink="http://www.w3.org/1999/xlink" xmlns:sketch="http://www.bohemiancoding.com/sketch/ns">
    <!-- Generator: Sketch 3.4.4 (17249) - http://www.bohemiancoding.com/sketch -->
    <title>proximity</title>
    <desc>Created with Sketch.</desc>
    <defs></defs>
    <g id="Blank-Slate" stroke="none" stroke-width="1" fill="none" fill-rule="evenodd" sketch:type="MSPage">
        <g id="Icons" sketch:type="MSArtboardGroup" transform="translate(-183.000000, -5.000000)" fill="#FFFFFF">
            <g id="proximity" sketch:type="MSLayerGroup" transform="translate(183.000000, 5.000000)">
                <g id="Group" transform="translate(4.000000, 0.000000)" sketch:type="MSShapeGroup">
                    <path d="M11.8296101,18.7726 L11.8296101,18.7726 L11.8296101,18.7722 C11.8095924,18.6668 10.127312,13.9884 10.127312,13.9884 L7.58587557,11.4028 L7.58587557,6.1544 C7.58587557,4.9622 5.42137081,4.1836 5.16814797,4.3584 C5.00200176,4.473 1.19505165,6.8338 1.19505165,6.8338 L0.791296341,10.8502 C0.786291937,10.8872 0.782888942,10.9242 0.782888942,10.9624 C0.782888942,11.4156 1.15061254,11.783 1.60421171,11.783 C2.05781087,11.783 2.42553447,11.4156 2.42553447,10.9624 L2.76523341,7.9038 L4.65689807,6.8032 L4.65689807,11.3876 L8.12815277,14.7318 L9.89971175,19.3172 C10.0444391,19.6958 10.4103611,19.965 10.8399391,19.965 C11.3962287,19.965 11.8474257,19.5142 11.8474257,18.9588 C11.8476259,18.895 11.8476259,18.8668 11.8296101,18.7726 L11.8296101,18.7726 Z" id="Shape"></path>
                    <path d="M0.403755305,18.1208 C0.253823365,18.2966 0.16294339,18.524 0.16294339,18.7728 C0.16294339,19.3284 0.614140444,19.7792 1.1702298,19.7792 C1.52574265,19.7792 1.83741693,19.5948 2.01677476,19.3168 L5.09768596,15.3348 L6.04531988,13.2416 L4.48734887,11.7828 L3.33573545,14.1306 L0.403755305,18.1208 L0.403755305,18.1208 Z" id="Shape"></path>
                    <path d="M8.03527104,8.229 C8.03527104,8.229 8.00444391,10.4896 8.03527104,10.443 C8.06229482,10.4024 9.17447354,11.3246 9.46072544,11.563 C9.48174393,11.5828 9.50376331,11.601 9.52678357,11.6184 C9.52718392,11.6184 9.52758427,11.6188 9.52758427,11.6188 L9.52758427,11.6188 C9.66450476,11.7216 9.83445432,11.7828 10.0190167,11.7828 C10.4722155,11.7828 10.8401393,11.4154 10.8401393,10.9622 C10.8401393,10.6568 10.6739931,10.4684 10.4245736,10.2496 L8.03527104,8.229 L8.03527104,8.229 Z" id="Shape"></path>
                    <path d="M6.17589938,3.93927171 C7.1692428,3.93927171 7.97544551,3.12051226 7.97544551,2.11567111 C7.97544551,1.11022483 7.16939408,0.295247525 6.17589938,0.295247525 C5.18043797,0.295247525 4.37544554,1.11022483 4.37544554,2.11567111 C4.37529425,3.12051226 5.10933358,3.93927171 6.17589938,3.93927171 L6.17589938,3.93927171 Z" id="Shape"></path>
                </g>
            </g>
        </g>
    </g>
</svg>