<?xml version="1.0" encoding="UTF-8" standalone="no"?>
<svg width="20px" height="20px" viewBox="0 0 20 20" version="1.1" xmlns="http://www.w3.org/2000/svg" xmlns:xlink="http://www.w3.org/1999/xlink" xmlns:sketch="http://www.bohemiancoding.com/sketch/ns">
    <!-- Generator: Sketch 3.5.2 (25235) - http://www.bohemiancoding.com/sketch -->
    <title>quiet</title>
    <desc>Created with Sketch.</desc>
    <defs></defs>
    <g id="Blank-Slate" stroke="none" stroke-width="1" fill="none" fill-rule="evenodd" sketch:type="MSPage">
        <g id="Icons" sketch:type="MSArtboardGroup" transform="translate(-5.000000, -55.000000)" fill="#FFFFFF">
            <g id="quiet" sketch:type="MSLayerGroup" transform="translate(5.000000, 55.000000)">
                <g id="Group" transform="translate(0.000000, 1.000000)" sketch:type="MSShapeGroup">
                    <path d="M19.3301099,14.4406593 C19.1008791,16.0975824 18.0804396,17.4063736 16.7854945,17.9283516 L17.8371429,10.2549451 C18.9415385,11.1259341 19.5716484,12.6734066 19.3452747,14.3303297 C19.3446154,14.3367033 19.343956,14.3448352 19.3421978,14.3514286 L19.3421978,14.3514286 L19.3421978,14.3514286 C19.3373626,14.363956 19.3349451,14.3734066 19.3342857,14.3865934 C19.3318681,14.4024176 19.3312088,14.4235165 19.3301099,14.4406593 L19.3301099,14.4406593 Z" id="Shape"></path>
                    <path d="M15.9683516,9.25362637 C15.3914286,9.17120879 14.9035165,9.28 14.829011,9.81802198 L13.7786813,17.4896703 C13.7026374,18.0261538 14.143956,18.2714286 14.7193407,18.3551648 C15.2918681,18.4397802 15.8927473,18.3312088 15.9463736,17.9358242 L17.032967,10.0085714 C17.0872527,9.61450549 16.5402198,9.33824176 15.9683516,9.25362637 L15.9683516,9.25362637 Z" id="Shape"></path>
                    <path d="M0.88989011,14.4406593 C1.11912088,16.0975824 2.13956044,17.4063736 3.43472527,17.9283516 L2.38285714,10.2549451 C1.27846154,11.1259341 0.648571429,12.6734066 0.874725275,14.3303297 C0.875384615,14.3367033 0.876043956,14.3448352 0.877802198,14.3514286 L0.877802198,14.3514286 L0.877802198,14.3514286 C0.882637363,14.363956 0.885054945,14.3734066 0.885714286,14.3865934 C0.888131868,14.4024176 0.888791209,14.4235165 0.88989011,14.4406593 L0.88989011,14.4406593 Z" id="Shape"></path>
                    <path d="M4.25186813,9.25362637 C4.82879121,9.17120879 5.31648352,9.28 5.39098901,9.81802198 L6.44131868,17.4896703 C6.51714286,18.0261538 6.07604396,18.2714286 5.50065934,18.3551648 C4.92813187,18.4397802 4.32725275,18.3312088 4.27362637,17.9358242 L3.18725275,10.0087912 C3.13274725,9.61450549 3.67978022,9.33824176 4.25186813,9.25362637 L4.25186813,9.25362637 Z" id="Shape"></path>
                    <path d="M11.2074725,0.119340659 C11.2074725,0.119340659 11.2074725,0.119340659 11.2061538,0.118901099 C10.8369231,0.0784615385 10.4725275,0.0617582418 10.1092308,0.0615384615 L10.1092308,0.0615384615 L10.1092308,0.0615384615 L10.1092308,0.0615384615 L10.1092308,0.0615384615 C9.74615385,0.0617582418 9.38131868,0.0784615385 9.01164835,0.118901099 L9.01098901,0.119340659 C3.58835165,0.717362637 -0.327472527,5.53032967 0.282197802,10.8481319 C0.302197802,11.0210989 0.332527473,11.1903297 0.362417582,11.3589011 C0.637362637,10.6608791 1.05318681,10.0441758 1.60065934,9.58021978 L1.9756044,9.26351648 C2.21736264,5.45604396 5.20747253,2.24043956 9.20351648,1.79934066 L9.20417582,1.79934066 L9.20483516,1.79934066 C9.50879121,1.76571429 9.80989011,1.75384615 10.1092308,1.75362637 C10.4085714,1.75384615 10.7103297,1.76571429 11.0136264,1.79934066 L11.0151648,1.79934066 C15.0120879,2.24043956 18.0013187,5.45604396 18.2437363,9.26351648 L18.6169231,9.58021978 C19.1654945,10.0441758 19.5817582,10.6608791 19.8564835,11.3589011 C19.8863736,11.1901099 19.916044,11.0210989 19.9375824,10.8481319 C20.5461538,5.53032967 16.630989,0.717362637 11.2074725,0.119340659 L11.2074725,0.119340659 Z" id="Shape"></path>
                </g>
            </g>
        </g>
    </g>
</svg>