<?xml version="1.0" encoding="UTF-8"?>
<svg width="100px" height="100px" viewBox="0 0 100 100" version="1.1" xmlns="http://www.w3.org/2000/svg" xmlns:xlink="http://www.w3.org/1999/xlink">
    <!-- Generator: Sketch 54.1 (76490) - https://sketchapp.com -->
    <title>refundable</title>
    <desc>Created with Sketch.</desc>
    <g id="refundable" stroke="none" stroke-width="1" fill="none" fill-rule="evenodd">
        <rect fill="#FFFFFF" opacity="0" x="0" y="0" width="100" height="100"></rect>
        <path d="M9.375,49.625 L0,49.625 L12.5,37.125 L25,49.625 L14.0625,49.625 C14.0625,69.4410156 30.1839844,85.5625 50,85.5625 C62.9646484,85.5625 74.9730469,78.5365234 81.3396484,67.2263672 L81.7228516,66.5458984 L85.8078125,68.8449219 L85.4244141,69.5255859 C78.2287109,82.3089844 64.6548828,90.25 50,90.25 C27.5994141,90.25 9.375,72.0255859 9.375,49.625 L9.375,49.625 Z M90.625,49.625 L100,49.625 L87.5,62.125 L75,49.625 L85.9375,49.625 C85.9375,29.8089844 69.8160156,13.6875 50,13.6875 C37.0353516,13.6875 25.0269531,20.7134766 18.6603516,32.0230469 L18.2771484,32.7037109 L14.1921875,30.4046875 L14.5755859,29.7240234 C21.7712891,16.9410156 35.3451172,9 50,9 C72.4005859,9 90.625,27.2244141 90.625,49.625 L90.625,49.625 Z M67.199442,55.2741071 C67.5466518,56.3438616 67.7142857,57.4137277 67.7141741,58.4827009 C67.7141741,60.774442 67.2046875,62.7324777 66.2024554,64.3553571 C65.1991071,65.9795759 63.8643973,67.3063616 62.2280134,68.3376116 C60.590625,69.3688616 58.6995536,70.1236607 56.6123884,70.600558 C55.544308,70.8448661 54.5446429,71.0257812 53.4285714,71.1450893 L53.4285714,75 L46.2857143,75 L46.2857143,71.0551339 C45.28125,70.9133929 44.1606027,70.7285714 43.1689732,70.4714286 C40.9585938,69.8983259 39.0912946,69.0341518 37.4549107,67.8496652 C35.8175223,66.6664062 34.5079241,65.1757812 33.5258929,63.3226563 C32.5859375,61.5506696 32.077567,59.4866071 32,57.1428571 L39.6691964,57.1428571 C39.7064732,58.4821429 39.9625,59.7429688 40.4958705,60.7729911 C41.0686384,61.8813616 41.8382813,62.7324777 42.8617188,63.4386161 C43.8426339,64.1171875 45.0579241,64.6171875 46.2856027,64.9429688 L46.2856027,51.596317 C45.3927455,51.3684152 44.3276786,51.1241071 43.291183,50.8623884 C41.4082589,50.4040179 39.8991071,49.8022321 38.6510045,49.0575893 C37.4018973,48.3127232 36.4094866,47.4819196 35.6725446,46.5651786 C34.9359375,45.6484375 34.4125,44.6745536 34.1053571,43.643192 C33.7984375,42.6117187 33.6414063,41.5617187 33.6414063,40.4919643 C33.6414063,38.4294643 34.0946429,36.6440848 35.0155134,35.1348214 C35.9364955,33.6264509 37.1397321,32.3756696 38.6543527,31.381808 C40.1680804,30.3889509 41.8584821,29.6540179 43.7828125,29.1760045 C44.5950893,28.9745536 45.5044643,28.818192 46.2857143,28.7016741 L46.2857143,25 L53.4285714,25 L53.4285714,28.7261161 C54.4330357,28.8621652 55.2106027,29.0642857 56.0905134,29.3045759 C58.1164063,29.8587054 59.9551339,30.7033482 61.4897321,31.8107143 C63.0246652,32.9191964 64.2419643,34.3121652 65.1426339,35.9352679 C65.9625,37.4151786 66.4084821,39.0625 66.4814732,41.0714286 L58.7611607,41.0714286 C58.4684152,38.7276786 57.4691964,37.0016741 55.875558,35.9927455 C55.130692,35.5208705 54.4329241,35.0960937 53.4284598,34.828683 L53.4284598,46.628125 C54.4329241,46.8699777 55.3239955,47.1072545 56.274442,47.3387277 C57.6042411,47.6637277 58.6138393,47.9029018 59.1878348,48.0550223 C60.6199777,48.4757812 61.8679688,49.0485491 62.9325893,49.7737723 C63.9966518,50.4997768 64.8866071,51.3305804 65.6033482,52.2660714 C66.31875,53.202567 66.8513393,54.2052455 67.199442,55.2741071 Z M46.2857143,44.8324777 L46.2857143,34.624442 C45.5044643,34.8 44.6495536,35.0651786 43.9598214,35.4210937 C43.1821429,35.8220982 42.5870536,36.3664062 42.0758929,37.0540179 C41.5636161,37.7417411 41.2941964,38.6010045 41.2941964,39.6323661 C41.2941964,41.0844866 41.7464286,42.2205357 42.7085938,43.0414063 C43.6169643,43.818192 44.9464286,44.4147321 46.2857143,44.8324777 Z M59.5560268,61.5481027 C59.8832589,60.8032366 60.0325893,60.0493304 60.0324777,59.2848214 C60.0324777,57.7189732 59.6391741,56.5633929 58.8819196,55.8183036 C58.1242188,55.0735491 57.2664063,54.5491071 56.3666295,54.2428571 C55.4574777,53.9304688 54.5445313,53.6282366 53.4284598,53.3353795 L53.4284598,65.2896205 C54.0981027,65.2012277 54.5136161,65.0822545 55.0158482,64.9284598 C56.202567,64.5658482 57.2228795,64.0976562 57.9597098,63.5247768 C58.6967634,62.9516741 59.2280134,62.2928571 59.5560268,61.5481027 Z" id="Shape" fill="#FFFFFF"></path>
    </g>
</svg>