<?xml version="1.0" encoding="UTF-8" standalone="no"?>
<svg width="40px" height="51px" viewBox="0 0 40 51" version="1.1" xmlns="http://www.w3.org/2000/svg" xmlns:xlink="http://www.w3.org/1999/xlink" xmlns:sketch="http://www.bohemiancoding.com/sketch/ns">
    <!-- Generator: Sketch 3.4.2 (15855) - http://www.bohemiancoding.com/sketch -->
    <title>seating</title>
    <desc>Created with Sketch.</desc>
    <defs></defs>
    <g id="Blank-Slate" stroke="none" stroke-width="1" fill="none" fill-rule="evenodd" sketch:type="MSPage">
        <g id="Icons" sketch:type="MSArtboardGroup" transform="translate(-23.000000, -16.000000)" fill="#FFFFFF">
            <g id="seating" sketch:type="MSLayerGroup" transform="translate(23.000000, 16.000000)">
                <path d="M30.3956791,24.5150794 L22.475802,24.5150794 C22.1946587,24.5150794 21.6947693,24.1277931 21.6263448,23.8570447 L19.6448687,16.0275236 C19.2275853,14.3773317 17.5417884,13.3767247 15.8804542,13.790769 C14.2187655,14.2055174 13.2108327,15.8792986 13.6281162,17.5291383 L15.6095922,25.3583073 C16.3764437,28.3897031 19.3279176,30.6757486 22.475802,30.6757486 L28.8449588,30.6757486 L28.8449588,38.0345409 C28.8449588,39.3101212 29.8862175,40.3448798 31.1713939,40.3448798 C32.4562158,40.3448798 33.497829,39.3104733 33.497829,38.0345409 L33.497829,27.595414 C33.4974745,25.8945229 32.1087749,24.5150794 30.3956791,24.5150794 L30.3956791,24.5150794 L30.3956791,24.5150794 Z" id="Shape" stroke="#FFFFFF" sketch:type="MSShapeGroup"></path>
                <path d="M36.6632036,17.6617665 L29.6233127,17.6617665 C29.3734075,17.6617665 28.9290614,17.317512 28.8682396,17.0768468 L27.1069276,10.1172724 C26.7360089,8.65043526 25.2375228,7.76100678 23.7607813,8.12904615 C22.2837247,8.49771143 21.3877844,9.98551685 21.7587031,11.4520411 L23.5200151,18.4113025 C24.2016608,21.1058764 26.8251933,23.1379169 29.6233127,23.1379169 L35.2847854,23.1379169 L35.2847854,29.6790656 C35.2847854,30.8129147 36.2103488,31.7327002 37.3527277,31.7327002 C38.4947915,31.7327002 39.42067,30.8132277 39.42067,29.6790656 L39.42067,20.3998417 C39.4203549,18.8879385 38.1859553,17.6617665 36.6632036,17.6617665 L36.6632036,17.6617665 L36.6632036,17.6617665 Z" id="Shape" stroke="#FFFFFF" sketch:type="MSShapeGroup"></path>
                <path d="M23.0566816,31.9709558 L14.2568181,31.9709558 C13.9444365,31.9709558 13.389004,31.5406376 13.3129767,31.2398062 L11.1113366,22.5403382 C10.6476884,20.7067916 8.77458074,19.5950061 6.92865387,20.0550553 C5.08233308,20.5158869 3.96240774,22.3756437 4.42605604,24.2087989 L6.6276961,32.9078757 C7.47975325,36.2760931 10.7591687,38.8161437 14.2568181,38.8161437 L21.3336589,38.8161437 L21.3336589,46.9925795 C21.3336589,48.4098911 22.4906131,49.5596229 23.9185868,49.5596229 C25.3461666,49.5596229 26.5035147,48.4102822 26.5035147,46.9925795 L26.5035147,35.3935497 C26.5031209,33.5036707 24.9601213,31.9709558 23.0566816,31.9709558 L23.0566816,31.9709558 L23.0566816,31.9709558 Z" id="Shape" stroke="#FFFFFF" sketch:type="MSShapeGroup"></path>
                <path d="M17.7591945,40.5276363 L13.4941816,40.5276363 C9.62663789,40.5276363 5.54558745,37.3119863 4.58204987,33.5064091 L2.56003906,25.5154013 C2.38592474,24.8272835 1.68198293,24.4075277 0.991828462,24.5835669 C0.299704362,24.7556941 -0.12061232,25.4535919 0.0535019942,26.1409274 L2.07590672,34.1323264 C3.32543298,39.0739435 8.44841185,43.0946796 13.4941816,43.0946796 L17.7591945,43.0946796 C18.4729844,43.0946796 19.0516585,42.5200093 19.0516585,41.8115491 C19.0516585,41.1023066 18.4729844,40.5276363 17.7591945,40.5276363 L17.7591945,40.5276363 L17.7591945,40.5276363 Z" id="Shape" sketch:type="MSShapeGroup"></path>
                <path d="M5.48911024,18 C7.96734689,18 9.99954775,15.9902647 9.99954775,13.5120281 C10.0210773,11.0323873 8.01181006,9.00018649 5.51063977,9.00018649 C3.03240312,8.97772089 1.00020227,10.9879242 1.00020227,13.4661608 C0.976800597,15.9682672 2.98700389,17.9780024 5.48911024,18 L5.48911024,18 Z" id="Shape" sketch:type="MSShapeGroup"></path>
                <path d="M14.9903514,12 C17.1932284,12 18.9996292,10.2135687 18.9996292,8.01069164 C19.0187666,5.80656653 17.2327513,4.00016577 15.0094888,4.00016577 C12.8066118,3.98019634 11.000211,5.76704371 11.000211,7.96992073 C10.9794095,10.1940153 12.7662569,11.9804466 14.9903514,12 L14.9903514,12 Z" id="Shape" sketch:type="MSShapeGroup"></path>
                <path d="M23.4915302,7 C25.4190476,7 26.9996482,5.43687258 26.9996482,3.50935518 C27.0163934,1.58074571 25.45363,0.00014504527 23.5082754,0.00014504527 C21.580758,-0.0173282002 20.0001573,1.54616325 20.0001573,3.47368064 C19.981956,5.41976336 21.5454475,6.98289078 23.4915302,7 L23.4915302,7 Z" id="Shape" sketch:type="MSShapeGroup"></path>
            </g>
        </g>
    </g>
</svg>