<?xml version="1.0" encoding="UTF-8" standalone="no"?>
<svg width="20px" height="20px" viewBox="0 0 20 20" version="1.1" xmlns="http://www.w3.org/2000/svg" xmlns:xlink="http://www.w3.org/1999/xlink" xmlns:sketch="http://www.bohemiancoding.com/sketch/ns">
    <!-- Generator: Sketch 3.4.4 (17249) - http://www.bohemiancoding.com/sketch -->
    <title>seat</title>
    <desc>Created with Sketch.</desc>
    <defs></defs>
    <g id="Blank-Slate" stroke="none" stroke-width="1" fill="none" fill-rule="evenodd" sketch:type="MSPage">
        <g id="Icons" sketch:type="MSArtboardGroup" transform="translate(-108.000000, -30.000000)" fill="#FFFFFF">
            <g id="seat" sketch:type="MSLayerGroup" transform="translate(108.000000, 30.000000)">
                <path d="M17.2188853,11.7848062 L17.2084597,11.7820402 C17.2084597,11.7820402 17.1210119,11.7588485 16.993351,11.7531038 C16.9454782,11.7475718 16.9056905,11.7345929 16.8520729,11.7345929 L11.9264886,11.7345929 C11.9264886,11.7345929 11.8703178,11.735444 11.7886148,11.7482101 C11.7401036,11.746508 11.6901031,11.7469335 11.6364855,11.7518272 L7.52027148,12.111831 L6.79962552,10.1315972 L13.1807572,10.1315972 C13.1807572,10.1315972 14.1386398,10.1315972 14.1386398,9.1737146 L14.1386398,9.16265068 C14.1386398,9.16265068 14.1386398,8.20455536 13.1807572,8.20455536 L6.09834148,8.20455536 L4.87811572,4.85217928 C4.87811572,4.85217928 4.87598804,4.84664732 4.87364759,4.84111532 L4.87364759,1.43703656 C4.87364759,1.43703656 4.87364759,0 3.4368238,0 C3.4368238,0 2,0 2,1.43703656 L2,5.02367048 C2,5.02367048 2.00170215,5.26473684 2.0997883,5.54878244 C2.11723529,5.64027276 2.14085256,5.73474184 2.17766146,5.835594 L5.51344163,15.0007979 C5.51344163,15.0007979 5.59769785,15.2269705 5.78769987,15.4608028 C5.99004245,15.7578272 6.33898232,16.0159151 6.94749944,16.0159151 L10.0039149,16.0159151 L10.0039149,18.4778562 L6.07004328,18.4778562 C6.07004328,18.4778562 5.35152502,18.4778562 5.35152502,19.1963744 L5.35152502,19.2816945 C5.35152502,19.2816945 5.35152502,20 6.07004328,20 L15.8346153,20 C15.8346153,20 16.5529208,20 16.5529208,19.2816945 L16.5529208,19.1963744 C16.5529208,19.1963744 16.5529208,18.4778562 15.8346153,18.4778562 L11.9007436,18.4778562 L11.9007436,16.0159151 L15.770572,16.0159151 C15.770572,16.0159151 15.7780189,16.0157023 15.7901467,16.0152768 L16.3041947,16.0152768 C16.5924957,16.0291067 17.0935648,15.954425 17.2661198,15.3097373 L17.8965521,12.9577974 C17.8965521,12.9577974 18.1442143,12.0326812 17.2188853,11.7848062" id="Shape" sketch:type="MSShapeGroup"></path>
            </g>
        </g>
    </g>
</svg>