<?xml version="1.0" encoding="UTF-8" standalone="no"?>
<svg width="50px" height="50px" viewBox="0 0 50 50" version="1.1" xmlns="http://www.w3.org/2000/svg" xmlns:xlink="http://www.w3.org/1999/xlink" xmlns:sketch="http://www.bohemiancoding.com/sketch/ns">
    <!-- Generator: Sketch 3.4.2 (15855) - http://www.bohemiancoding.com/sketch -->
    <title>seat</title>
    <desc>Created with Sketch.</desc>
    <defs></defs>
    <g id="Blank-Slate" stroke="none" stroke-width="1" fill="none" fill-rule="evenodd" sketch:type="MSPage">
        <g id="Icons" sketch:type="MSArtboardGroup" transform="translate(-371.000000, -101.000000)" fill="#FFFFFF">
            <g id="seat" sketch:type="MSLayerGroup" transform="translate(371.000000, 101.000000)">
                <path d="M43.0472133,29.4620156 L43.0211492,29.4551006 C43.0211492,29.4551006 42.8025298,29.3971212 42.4833775,29.3827594 C42.3636954,29.3689295 42.2642262,29.3364823 42.1301822,29.3364823 L29.8162214,29.3364823 C29.8162214,29.3364823 29.6757944,29.33861 29.4715369,29.3705252 C29.350259,29.3662699 29.2252577,29.3673337 29.0912137,29.3795679 L18.8006787,30.2795774 L16.9990638,25.3289929 L32.9518931,25.3289929 C32.9518931,25.3289929 35.3465994,25.3289929 35.3465994,22.9342865 L35.3465994,22.9066267 C35.3465994,22.9066267 35.3465994,20.5113884 32.9518931,20.5113884 L15.2458537,20.5113884 L12.1952893,12.1304482 C12.1952893,12.1304482 12.1899701,12.1166183 12.184119,12.1027883 L12.184119,3.59259141 C12.184119,3.59259141 12.184119,0 8.59205949,0 C8.59205949,0 5,0 5,3.59259141 L5,12.5591762 C5,12.5591762 5.00425536,13.1618421 5.24947074,13.8719561 C5.29308822,14.1006819 5.35213141,14.3368546 5.44415366,14.588985 L13.7836041,37.5019947 C13.7836041,37.5019947 13.9942446,38.0674262 14.4692497,38.6520069 C14.9751061,39.394568 15.8474558,40.0397877 17.3687486,40.0397877 L25.0097873,40.0397877 L25.0097873,46.1946404 L15.1751082,46.1946404 C15.1751082,46.1946404 13.3788125,46.1946404 13.3788125,47.9909361 L13.3788125,48.2042362 C13.3788125,48.2042362 13.3788125,50 15.1751082,50 L39.5865382,50 C39.5865382,50 41.3823019,50 41.3823019,48.2042362 L41.3823019,47.9909361 C41.3823019,47.9909361 41.3823019,46.1946404 39.5865382,46.1946404 L29.7518591,46.1946404 L29.7518591,40.0397877 L39.4264301,40.0397877 C39.4264301,40.0397877 39.4450473,40.0392557 39.4753668,40.0381919 L40.7604868,40.0381919 C41.4812392,40.0727667 42.7339121,39.8860626 43.1652996,38.2743433 L44.7413802,32.3944936 C44.7413802,32.3944936 45.3605358,30.081703 43.0472133,29.4620156" id="Shape" sketch:type="MSShapeGroup"></path>
            </g>
        </g>
    </g>
</svg>