<?xml version="1.0" encoding="UTF-8" standalone="no"?>
<svg width="40px" height="50px" viewBox="0 0 40 50" version="1.1" xmlns="http://www.w3.org/2000/svg" xmlns:xlink="http://www.w3.org/1999/xlink" xmlns:sketch="http://www.bohemiancoding.com/sketch/ns">
    <!-- Generator: Sketch 3.4.2 (15855) - http://www.bohemiancoding.com/sketch -->
    <title>noun_91605_cc (1)</title>
    <desc>Created with Sketch.</desc>
    <defs></defs>
    <g id="Blank-Slate" stroke="none" stroke-width="1" fill="none" fill-rule="evenodd" sketch:type="MSPage">
        <g id="Air-Search" sketch:type="MSArtboardGroup" transform="translate(-57.000000, -696.000000)" fill="#FFFFFF">
            <g id="noun_91605_cc-(1)" sketch:type="MSLayerGroup" transform="translate(57.000000, 696.000000)">
                <g id="Group" sketch:type="MSShapeGroup">
                    <path d="M38.0472133,29.4620156 L38.0211492,29.4551006 C38.0211492,29.4551006 37.8025298,29.3971212 37.4833775,29.3827594 C37.3636954,29.3689295 37.2642262,29.3364823 37.1301822,29.3364823 L24.8162214,29.3364823 C24.8162214,29.3364823 24.6757944,29.33861 24.4715369,29.3705252 C24.350259,29.3662699 24.2252577,29.3673337 24.0912137,29.3795679 L13.8006787,30.2795774 L11.9990638,25.3289929 L27.9518931,25.3289929 C27.9518931,25.3289929 30.3465994,25.3289929 30.3465994,22.9342865 L30.3465994,22.9066267 C30.3465994,22.9066267 30.3465994,20.5113884 27.9518931,20.5113884 L10.2458537,20.5113884 L7.19528931,12.1304482 C7.19528931,12.1304482 7.18997011,12.1166183 7.18411898,12.1027883 L7.18411898,3.59259141 C7.18411898,3.59259141 7.18411898,0 3.59205949,0 C3.59205949,0 0,0 0,3.59259141 L0,12.5591762 C0,12.5591762 0.00425536442,13.1618421 0.249470739,13.8719561 C0.293088224,14.1006819 0.352131406,14.3368546 0.444153661,14.588985 L8.78360408,37.5019947 C8.78360408,37.5019947 8.99424462,38.0674262 9.46924967,38.6520069 C9.97510612,39.394568 10.8474558,40.0397877 12.3687486,40.0397877 L20.0097873,40.0397877 L20.0097873,46.1946404 L10.1751082,46.1946404 C10.1751082,46.1946404 8.37881254,46.1946404 8.37881254,47.9909361 L8.37881254,48.2042362 C8.37881254,48.2042362 8.37881254,50 10.1751082,50 L34.5865382,50 C34.5865382,50 36.3823019,50 36.3823019,48.2042362 L36.3823019,47.9909361 C36.3823019,47.9909361 36.3823019,46.1946404 34.5865382,46.1946404 L24.7518591,46.1946404 L24.7518591,40.0397877 L34.4264301,40.0397877 C34.4264301,40.0397877 34.4450473,40.0392557 34.4753668,40.0381919 L35.7604868,40.0381919 C36.4812392,40.0727667 37.7339121,39.8860626 38.1652996,38.2743433 L39.7413802,32.3944936 C39.7413802,32.3944936 40.3605358,30.081703 38.0472133,29.4620156" id="Shape"></path>
                </g>
            </g>
        </g>
    </g>
</svg>