<?xml version="1.0" encoding="UTF-8"?>
<svg width="100px" height="100px" viewBox="0 0 100 100" version="1.1" xmlns="http://www.w3.org/2000/svg" xmlns:xlink="http://www.w3.org/1999/xlink">
    <!-- Generator: Sketch 54.1 (76490) - https://sketchapp.com -->
    <title>stops</title>
    <desc>Created with Sketch.</desc>
    <g id="stops" stroke="none" stroke-width="1" fill="none" fill-rule="evenodd">
        <rect fill="#000000" opacity="0" x="0" y="0" width="100" height="100"></rect>
        <path d="M57.4066502,93.7389095 C56.3719012,96.7960817 53.4444831,99 49.9947922,99 C46.5451014,99 43.6176833,96.7960817 42.5829343,93.7389095 L42.5789474,93.7389095 L42.5789474,93.727098 C42.322168,92.9643033 42.1831579,92.1485733 42.1831579,91.3008432 C42.1831579,90.4531132 42.322168,89.6373832 42.5789474,88.8745885 L42.5789474,88.8627769 L42.5829343,88.8627769 C43.6176833,85.8056048 46.5451014,83.6016865 49.9947922,83.6016865 C53.4444831,83.6016865 56.3719012,85.8056048 57.4066502,88.8627769 L57.4210526,88.8627769 L57.4210526,88.9057528 C57.6711734,89.6595863 57.8064266,90.4646471 57.8064266,91.3008432 C57.8064266,92.1370393 57.6711734,92.9421002 57.4210526,93.6959337 L57.4210526,93.7389095 L57.4066502,93.7389095 L57.4066502,93.7389095 Z M50.4943749,77.9915676 C30.4412829,57.0266484 20.4147368,41.1428256 20.4147368,30.3400993 C20.4147368,14.1360099 33.8818495,1 50.4943749,1 C67.1069003,1 80.574013,14.1360099 80.574013,30.3400993 C80.574013,41.1428256 70.547467,57.0266484 50.4943749,77.9915676 Z M50.8416598,52.9693081 C63.3093851,52.9693081 73.4164735,43.0590972 73.4164735,30.8342324 C73.4164735,18.6093677 63.3093851,8.69915676 50.8416598,8.69915676 C38.3739344,8.69915676 28.266846,18.6093677 28.266846,30.8342324 C28.266846,43.0590972 38.3739344,52.9693081 50.8416598,52.9693081 Z M58.9200395,39.477502 L57.0027153,41.3574784 L51.6342077,31.5816015 L46.1889112,36.9208282 L46.9942353,40.6431344 L45.4987703,42.1094689 L42.4310517,37.5975257 L37.8294737,34.5895636 L39.3249386,33.1232291 L43.1211925,33.9128661 L48.566489,28.5736393 L38.5964034,23.3097056 L40.5137275,21.4297293 L53.168067,24.0616962 L58.5749211,18.7601629 C59.4224743,17.9291194 60.7808505,17.9903596 61.6042933,18.7977624 C62.4277841,19.6052123 62.4902409,20.9370345 61.6426398,21.768125 L56.2357857,27.0696583 L58.9200395,39.477502 Z M17.8421053,93.7389095 L3,93.7389095 L3,88.8627769 L17.8421053,88.8627769 L17.8421053,93.7389095 Z M37.6315789,93.7389095 L22.7894737,93.7389095 L22.7894737,88.8627769 L37.6315789,88.8627769 L37.6315789,93.7389095 Z M77.2105263,93.7389095 L62.3684211,93.7389095 L62.3684211,88.8627769 L77.2105263,88.8627769 L77.2105263,93.7389095 Z M97,93.7389095 L82.1578947,93.7389095 L82.1578947,88.8627769 L97,88.8627769 L97,93.7389095 Z" id="Shape" fill="#FFFFFF"></path>
    </g>
</svg>