<?xml version="1.0" encoding="UTF-8" standalone="no"?>
<svg width="20px" height="20px" viewBox="0 0 20 20" version="1.1" xmlns="http://www.w3.org/2000/svg" xmlns:xlink="http://www.w3.org/1999/xlink" xmlns:sketch="http://www.bohemiancoding.com/sketch/ns">
    <!-- Generator: Sketch 3.4.4 (17249) - http://www.bohemiancoding.com/sketch -->
    <title>swimming</title>
    <desc>Created with Sketch.</desc>
    <defs></defs>
    <g id="Blank-Slate" stroke="none" stroke-width="1" fill="none" fill-rule="evenodd" sketch:type="MSPage">
        <g id="Icons" sketch:type="MSArtboardGroup" transform="translate(-183.000000, -30.000000)" fill="#FFFFFF">
            <g id="swimming" sketch:type="MSLayerGroup" transform="translate(183.000000, 30.000000)">
                <g id="Group" sketch:type="MSShapeGroup">
                    <path d="M20,17.0924752 C19.5665347,17.0924752 19.1530693,16.9942574 18.7821782,16.8231683 C18.4039604,16.6493069 17.9748515,16.5443564 17.5265347,16.5443564 C17.0768317,16.5443564 16.6479208,16.650099 16.2691089,16.8231683 C15.8986139,16.9942574 15.4849505,17.0924752 15.0512871,17.0924752 C14.6178218,17.0924752 14.2027723,16.9942574 13.8334653,16.8231683 C13.4487129,16.6493069 13.019604,16.5443564 12.5762376,16.5443564 C12.1281188,16.5443564 11.6988119,16.650099 11.3184158,16.8231683 C10.949505,16.9942574 10.529901,17.0924752 10.1007921,17.0924752 C9.66693069,17.0924752 9.25366337,16.9942574 8.87960396,16.8231683 C8.49940594,16.6493069 8.07168317,16.5443564 7.62732673,16.5443564 C7.1790099,16.5443564 6.74970297,16.650099 6.36950495,16.8231683 C6.00039604,16.9942574 5.58079208,17.0924752 5.14673267,17.0924752 C4.71940594,17.0924752 4.29980198,16.9942574 3.93049505,16.8231683 C3.55049505,16.6493069 3.12138614,16.5443564 2.67306931,16.5443564 C2.22811881,16.5443564 1.80079208,16.650099 1.42039604,16.8231683 C1.04514851,16.9942574 0.631881188,17.0924752 0.197821782,17.0924752 L0.197821782,15.2445545 C0.631485149,15.2445545 1.0449505,15.1437624 1.42039604,14.9794059 C1.80079208,14.8007921 2.22811881,14.6956436 2.67306931,14.6956436 C3.12138614,14.6956436 3.55049505,14.8005941 3.93049505,14.9794059 C4.29980198,15.1437624 4.71920792,15.2445545 5.14673267,15.2445545 C5.58039604,15.2445545 6.00039604,15.1437624 6.36950495,14.9794059 C6.74950495,14.8007921 7.17881188,14.6956436 7.62732673,14.6956436 C8.07168317,14.6956436 8.49940594,14.8005941 8.87960396,14.9794059 C9.25386139,15.1437624 9.66693069,15.2445545 10.1007921,15.2445545 C10.529901,15.2445545 10.949505,15.1437624 11.3184158,14.9794059 C11.6988119,14.8007921 12.1281188,14.6956436 12.5762376,14.6956436 C13.0194059,14.6956436 13.4483168,14.8005941 13.8334653,14.9794059 C14.2027723,15.1437624 14.6178218,15.2445545 15.0512871,15.2445545 C15.4849505,15.2445545 15.8986139,15.1437624 16.2691089,14.9794059 C16.6479208,14.8007921 17.0768317,14.6956436 17.5265347,14.6956436 C17.9748515,14.6956436 18.4039604,14.8005941 18.7821782,14.9794059 C19.1530693,15.1437624 19.5665347,15.2445545 20,15.2445545 L20,17.0924752 L20,17.0924752 Z" id="Shape"></path>
                    <path d="M17.1320792,11.8649505 C18.4322772,11.8649505 19.4875248,10.7932673 19.4875248,9.4780198 C19.4875248,8.1619802 18.4324752,7.09524752 17.1320792,7.09524752 C15.8291089,7.09524752 14.7754455,8.1619802 14.7754455,9.4780198 C14.7752475,10.7932673 15.7360396,11.8649505 17.1320792,11.8649505 L17.1320792,11.8649505 Z" id="Shape"></path>
                    <path d="M3.41188119,13.2061386 C3.59485149,13.2506931 3.76693069,13.3148515 3.93108911,13.389703 C4.3,13.5586139 4.71980198,13.6592079 5.14752475,13.6592079 C5.5809901,13.6592079 6.0009901,13.5584158 6.37009901,13.389703 C6.75009901,13.2154455 7.17920792,13.1053465 7.62752475,13.1053465 C8.07227723,13.1053465 8.5,13.2154455 8.88,13.389703 C9.25386139,13.5586139 9.66712871,13.6592079 10.1009901,13.6592079 C10.530099,13.6592079 10.949703,13.5584158 11.3188119,13.389703 C11.6990099,13.2154455 12.1283168,13.1053465 12.5764356,13.1053465 C13.019604,13.1053465 13.4487129,13.2154455 13.8338614,13.389703 C14.2031683,13.5586139 14.6180198,13.6592079 15.0516832,13.6592079 C15.3669307,13.6592079 15.6716832,13.6047525 15.9584158,13.5140594 L12.0287129,6.34376238 L16.5990099,5.50039604 C17.269703,5.37089109 17.7570297,4.8380198 17.7570297,4.15544554 C17.7570297,3.4029703 17.1512871,2.8 16.4114851,2.8 C16.3578218,2.8 16.3085149,2.8 16.2582178,2.80455446 L9.19841584,4.10435644 C8.7029703,4.2190099 8.04673267,4.95267327 8.42039604,5.85346535 C8.4409901,5.90316832 8.45980198,5.94930693 8.48059406,5.99861386 L10.3231683,9.36237624 L3.41188119,13.2061386 L3.41188119,13.2061386 Z" id="Shape"></path>
                </g>
            </g>
        </g>
    </g>
</svg>