<?xml version="1.0" encoding="UTF-8" standalone="no"?>
<svg width="50px" height="50px" viewBox="0 0 50 50" version="1.1" xmlns="http://www.w3.org/2000/svg" xmlns:xlink="http://www.w3.org/1999/xlink" xmlns:sketch="http://www.bohemiancoding.com/sketch/ns">
    <!-- Generator: Sketch 3.4.2 (15855) - http://www.bohemiancoding.com/sketch -->
    <title>swimming</title>
    <desc>Created with Sketch.</desc>
    <defs></defs>
    <g id="Blank-Slate" stroke="none" stroke-width="1" fill="none" fill-rule="evenodd" sketch:type="MSPage">
        <g id="Icons" sketch:type="MSArtboardGroup" transform="translate(-642.000000, -101.000000)" fill="#FFFFFF">
            <g id="swimming" sketch:type="MSLayerGroup" transform="translate(635.000000, 100.000000)">
                <g id="Group" sketch:type="MSShapeGroup">
                    <path d="M57,43.7311881 C55.9163366,43.7311881 54.8826733,43.4856436 53.9554455,43.0579208 C53.009901,42.6232673 51.9371287,42.3608911 50.8163366,42.3608911 C49.6920792,42.3608911 48.619802,42.6252475 47.6727723,43.0579208 C46.7465347,43.4856436 45.7123762,43.7311881 44.6282178,43.7311881 C43.5445545,43.7311881 42.5069307,43.4856436 41.5836634,43.0579208 C40.6217822,42.6232673 39.5490099,42.3608911 38.4405941,42.3608911 C37.320297,42.3608911 36.2470297,42.6252475 35.2960396,43.0579208 C34.3737624,43.4856436 33.3247525,43.7311881 32.2519802,43.7311881 C31.1673267,43.7311881 30.1341584,43.4856436 29.1990099,43.0579208 C28.2485149,42.6232673 27.1792079,42.3608911 26.0683168,42.3608911 C24.9475248,42.3608911 23.8742574,42.6252475 22.9237624,43.0579208 C22.0009901,43.4856436 20.9519802,43.7311881 19.8668317,43.7311881 C18.7985149,43.7311881 17.749505,43.4856436 16.8262376,43.0579208 C15.8762376,42.6232673 14.8034653,42.3608911 13.6826733,42.3608911 C12.570297,42.3608911 11.5019802,42.6252475 10.5509901,43.0579208 C9.61287129,43.4856436 8.57970297,43.7311881 7.49455446,43.7311881 L7.49455446,39.1113861 C8.57871287,39.1113861 9.61237624,38.8594059 10.5509901,38.4485149 C11.5019802,38.0019802 12.570297,37.7391089 13.6826733,37.7391089 C14.8034653,37.7391089 15.8762376,38.0014851 16.8262376,38.4485149 C17.749505,38.8594059 18.7980198,39.1113861 19.8668317,39.1113861 C20.9509901,39.1113861 22.0009901,38.8594059 22.9237624,38.4485149 C23.8737624,38.0019802 24.9470297,37.7391089 26.0683168,37.7391089 C27.1792079,37.7391089 28.2485149,38.0014851 29.1990099,38.4485149 C30.1346535,38.8594059 31.1673267,39.1113861 32.2519802,39.1113861 C33.3247525,39.1113861 34.3737624,38.8594059 35.2960396,38.4485149 C36.2470297,38.0019802 37.320297,37.7391089 38.4405941,37.7391089 C39.5485149,37.7391089 40.6207921,38.0014851 41.5836634,38.4485149 C42.5069307,38.8594059 43.5445545,39.1113861 44.6282178,39.1113861 C45.7123762,39.1113861 46.7465347,38.8594059 47.6727723,38.4485149 C48.619802,38.0019802 49.6920792,37.7391089 50.8163366,37.7391089 C51.9371287,37.7391089 53.009901,38.0014851 53.9554455,38.4485149 C54.8826733,38.8594059 55.9163366,39.1113861 57,39.1113861 L57,43.7311881 L57,43.7311881 Z" id="Shape"></path>
                    <path d="M49.830198,30.6623762 C53.0806931,30.6623762 55.7188119,27.9831683 55.7188119,24.6950495 C55.7188119,21.4049505 53.0811881,18.7381188 49.830198,18.7381188 C46.5727723,18.7381188 43.9386139,21.4049505 43.9386139,24.6950495 C43.9381188,27.9831683 46.340099,30.6623762 49.830198,30.6623762 L49.830198,30.6623762 Z" id="Shape"></path>
                    <path d="M15.529703,34.0153465 C15.9871287,34.1267327 16.4173267,34.2871287 16.8277228,34.4742574 C17.75,34.8965347 18.799505,35.1480198 19.8688119,35.1480198 C20.9524752,35.1480198 22.0024752,34.8960396 22.9252475,34.4742574 C23.8752475,34.0386139 24.9480198,33.7633663 26.0688119,33.7633663 C27.1806931,33.7633663 28.25,34.0386139 29.2,34.4742574 C30.1346535,34.8965347 31.1678218,35.1480198 32.2524752,35.1480198 C33.3252475,35.1480198 34.3742574,34.8960396 35.2970297,34.4742574 C36.2475248,34.0386139 37.3207921,33.7633663 38.4410891,33.7633663 C39.5490099,33.7633663 40.6217822,34.0386139 41.5846535,34.4742574 C42.5079208,34.8965347 43.5450495,35.1480198 44.6292079,35.1480198 C45.4173267,35.1480198 46.1792079,35.0118812 46.8960396,34.7851485 L37.0717822,16.8594059 L48.4975248,14.7509901 C50.1742574,14.4272277 51.3925743,13.0950495 51.3925743,11.3886139 C51.3925743,9.50742574 49.8782178,8 48.0287129,8 C47.8945545,8 47.7712871,8 47.6455446,8.01138614 L29.9960396,11.2608911 C28.7574257,11.5475248 27.1168317,13.3816832 28.0509901,15.6336634 C28.1024752,15.7579208 28.149505,15.8732673 28.2014851,15.9965347 L32.8079208,24.4059406 L15.529703,34.0153465 L15.529703,34.0153465 Z" id="Shape"></path>
                </g>
            </g>
        </g>
    </g>
</svg>