<?xml version="1.0" encoding="UTF-8" standalone="no"?>
<svg width="21px" height="21px" viewBox="0 0 21 21" version="1.1" xmlns="http://www.w3.org/2000/svg" xmlns:xlink="http://www.w3.org/1999/xlink" xmlns:sketch="http://www.bohemiancoding.com/sketch/ns">
    <!-- Generator: Sketch 3.4.4 (17249) - http://www.bohemiancoding.com/sketch -->
    <title>takeoff</title>
    <desc>Created with Sketch.</desc>
    <defs></defs>
    <g id="Blank-Slate" stroke="none" stroke-width="1" fill="none" fill-rule="evenodd" sketch:type="MSPage">
        <g id="Icons" sketch:type="MSArtboardGroup" transform="translate(-5.000000, -30.000000)" fill="#FFFFFF">
            <g id="takeoff" sketch:type="MSLayerGroup" transform="translate(5.000000, 30.000000)">
                <path d="M18.7236802,9.69936123 C17.9545109,10.0169331 17.1849558,10.3342657 16.4157865,10.6515982 C13.4234153,11.8867064 6.6554203,14.6251955 6.6554203,14.6251955 C5.77455076,14.8068361 1.93236994,14.13053 2.44727156,13.9177784 C3.0453214,13.6712832 6.34057599,12.2466371 8.13974141,11.4750834 L5.34858494,7.31673451 L6.03692101,6.40661706 L12.5595226,9.63785711 C14.4387495,8.86247437 16.3177835,8.08709163 18.1966246,7.3119482 C18.7132625,7.09847863 19.9973334,7.15208534 20.1354636,7.77574195 C20.2853619,8.45252664 19.2383889,9.48708824 18.7236802,9.69936123 L18.7236802,9.69936123 Z" id="Shape" sketch:type="MSShapeGroup"></path>
                <path d="M1.28384405,10.5999985 L0.667867602,11.3060308 L2.30145533,13.6699984 L4.66875966,12.6357626 L1.28384405,10.5999985 L1.28384405,10.5999985" id="Shape" sketch:type="MSShapeGroup"></path>
            </g>
        </g>
    </g>
</svg>