<?xml version="1.0" encoding="UTF-8" standalone="no"?>
<svg width="20px" height="20px" viewBox="0 0 20 20" version="1.1" xmlns="http://www.w3.org/2000/svg" xmlns:xlink="http://www.w3.org/1999/xlink" xmlns:sketch="http://www.bohemiancoding.com/sketch/ns">
    <!-- Generator: Sketch 3.4.4 (17249) - http://www.bohemiancoding.com/sketch -->
    <title>timeline</title>
    <desc>Created with Sketch.</desc>
    <defs></defs>
    <g id="Blank-Slate" stroke="none" stroke-width="1" fill="none" fill-rule="evenodd" sketch:type="MSPage">
        <g id="Icons" sketch:type="MSArtboardGroup" transform="translate(-208.000000, -30.000000)" fill="#FFFFFF">
            <g id="timeline" sketch:type="MSLayerGroup" transform="translate(208.000000, 30.000000)">
                <g id="Group" sketch:type="MSShapeGroup">
                    <path d="M18.9189189,17.6972973 L6.48648649,17.6972973 C5.97297297,17.6972973 4.32432432,15.8054054 4.32432432,15.8054054 C4.32432432,15.8054054 5.97297297,13.9135135 6.48648649,13.9135135 L18.9189189,13.9135135 C19.5135135,13.9135135 20,14.4 20,14.9945946 L20,16.6162162 C20,17.2108108 19.5135135,17.6972973 18.9189189,17.6972973 L18.9189189,17.6972973 Z M18.9189189,11.7513514 L6.48648649,11.7513514 C5.97297297,11.7513514 4.32432432,9.85945946 4.32432432,9.85945946 C4.32432432,9.85945946 5.97297297,7.96756757 6.48648649,7.96756757 L18.9189189,7.96756757 C19.5135135,7.96756757 20,8.45405405 20,9.04864865 L20,10.6702703 C20,11.2648649 19.5135135,11.7513514 18.9189189,11.7513514 L18.9189189,11.7513514 Z M18.9189189,5.80540541 L6.48648649,5.80540541 C5.97297297,5.80540541 4.32432432,3.91351351 4.32432432,3.91351351 C4.32432432,3.91351351 5.97297297,2.02162162 6.48648649,2.02162162 L18.9189189,2.02162162 C19.5135135,2.02162162 20,2.50810811 20,3.1027027 L20,4.72432432 C20,5.31891892 19.5135135,5.80540541 18.9189189,5.80540541 L18.9189189,5.80540541 Z M1.35135135,17.1567568 C0.594594595,17.1567568 0,16.5621622 0,15.8054054 C0,15.0486486 0.594594595,14.4540541 1.35135135,14.4540541 C2.10810811,14.4540541 2.7027027,15.0486486 2.7027027,15.8054054 C2.7027027,16.5621622 2.10810811,17.1567568 1.35135135,17.1567568 L1.35135135,17.1567568 Z M1.62162162,11.7243243 L1.62162162,13.9405405 C1.54054054,13.9405405 1.43243243,13.9135135 1.35135135,13.9135135 C1.27027027,13.9135135 1.16216216,13.9405405 1.08108108,13.9405405 L1.08108108,11.7243243 C1.16216216,11.7243243 1.27027027,11.7513514 1.35135135,11.7513514 C1.43243243,11.7513514 1.54054054,11.7243243 1.62162162,11.7243243 L1.62162162,11.7243243 Z M1.35135135,11.2108108 C0.594594595,11.2108108 0,10.6162162 0,9.85945946 C0,9.1027027 0.594594595,8.50810811 1.35135135,8.50810811 C2.10810811,8.50810811 2.7027027,9.1027027 2.7027027,9.85945946 C2.7027027,10.6162162 2.10810811,11.2108108 1.35135135,11.2108108 L1.35135135,11.2108108 Z M1.62162162,5.77837838 L1.62162162,7.99459459 C1.54054054,7.99459459 1.43243243,7.96756757 1.35135135,7.96756757 C1.27027027,7.96756757 1.16216216,7.99459459 1.08108108,7.99459459 L1.08108108,5.77837838 C1.16216216,5.77837838 1.27027027,5.80540541 1.35135135,5.80540541 C1.43243243,5.80540541 1.54054054,5.77837838 1.62162162,5.77837838 L1.62162162,5.77837838 Z M1.35135135,5.26486486 C0.594594595,5.26486486 0,4.67027027 0,3.91351351 C0,3.15675676 0.594594595,2.56216216 1.35135135,2.56216216 C2.10810811,2.56216216 2.7027027,3.15675676 2.7027027,3.91351351 C2.7027027,4.67027027 2.10810811,5.26486486 1.35135135,5.26486486 L1.35135135,5.26486486 Z M1.08108108,2.04864865 L1.08108108,0.67027027 C1.08108108,0.508108108 1.18918919,0.4 1.35135135,0.4 C1.51351351,0.4 1.62162162,0.508108108 1.62162162,0.67027027 L1.62162162,2.04864865 C1.54054054,2.04864865 1.43243243,2.02162162 1.35135135,2.02162162 C1.27027027,2.02162162 1.16216216,2.04864865 1.08108108,2.04864865 L1.08108108,2.04864865 Z M1.62162162,17.6702703 L1.62162162,19.0486486 C1.62162162,19.2108108 1.51351351,19.3189189 1.35135135,19.3189189 C1.18918919,19.3189189 1.08108108,19.2108108 1.08108108,19.0486486 L1.08108108,17.6702703 C1.16216216,17.6702703 1.27027027,17.6972973 1.35135135,17.6972973 C1.43243243,17.6972973 1.54054054,17.6702703 1.62162162,17.6702703 L1.62162162,17.6702703 Z" id="Shape"></path>
                </g>
            </g>
        </g>
    </g>
</svg>