<?xml version="1.0" encoding="UTF-8" standalone="no"?>
<svg width="50px" height="50px" viewBox="0 0 50 50" version="1.1" xmlns="http://www.w3.org/2000/svg" xmlns:xlink="http://www.w3.org/1999/xlink" xmlns:sketch="http://www.bohemiancoding.com/sketch/ns">
    <!-- Generator: Sketch 3.4.4 (17249) - http://www.bohemiancoding.com/sketch -->
    <title>timeline</title>
    <desc>Created with Sketch.</desc>
    <defs></defs>
    <g id="Blank-Slate" stroke="none" stroke-width="1" fill="none" fill-rule="evenodd" sketch:type="MSPage">
        <g id="Icons" sketch:type="MSArtboardGroup" transform="translate(-722.000000, -100.000000)" fill="#FFFFFF">
            <g id="timeline" sketch:type="MSLayerGroup" transform="translate(722.000000, 100.000000)">
                <g id="Group" sketch:type="MSShapeGroup">
                    <path d="M47.2972973,44.2432432 L16.2162162,44.2432432 C14.9324324,44.2432432 10.8108108,39.5135135 10.8108108,39.5135135 C10.8108108,39.5135135 14.9324324,34.7837838 16.2162162,34.7837838 L47.2972973,34.7837838 C48.7837838,34.7837838 50,36 50,37.4864865 L50,41.5405405 C50,43.027027 48.7837838,44.2432432 47.2972973,44.2432432 L47.2972973,44.2432432 Z M47.2972973,29.3783784 L16.2162162,29.3783784 C14.9324324,29.3783784 10.8108108,24.6486486 10.8108108,24.6486486 C10.8108108,24.6486486 14.9324324,19.9189189 16.2162162,19.9189189 L47.2972973,19.9189189 C48.7837838,19.9189189 50,21.1351351 50,22.6216216 L50,26.6756757 C50,28.1621622 48.7837838,29.3783784 47.2972973,29.3783784 L47.2972973,29.3783784 Z M47.2972973,14.5135135 L16.2162162,14.5135135 C14.9324324,14.5135135 10.8108108,9.78378378 10.8108108,9.78378378 C10.8108108,9.78378378 14.9324324,5.05405405 16.2162162,5.05405405 L47.2972973,5.05405405 C48.7837838,5.05405405 50,6.27027027 50,7.75675676 L50,11.8108108 C50,13.2972973 48.7837838,14.5135135 47.2972973,14.5135135 L47.2972973,14.5135135 Z M3.37837838,42.8918919 C1.48648649,42.8918919 0,41.4054054 0,39.5135135 C0,37.6216216 1.48648649,36.1351351 3.37837838,36.1351351 C5.27027027,36.1351351 6.75675676,37.6216216 6.75675676,39.5135135 C6.75675676,41.4054054 5.27027027,42.8918919 3.37837838,42.8918919 L3.37837838,42.8918919 Z M4.05405405,29.3108108 L4.05405405,34.8513514 C3.85135135,34.8513514 3.58108108,34.7837838 3.37837838,34.7837838 C3.17567568,34.7837838 2.90540541,34.8513514 2.7027027,34.8513514 L2.7027027,29.3108108 C2.90540541,29.3108108 3.17567568,29.3783784 3.37837838,29.3783784 C3.58108108,29.3783784 3.85135135,29.3108108 4.05405405,29.3108108 L4.05405405,29.3108108 Z M3.37837838,28.027027 C1.48648649,28.027027 0,26.5405405 0,24.6486486 C0,22.7567568 1.48648649,21.2702703 3.37837838,21.2702703 C5.27027027,21.2702703 6.75675676,22.7567568 6.75675676,24.6486486 C6.75675676,26.5405405 5.27027027,28.027027 3.37837838,28.027027 L3.37837838,28.027027 Z M4.05405405,14.4459459 L4.05405405,19.9864865 C3.85135135,19.9864865 3.58108108,19.9189189 3.37837838,19.9189189 C3.17567568,19.9189189 2.90540541,19.9864865 2.7027027,19.9864865 L2.7027027,14.4459459 C2.90540541,14.4459459 3.17567568,14.5135135 3.37837838,14.5135135 C3.58108108,14.5135135 3.85135135,14.4459459 4.05405405,14.4459459 L4.05405405,14.4459459 Z M3.37837838,13.1621622 C1.48648649,13.1621622 0,11.6756757 0,9.78378378 C0,7.89189189 1.48648649,6.40540541 3.37837838,6.40540541 C5.27027027,6.40540541 6.75675676,7.89189189 6.75675676,9.78378378 C6.75675676,11.6756757 5.27027027,13.1621622 3.37837838,13.1621622 L3.37837838,13.1621622 Z M2.7027027,5.12162162 L2.7027027,1.67567568 C2.7027027,1.27027027 2.97297297,1 3.37837838,1 C3.78378378,1 4.05405405,1.27027027 4.05405405,1.67567568 L4.05405405,5.12162162 C3.85135135,5.12162162 3.58108108,5.05405405 3.37837838,5.05405405 C3.17567568,5.05405405 2.90540541,5.12162162 2.7027027,5.12162162 L2.7027027,5.12162162 Z M4.05405405,44.1756757 L4.05405405,47.6216216 C4.05405405,48.027027 3.78378378,48.2972973 3.37837838,48.2972973 C2.97297297,48.2972973 2.7027027,48.027027 2.7027027,47.6216216 L2.7027027,44.1756757 C2.90540541,44.1756757 3.17567568,44.2432432 3.37837838,44.2432432 C3.58108108,44.2432432 3.85135135,44.1756757 4.05405405,44.1756757 L4.05405405,44.1756757 Z" id="Shape"></path>
                </g>
            </g>
        </g>
    </g>
</svg>