<?xml version="1.0" encoding="UTF-8"?>
<svg width="100px" height="100px" viewBox="0 0 100 100" version="1.1" xmlns="http://www.w3.org/2000/svg" xmlns:xlink="http://www.w3.org/1999/xlink">
    <!-- Generator: Sketch 54.1 (76490) - https://sketchapp.com -->
    <title>uber</title>
    <desc>Created with Sketch.</desc>
    <g id="uber" stroke="none" stroke-width="1" fill="none" fill-rule="evenodd">
        <rect fill="#000000" opacity="0" x="0" y="0" width="100" height="100"></rect>
        <path d="M49.8747526,0 C24.1320955,-0.000322594366 2.57426571,19.4501078 0,44.9992141 L34.8371387,44.9992141 L34.8371387,37.4993451 C34.8371387,36.1186572 35.9592335,34.9993888 37.3434077,34.9993888 L62.4060975,34.9993888 C63.7902717,34.9993888 64.9123664,36.1186572 64.9123664,37.4993451 L64.9123664,62.4989085 C64.9123664,63.8795964 63.7902717,64.9988648 62.4060975,64.9988648 L37.3434077,64.9988648 C35.9592335,64.9988648 34.8371387,63.8795964 34.8371387,62.4989085 L34.8371387,54.9990395 L0,54.9990395 C2.70320397,81.8278344 26.2469154,101.685983 53.2187129,99.8868275 C80.1905104,98.0876714 100.873761,75.2793598 99.9715782,48.3304274 C99.0693955,21.3814956 76.9067923,0.000338744084 49.8747526,0 L49.8747526,0 Z" id="Shape" fill="#FFFFFF" fill-rule="nonzero"></path>
    </g>
</svg>