<?xml version="1.0" encoding="UTF-8"?>
<svg width="653px" height="653px" viewBox="0 0 653 653" version="1.1" xmlns="http://www.w3.org/2000/svg" xmlns:xlink="http://www.w3.org/1999/xlink">
    <!-- Generator: Sketch 54.1 (76490) - https://sketchapp.com -->
    <title>united-globe</title>
    <desc>Created with Sketch.</desc>
    <g id="united-globe" stroke="none" stroke-width="1" fill="none" fill-rule="evenodd">
        <rect fill="#FFFFFF" opacity="0" x="0" y="0" width="653" height="653"></rect>
        <path d="M518.553052,652 L0,652 L0,90.6556206 L25.4200034,84.4797248 C138.688584,61.079628 253.876971,83.8256193 344.550907,141.576805 C440.562326,202.303116 508.304068,300.693243 532.776326,404.210714 C552.812131,485.057865 546.607139,577.16773 518.553044,652 L518.553052,652 Z M179.88662,101.98824 C145.236285,82.8432459 99.5828389,80.0872084 58.6630448,87.0298984 L73.1375016,88.6708978 L75.1992701,87.7031289 C94.1549177,86.3145909 114.078334,86.9457446 131.750636,90.7957818 C125.965061,92.4157428 116.055949,95.7187801 109.071182,98.6220868 C112.963296,100.07374 117.991487,102.619393 121.462832,104.807392 C131.629649,101.433567 141.966778,98.5964749 152.431437,96.3078568 C159.247896,98.4117023 176.899159,106.511507 187.860194,114.569235 C174.900506,115.915696 157.207166,118.461349 142.985171,121.743348 C146.330285,124.730809 149.233592,128.181115 151.695091,132.052191 C168.687584,129.029572 185.867079,127.173849 203.113074,126.498039 C211.970263,134.156037 219.165415,143.349841 224.088413,152.880261 C204.943419,151.554838 179.402735,151.912492 163.813241,153.57453 C165.370086,156.414721 167.621201,163.504681 168.58897,167.838602 C187.944348,166.997064 219.607222,168.385602 232.84041,170.32114 C237.19537,180.819329 239.719985,192.053863 240.708792,203.898513 C218.513222,199.501476 192.467616,195.840785 172.102392,194.873016 C172.333815,201.415976 172.060315,207.685435 171.471238,213.849702 C195.686499,216.33224 219.186453,220.708239 241.950061,226.620044 C241.676561,238.191194 239.993485,252.560459 236.879793,263.668763 C213.570186,255.506785 189.762097,248.845018 165.601509,243.724308 C163.177691,253.799817 159.832519,263.631101 155.608243,273.09399 C179.465851,281.046526 203.049958,291.439523 225.645259,302.610942 C221.854854,313.536414 217.131851,324.11566 211.528456,334.231739 C188.912117,321.587628 165.664625,309.132863 142.606478,299.307905 C135.396275,312.340637 127.305754,324.866534 118.391217,336.798431 C140.708145,350.525804 162.347009,365.326169 183.231734,381.147493 C176.878121,390.383374 167.852624,401.512717 162.31951,408.160869 C142.143632,391.351143 100.6558,358.278693 100.6558,358.278693 C88.3483042,373.047688 77.9342692,384.029761 62.5341205,395.874411 C81.1163691,415.016028 98.8951742,434.921551 115.824526,455.539468 C108.985677,462.756323 101.397013,469.223614 93.1871488,474.831731 C76.292199,454.078038 59.898509,432.921269 44.0202805,411.379752 C27.4209398,424.402555 17.2804048,431.471476 0.365487303,440.26555 L0.365487303,464.607042 L27.3157476,518.570678 C21.3157954,522.354151 14.9853965,525.586246 8.40217694,528.227329 L0.365487303,512.532642 L0.365487303,540.892478 C104.358568,494.670994 210.118879,392.865912 240.919177,282.22468 C252.17475,244.039885 254.194441,194.809901 235.764755,159.191797 C224.95099,135.775998 203.049958,113.917043 179.88662,101.98824 L179.88662,101.98824 Z M164.402317,85.9569372 C168.925585,87.4085906 173.259507,89.4493207 177.57239,91.3427816 L180.012851,90.9220125 C201.891473,94.5157215 223.008149,101.770356 242.476022,112.381236 C232.146141,112.444351 221.437568,112.297082 211.128725,113.117582 C215.462647,117.030735 220.006953,121.532964 223.772836,125.635462 C237.363344,125.362738 250.959306,125.664558 264.524323,126.540116 C277.715434,136.238844 291.180044,149.261647 298.690773,162.642104 C280.340842,158.739222 261.761553,156.005734 243.065099,154.458145 C245.547637,160.096451 248.009136,165.924103 250.112981,171.899024 C271.151436,174.991677 292.042621,178.820676 312.34473,183.975097 C318.992881,197.839438 324.126264,212.482203 326.272187,227.882352 C303.908309,219.887739 280.934317,212.334934 257.434363,207.559204 C258.044479,215.069933 258.065517,222.959353 258.128632,230.659428 C282.407009,237.70731 306.096309,245.828153 329.070301,256.242188 C329.246715,271.239346 327.557694,286.200249 324.04211,300.780597 C300.878772,289.251523 277.35778,277.911796 252.869019,269.580568 C249.758217,283.175608 245.752178,296.550156 240.8771,309.616747 C264.398092,321.755936 287.771815,334.021355 310.009461,348.537888 C305.470216,361.304448 299.618228,373.565421 292.547544,385.123761 C270.68859,370.207497 248.829635,355.669924 226.023951,342.962698 C217.990598,359.845856 208.19539,375.832707 196.801537,390.656874 C217.145723,406.730254 237.910678,423.329594 257.539556,441.08605 C250.161971,452.137666 241.864383,462.546599 232.735218,472.201924 C218.40803,457.138391 194.5925,435.763321 174.774275,418.953596 C160.720588,435.973705 144.07917,454.718968 127.353599,468.667464 C140.102902,482.068959 177.993159,527.743444 177.993159,527.743444 C170.398277,535.296249 160.994088,543.038401 151.232245,550.044206 C151.232245,550.044206 112.626681,500.414492 103.033145,488.506726 C80.1853838,506.641874 61.8398515,519.349101 35.0999758,533.550058 C45.7875107,551.643129 72.0645404,600.599612 72.0645404,600.599612 C65.3111965,604.765226 58.1791604,608.65734 51.0892012,611.24507 C38.7185899,590.606346 23.7812872,560.689664 15.7866745,543.606439 C8.10763858,547.835168 0.365487303,550.549129 0.365487303,550.549129 L0.365487303,639.773215 C81.0058836,613.622416 155.271628,567.295739 218.218684,500.267223 C275.548473,438.161705 320.844265,371.070073 334.329915,290.9346 C345.059527,226.998736 323.894841,166.849795 273.171127,126.119347 C242.412907,99.8212788 204.24915,90.6064357 164.402317,85.9569372 L164.402317,85.9569372 Z M137.578288,128.559808 C102.254723,92.7944349 48.0386253,89.8490513 0.365487303,101.083586 L0.365487303,105.417508 C11.765455,102.858326 23.3969,101.469602 35.0789373,101.272932 C27.4225644,106.048589 20.1112279,111.356338 13.1989446,117.156965 C16.0812128,117.788119 19.1528272,118.734849 21.8457494,119.913003 C31.4451668,113.007393 41.4185477,106.637072 51.7203548,100.831125 C62.975928,100.873201 77.5766155,102.998085 87.1280738,106.806046 C71.4333868,112.46539 52.3935854,121.17531 40.1071279,129.401346 C42.4791966,130.755612 44.6350147,132.457573 46.5028181,134.450575 C64.0311704,125.308386 82.275874,117.610852 101.055531,111.434506 C109.449874,114.77962 118.475371,120.775579 123.671869,125.782732 C100.971377,131.147538 79.1965765,137.143497 57.2955453,146.063802 C59.4625061,148.525301 61.6715438,152.312223 62.7655435,154.647491 C86.0677621,146.64541 109.871688,140.186653 134.022789,135.313152 C138.461903,140.067842 143.742555,147.704801 146.519631,154.773722 C119.695601,157.592875 88.9373809,162.263412 68.298657,168.154179 C69.5399258,171.667601 70.3183487,175.033754 70.9705408,178.273676 C97.6610099,173.079489 124.699002,169.86587 151.863398,168.659102 C154.388013,176.527484 155.713436,184.984943 155.755513,193.610709 C127.891736,192.084068 99.951137,192.745301 72.1907711,195.588324 C72.2118096,198.849284 71.770002,205.287051 71.3281945,209.305396 C99.2242039,208.280914 127.15777,209.258202 154.913974,212.229741 C153.88309,220.371623 151.863398,230.953966 149.233592,240.063617 C121.084139,233.646888 95.4172249,230.533197 67.1205036,228.681813 C65.7413398,234.849071 63.6882745,240.845997 60.9983133,246.564499 C87.5278045,251.424382 114.057296,258.766803 139.619018,267.918531 C136.084558,276.22872 132.003097,284.328525 127.542945,292.217946 C108.376913,283.150372 74.3998088,270.50626 52.0780086,264.236801 C47.6479911,273.14807 42.280932,281.56187 36.0677447,289.335677 C52.1200855,297.140944 82.878306,314.497669 103.874684,328.046434 C98.846493,334.820816 93.2292257,341.805583 87.275343,348.032965 C67.0903826,332.041079 46.1318513,317.050639 24.4755562,303.115865 C17.4066355,311.194632 8.59152303,319.988706 0.365487303,326.994511 L0.365487303,329.519125 L51.2154319,383.735223 C45.6687924,388.772558 39.8536806,393.506115 33.7955916,397.915141 L0.365487303,355.165002 L0.365487303,430.672015 C52.0359317,400.313525 104.379607,350.599657 133.770328,297.814174 C157.775204,255.611035 175.889314,198.407477 152.704937,149.871762 C148.539323,142.382072 144.184363,135.06069 137.578288,128.559808 L137.578288,128.559808 Z M289.539045,129.043692 L304.560502,130.852999 C319.624035,138.658266 333.383184,149.661378 345.837949,162.768335 C350.403294,167.817564 355.305254,172.845754 358.524137,178.273676 C346.111449,174.781292 334.056415,170.531524 321.265034,167.775487 C325.598956,174.528831 328.712647,181.176982 331.910492,188.961211 C346.195603,193.000594 360.333445,198.007746 374.239863,202.99386 C383.139129,219.845662 389.640012,238.064964 392.711626,257.209957 C376.743439,249.215344 360.733175,241.410078 344.154873,234.909195 C345.438219,244.292346 345.837949,253.970035 345.438219,263.269032 C363.53129,271.60026 383.833398,282.750641 396.393356,290.766292 C396.814125,304.062595 395.572856,327.625665 391.680742,342.710236 C377.227324,332.127894 356.336138,318.579129 339.484336,309.890247 C337.170106,322.892012 331.047916,343.194121 324.525995,357.50027 C342.240374,369.429074 359.744368,381.694493 376.533055,396.084796 C371.232228,410.118809 364.968919,423.770153 357.787792,436.941474 C341.065309,422.597714 323.89648,408.782665 306.306693,395.516757 C296.312419,415.589042 284.134663,434.497723 269.994321,451.899816 C286.929459,467.377186 303.423197,483.33072 319.455727,499.741261 C311.503192,511.312411 302.603925,522.736292 292.18989,533.507981 C276.705588,516.887602 260.842593,499.846453 244.621945,483.983459 C227.812219,503.401952 208.835533,523.704061 188.933155,540.429632 C204.514754,557.235098 218.978133,575.043748 232.230295,593.741076 C222.36326,602.177496 213.148417,610.193148 203.239304,617.388299 L161.456934,563.508817 C135.64275,583.558464 108.292759,600.199882 80.7744606,615.2003 L102.738607,651.807211 L170.734892,651.807211 C274.601742,580.802427 368.517403,475.441846 397.403201,357.815847 C414.886157,285.801217 398.286817,212.187664 348.657102,158.581682 C322.232803,130.053538 292.863121,120.460003 272.161282,114.106389 C277.441934,117.598773 283.585162,122.963579 289.539045,129.043692 L289.539045,129.043692 Z M0.386525758,123.068771 L0.386525758,135.628728 L7.43440803,130.70573 C13.2620599,132.136345 19.9522885,135.018613 24.3914024,137.985035 C16.3126358,142.718688 7.98140785,147.45234 0.449641121,152.543646 L0.449641121,160.454105 C10.5854974,154.075865 20.9503001,148.068911 31.5234385,142.445188 C35.3103603,144.843571 38.7185899,148.39907 41.3483968,151.975608 C27.8627474,157.340413 9.09644594,166.51318 0.365487303,171.162678 L0.365487303,179.220406 C15.30279,172.004216 31.8179768,164.661796 47.5126639,159.801913 C49.5744325,163.37845 51.5520472,167.901718 52.3515085,172.025255 C35.6469756,175.244138 16.2915974,182.292021 0.449641121,188.435249 L0.449641121,195.861824 C17.1331356,190.05521 39.7073973,184.122366 54.413277,181.745021 C55.5493536,186.52075 55.6335074,192.579825 55.6755843,196.955823 C37.145964,198.667614 18.7334094,201.470594 0.533794939,205.350167 L0.533794939,213.807625 C16.5861358,211.640665 43.2208192,209.684088 54.8130077,210.125896 C53.8625735,215.975945 52.3188009,221.713986 50.2055861,227.251198 C33.6544443,225.808125 17.0408356,225.204249 0.428602667,225.441891 C0.365487303,225.441891 0.365487303,236.739541 0.365487303,236.802656 C15.0292901,237.644194 31.0185156,241.157616 43.8940498,243.598077 C41.7523452,248.911666 39.1402064,254.02329 36.0887831,258.871995 C26.0324018,255.505842 11.3475606,250.856344 0.365487303,249.110152 L0.365487303,271.452991 C7.41336958,274.566682 17.5539047,279.657988 21.0042112,281.888064 C18.059393,286.190177 14.6827192,290.180151 10.9267915,293.79583 C6.27729303,290.640061 0.344448848,287.168716 0.344448848,287.168716 L0.365487303,315.591669 C12.1259834,304.104672 23.6760949,292.007561 32.8067842,279.174104 C55.5493536,246.375153 73.5582707,203.835398 57.190353,162.768335 C47.3022794,140.278227 23.3184412,126.119347 0.386525758,123.068771 L0.386525758,123.068771 Z M381.266707,185.889596 C386.021398,193.926286 390.565704,202.17336 394.352626,210.588742 L412.445696,218.983085 C425.321231,239.916348 435.566958,262.048802 441.142148,286.03264 C431.169921,279.742142 420.987309,273.199183 410.804697,267.602954 C412.382581,278.500873 412.782312,288.34687 413.013735,299.833866 C424.521769,307.849517 436.471612,316.306976 447.558877,326.237127 C448.521652,345.856052 447.364855,365.521593 444.108571,384.892338 C432.536821,373.583535 420.077222,363.220469 406.849468,353.902694 C403.735776,371.091112 397.529432,390.509605 390.334281,407.908407 C404.193829,419.179076 417.189859,431.471857 429.213345,444.683626 C424.038769,459.778858 417.584566,474.404631 409.921082,488.401534 C397.613586,475.126269 384.127937,461.219851 370.663326,449.501432 C362.416252,465.595849 345.69068,491.536264 330.963762,511.543834 C344.130698,525.340113 356.851484,539.5554 369.10648,554.167743 C360.163094,566.47121 350.50379,578.237999 340.178605,589.407154 C327.702802,574.995813 316.005421,560.268895 302.982617,546.236246 C283.290624,569.147123 266.775437,587.050848 243.19133,606.89011 C257.160863,623.741912 278.157241,651.807211 278.157241,651.807211 L290.086045,651.807211 C312.277358,631.864705 333.155995,610.5082 352.591293,587.871347 C400.180277,529.784174 437.775996,467.573464 450.92503,395.34845 C465.189102,319.567936 445.265686,245.828153 395.194164,191.065056 L381.266707,185.889596 L381.266707,185.889596 Z M428.813614,223.779853 L428.624268,224.326853 C450.37803,251.066728 467.587486,279.742142 476.591944,311.615401 L476.423637,312.015131 L459.63495,299.328943 C461.759834,312.267593 463.463949,324.259512 463.905756,337.829315 C471.795177,343.825275 480.46302,351.609503 487.237402,359.751385 C488.373479,381.778647 488.373479,405.194446 484.565519,426.864055 C477.075829,416.765596 470.364562,409.591483 458.583027,397.830987 C455.974259,413.820213 450.041415,438.961166 442.783148,455.834007 C453.049914,466.984387 463.611218,481.10119 470.217293,491.431072 C466.367255,504.66426 458.877566,522.462792 450.92503,537.379056 C441.436687,525.197791 434.767497,515.246602 422.375847,500.70903 C409.846376,523.943137 395.65035,546.239126 379.899207,567.421969 C390.670896,580.150234 400.495854,593.446538 409.963159,606.932187 C400.978095,619.567114 391.328917,631.716369 381.056322,643.328713 C371.210326,629.843064 360.796291,616.399492 350.59264,603.103188 C336.307529,619.681491 321.938265,636.596408 304.560502,651.828249 L384.653898,651.828249 C436.177073,591.994884 473.583445,525.807906 488.752171,450.974124 C504.531012,375.551264 492.097285,295.752406 443.540532,238.864425 C438.996226,233.836234 434.283612,227.503659 428.813614,223.779853 L428.813614,223.779853 Z M497.146514,328.614472 C500.218129,343.046852 501.585628,354.954617 503.394935,373.847149 C509.369857,380.390109 516.522931,391.330105 516.522931,391.330105 C517.431905,413.790659 515.701933,436.280289 511.36851,458.337583 L499.25036,443.379241 C495.596259,464.415031 490.061994,485.080513 482.714135,505.127106 L496.220822,528.563944 C492.244555,542.491401 484.54448,561.804702 477.138944,577.267966 C472.131792,569.105046 467.335024,560.142664 462.22268,552.926474 C449.791451,576.766937 435.68116,599.693522 419.998502,621.532875 L438.743765,651.828249 L443.077686,651.828249 C488.373479,584.526233 518.753007,510.344642 521.887737,425.98044 C523.402506,390.635836 512.336279,359.919692 499.039975,330.486894 L497.146514,328.614472 L497.146514,328.614472 Z M533.101233,449.606624 C531.64958,460.883236 530.765965,472.307116 528.767312,483.078805 L525.169736,478.218922 C521.509581,500.752111 515.668508,522.876322 507.728857,544.279669 L513.304048,559.679818 C508.738703,575.206198 502.953128,591.868654 495.505515,609.288494 C493.432695,603.518216 490.730486,597.993857 487.447787,592.815384 C477.349998,613.139043 466.053478,632.844726 453.617952,651.828249 L483.59775,651.807211 C499.966925,620.010269 512.901446,586.55965 522.182275,552.021821 C530.092734,519.685716 537.22477,485.077458 533.290579,449.606624 L533.101233,449.606624 L533.101233,449.606624 Z M535.036771,532.245673 C528.704196,565.212932 517.343431,606.027534 507.770934,635.165793 C506.611818,632.882199 505.531211,630.559596 504.531012,628.202065 C500.07086,637.269639 493.2544,651.807211 493.2544,651.807211 L508.654549,651.807211 C521.950852,620.50199 531.249849,575.374505 535.036771,532.245673 Z M57.4848914,626.287565 C38.7606668,634.829178 20.0364423,641.919137 0.365487303,648.230673 L0.365487303,651.744095 L71.770002,651.744095 L57.4848914,626.287565 L57.4848914,626.287565 Z M213.842686,631.063294 C206.43715,636.386023 196.990883,644.780367 185.567003,651.828249 L227.517681,651.828249 C227.517681,651.828249 218.40803,638.258446 213.842686,631.063294 Z" id="Shape" fill="#FFFFFF"></path>
    </g>
</svg>