<?xml version="1.0" encoding="UTF-8" standalone="no"?>
<svg width="20px" height="20px" viewBox="0 0 20 20" version="1.1" xmlns="http://www.w3.org/2000/svg" xmlns:xlink="http://www.w3.org/1999/xlink" xmlns:sketch="http://www.bohemiancoding.com/sketch/ns">
    <!-- Generator: Sketch 3.4.4 (17249) - http://www.bohemiancoding.com/sketch -->
    <title>view</title>
    <desc>Created with Sketch.</desc>
    <defs></defs>
    <g id="Blank-Slate" stroke="none" stroke-width="1" fill="none" fill-rule="evenodd" sketch:type="MSPage">
        <g id="Icons" sketch:type="MSArtboardGroup" transform="translate(-158.000000, -30.000000)" fill="#FFFFFF">
            <g id="view" sketch:type="MSLayerGroup" transform="translate(158.000000, 30.000000)">
                <g id="Group" transform="translate(0.000000, 1.000000)" sketch:type="MSShapeGroup">
                    <path d="M18.0392157,17.854902 L1.96078431,17.854902 C0.879607843,17.854902 0,16.9752941 0,15.8941176 L0,2.56078431 C0,1.47960784 0.879607843,0.6 1.96078431,0.6 L18.0392157,0.6 C19.1203922,0.6 20,1.47960784 20,2.56078431 L20,15.8941176 C20,16.9752941 19.1203922,17.854902 18.0392157,17.854902 L18.0392157,17.854902 Z M1.96078431,1.38431373 C1.31215686,1.38431373 0.784313725,1.91215686 0.784313725,2.56078431 L0.784313725,15.8941176 C0.784313725,16.5427451 1.31215686,17.0705882 1.96078431,17.0705882 L18.0392157,17.0705882 C18.6878431,17.0705882 19.2156863,16.5427451 19.2156863,15.8941176 L19.2156863,2.56078431 C19.2156863,1.91215686 18.6878431,1.38431373 18.0392157,1.38431373 L1.96078431,1.38431373 L1.96078431,1.38431373 Z" id="Shape"></path>
                    <path d="M0.68627451,14.9772549 L0.0980392157,14.4580392 L4.96509804,8.94235294 C5.29019608,8.5745098 5.76,8.38784314 6.2454902,8.42392157 C6.7345098,8.46235294 7.16588235,8.72196078 7.42941176,9.13529412 L8.55529412,10.9043137 C8.68235294,11.1043137 8.89019608,11.2313725 9.12588235,11.2541176 C9.35960784,11.2745098 9.58941176,11.1905882 9.75176471,11.0184314 L14.4062745,6.09098039 C14.7313725,5.74627451 15.1894118,5.57215686 15.6603922,5.61176471 C16.1227451,5.65098039 16.5364706,5.89019608 16.8003922,6.27019608 L19.9007843,9.75137255 L19.314902,10.2729412 L16.1643137,6.72980392 C16.034902,6.53568627 15.8270588,6.41294118 15.5945098,6.39372549 C15.3627451,6.37333333 15.1368627,6.46 14.9760784,6.62980392 L10.3215686,11.5564706 C9.99215686,11.9054902 9.53098039,12.0823529 9.05137255,12.0341176 C8.57333333,11.9890196 8.15098039,11.7305882 7.89333333,11.325098 L6.76745098,9.55607843 C6.63764706,9.35176471 6.42509804,9.22392157 6.18431373,9.20509804 C5.94627451,9.18666667 5.71372549,9.27882353 5.55372549,9.46039216 L0.68627451,14.9772549 L0.68627451,14.9772549 Z" id="Shape"></path>
                    <path d="M4.50980392,6.48235294 C3.53686275,6.48235294 2.74509804,5.69058824 2.74509804,4.71764706 C2.74509804,3.74470588 3.53686275,2.95294118 4.50980392,2.95294118 C5.4827451,2.95294118 6.2745098,3.74470588 6.2745098,4.71764706 C6.2745098,5.69058824 5.4827451,6.48235294 4.50980392,6.48235294 L4.50980392,6.48235294 Z M4.50980392,3.7372549 C3.96901961,3.7372549 3.52941176,4.17686275 3.52941176,4.71764706 C3.52941176,5.25843137 3.96901961,5.69803922 4.50980392,5.69803922 C5.05058824,5.69803922 5.49019608,5.25843137 5.49019608,4.71764706 C5.49019608,4.17686275 5.05058824,3.7372549 4.50980392,3.7372549 L4.50980392,3.7372549 Z" id="Shape"></path>
                </g>
            </g>
        </g>
    </g>
</svg>