<?xml version="1.0" encoding="UTF-8" standalone="no"?>
<svg width="50px" height="50px" viewBox="0 0 50 50" version="1.1" xmlns="http://www.w3.org/2000/svg" xmlns:xlink="http://www.w3.org/1999/xlink" xmlns:sketch="http://www.bohemiancoding.com/sketch/ns">
    <!-- Generator: Sketch 3.4.2 (15855) - http://www.bohemiancoding.com/sketch -->
    <title>view</title>
    <desc>Created with Sketch.</desc>
    <defs></defs>
    <g id="Blank-Slate" stroke="none" stroke-width="1" fill="none" fill-rule="evenodd" sketch:type="MSPage">
        <g id="Icons" sketch:type="MSArtboardGroup" transform="translate(-558.000000, -102.000000)" fill="#FFFFFF">
            <g id="view" sketch:type="MSLayerGroup" transform="translate(558.000000, 102.000000)">
                <g id="Group" sketch:type="MSShapeGroup">
                    <path d="M45.0980392,47.1372549 L4.90196078,47.1372549 C2.19901961,47.1372549 0,44.9382353 0,42.2352941 L0,8.90196078 C0,6.19901961 2.19901961,4 4.90196078,4 L45.0980392,4 C47.8009804,4 50,6.19901961 50,8.90196078 L50,42.2352941 C50,44.9382353 47.8009804,47.1372549 45.0980392,47.1372549 L45.0980392,47.1372549 Z M4.90196078,5.96078431 C3.28039216,5.96078431 1.96078431,7.28039216 1.96078431,8.90196078 L1.96078431,42.2352941 C1.96078431,43.8568627 3.28039216,45.1764706 4.90196078,45.1764706 L45.0980392,45.1764706 C46.7196078,45.1764706 48.0392157,43.8568627 48.0392157,42.2352941 L48.0392157,8.90196078 C48.0392157,7.28039216 46.7196078,5.96078431 45.0980392,5.96078431 L4.90196078,5.96078431 L4.90196078,5.96078431 Z" id="Shape"></path>
                    <path d="M1.71568627,39.9431373 L0.245098039,38.645098 L12.4127451,24.8558824 C13.2254902,23.9362745 14.4,23.4696078 15.6137255,23.5598039 C16.8362745,23.6558824 17.9147059,24.304902 18.5735294,25.3382353 L21.3882353,29.7607843 C21.7058824,30.2607843 22.2254902,30.5784314 22.8147059,30.6352941 C23.3990196,30.6862745 23.9735294,30.4764706 24.3794118,30.0460784 L36.0156863,17.727451 C36.8284314,16.8656863 37.9735294,16.4303922 39.1509804,16.5294118 C40.3068627,16.627451 41.3411765,17.2254902 42.0009804,18.1754902 L49.7519608,26.8784314 L48.2872549,28.1823529 L40.4107843,19.3245098 C40.0872549,18.8392157 39.5676471,18.5323529 38.9862745,18.4843137 C38.4068627,18.4333333 37.8421569,18.65 37.4401961,19.0745098 L25.8039216,31.3911765 C24.9803922,32.2637255 23.827451,32.7058824 22.6284314,32.5852941 C21.4333333,32.472549 20.377451,31.8264706 19.7333333,30.8127451 L16.9186275,26.3901961 C16.5941176,25.8794118 16.0627451,25.5598039 15.4607843,25.5127451 C14.8656863,25.4666667 14.2843137,25.6970588 13.8843137,26.1509804 L1.71568627,39.9431373 L1.71568627,39.9431373 Z" id="Shape"></path>
                    <path d="M11.2745098,18.7058824 C8.84215686,18.7058824 6.8627451,16.7264706 6.8627451,14.2941176 C6.8627451,11.8617647 8.84215686,9.88235294 11.2745098,9.88235294 C13.7068627,9.88235294 15.6862745,11.8617647 15.6862745,14.2941176 C15.6862745,16.7264706 13.7068627,18.7058824 11.2745098,18.7058824 L11.2745098,18.7058824 Z M11.2745098,11.8431373 C9.92254902,11.8431373 8.82352941,12.9421569 8.82352941,14.2941176 C8.82352941,15.6460784 9.92254902,16.745098 11.2745098,16.745098 C12.6264706,16.745098 13.7254902,15.6460784 13.7254902,14.2941176 C13.7254902,12.9421569 12.6264706,11.8431373 11.2745098,11.8431373 L11.2745098,11.8431373 Z" id="Shape"></path>
                </g>
            </g>
        </g>
    </g>
</svg>