<?xml version="1.0" encoding="UTF-8" standalone="no"?>
<svg width="20px" height="20px" viewBox="0 0 20 20" version="1.1" xmlns="http://www.w3.org/2000/svg" xmlns:xlink="http://www.w3.org/1999/xlink" xmlns:sketch="http://www.bohemiancoding.com/sketch/ns">
    <!-- Generator: Sketch 3.4.4 (17249) - http://www.bohemiancoding.com/sketch -->
    <title>wifi</title>
    <desc>Created with Sketch.</desc>
    <defs></defs>
    <g id="Blank-Slate" stroke="none" stroke-width="1" fill="none" fill-rule="evenodd" sketch:type="MSPage">
        <g id="Icons" sketch:type="MSArtboardGroup" transform="translate(-56.000000, -30.000000)" fill="#FFFFFF">
            <g id="wifi" sketch:type="MSLayerGroup" transform="translate(56.000000, 30.000000)">
                <path d="M19.4494382,8.78836719 C19.3393258,8.78836719 19.2292135,8.74392337 19.1631461,8.63281379 C17.2251685,5.58841099 13.9878651,3.92176713 10.0898876,3.92176713 C6.19191011,3.92176713 2.95460674,5.61063291 1.01662921,8.65503568 C0.928539327,8.81058912 0.708314607,8.85503295 0.554157303,8.74392337 C0.4,8.65503568 0.355955056,8.43281653 0.466067416,8.27726309 C2.53617977,5.03286304 5.97168538,3.23288767 10.1119101,3.23288767 C14.2521349,3.23288767 17.665618,5.03286304 19.7577528,8.27726309 C19.8458427,8.43281653 19.8017977,8.63281379 19.6696629,8.74392337 C19.581573,8.78836719 19.5155056,8.78836719 19.4494382,8.78836719 L19.4494382,8.78836719 L19.4494382,8.78836719 Z" id="Shape" sketch:type="MSShapeGroup"></path>
                <path d="M3.68134832,11.1438905 C3.6152809,11.1438905 3.54921349,11.1216686 3.50516854,11.0994467 C3.35101124,11.010559 3.30696629,10.7883398 3.41707865,10.6327864 C4.84853932,8.38837267 7.22696628,7.14394526 10.0898876,7.14394526 C12.952809,7.14394526 15.3312359,8.38837267 16.7626966,10.6327864 C16.8507865,10.7883398 16.8067416,10.9883371 16.6746067,11.0994467 C16.5204494,11.1883344 16.3222472,11.1438905 16.2121349,11.010559 C14.8907865,8.94392063 12.7325843,7.81060281 10.0898876,7.81060281 C7.44719102,7.81060281 5.28898876,8.94392063 3.96764045,10.9883371 C3.90157303,11.0994467 3.79146067,11.1438905 3.68134832,11.1438905 L3.68134832,11.1438905 L3.68134832,11.1438905 Z" id="Shape" sketch:type="MSShapeGroup"></path>
                <path d="M13.7235955,13.5438577 C13.6134832,13.5438577 13.5033708,13.4994138 13.4373034,13.3883042 C12.7105618,12.2549864 11.5213483,11.6549946 10.0898876,11.6549946 C8.63640451,11.6549946 7.44719102,12.2772084 6.74247192,13.3883042 C6.65438203,13.5438577 6.43415729,13.5883015 6.28,13.4771919 C6.12584271,13.3883042 6.08179774,13.1660851 6.19191011,13.0105317 C7.02876406,11.6994385 8.41617977,10.9661152 10.1119101,10.9661152 C11.785618,10.9661152 13.1730337,11.6994385 14.0319101,13.0105317 C14.12,13.1660851 14.075955,13.3660823 13.9438202,13.4771919 C13.8557303,13.5216358 13.7896629,13.5438577 13.7235955,13.5438577 L13.7235955,13.5438577 L13.7235955,13.5438577 Z" id="Shape" sketch:type="MSShapeGroup"></path>
                <path d="M10.0017977,16.8104797 C9.12089887,16.8104797 8.41617977,16.0993782 8.41617977,15.2105015 C8.41617977,14.3216248 9.12089887,13.6105234 10.0017977,13.6105234 C10.8826966,13.6105234 11.5874157,14.3216248 11.5874157,15.2105015 C11.5874157,16.0993782 10.8606742,16.8104797 10.0017977,16.8104797 L10.0017977,16.8104797 L10.0017977,16.8104797 Z M10.0017977,14.277181 C9.4952809,14.277181 9.07685395,14.6993974 9.07685395,15.2105015 C9.07685395,15.7216057 9.4952809,16.1438221 10.0017977,16.1438221 C10.5083146,16.1438221 10.9267416,15.7216057 10.9267416,15.2105015 C10.9267416,14.6993974 10.5083146,14.277181 10.0017977,14.277181 L10.0017977,14.277181 L10.0017977,14.277181 Z" id="Shape" sketch:type="MSShapeGroup"></path>
            </g>
        </g>
    </g>
</svg>