<?xml version="1.0" encoding="UTF-8" standalone="no"?>
<svg width="50px" height="35px" viewBox="0 0 50 35" version="1.1" xmlns="http://www.w3.org/2000/svg" xmlns:xlink="http://www.w3.org/1999/xlink" xmlns:sketch="http://www.bohemiancoding.com/sketch/ns">
    <!-- Generator: Sketch 3.4.2 (15855) - http://www.bohemiancoding.com/sketch -->
    <title>wifi</title>
    <desc>Created with Sketch.</desc>
    <defs></defs>
    <g id="Blank-Slate" stroke="none" stroke-width="1" fill="none" fill-rule="evenodd" sketch:type="MSPage">
        <g id="Icons" sketch:type="MSArtboardGroup" transform="translate(-194.000000, -109.000000)" fill="#FFFFFF">
            <g id="wifi" sketch:type="MSLayerGroup" transform="translate(194.000000, 109.000000)">
                <g id="noun_102553_cc" sketch:type="MSShapeGroup">
                    <g id="Group">
                        <path d="M48.5955056,14.3988959 C48.3146067,14.3988959 48.0337079,14.2855188 47.8651685,14.002076 C42.9213483,6.23574233 34.6629213,1.98409983 24.7191011,1.98409983 C14.7752809,1.98409983 6.51685393,6.29243089 1.57303371,14.0587645 C1.34831461,14.4555845 0.786516854,14.5689616 0.393258427,14.2855188 C-8.35269354e-15,14.0587645 -0.112359551,13.4918789 0.168539326,13.0950589 C5.4494382,4.81852816 14.2134831,0.226754266 24.7752809,0.226754266 C35.3370787,0.226754266 44.0449438,4.81852816 49.3820225,13.0950589 C49.6067416,13.4918789 49.494382,14.002076 49.1573034,14.2855188 C48.9325843,14.3988959 48.7640449,14.3988959 48.5955056,14.3988959 L48.5955056,14.3988959 L48.5955056,14.3988959 Z" id="Shape"></path>
                        <path d="M8.37078652,20.407884 C8.20224719,20.407884 8.03370787,20.3511954 7.92134831,20.2945069 C7.52808989,20.0677526 7.41573034,19.5008669 7.69662921,19.104047 C11.3483146,13.3785017 17.4157303,10.203942 24.7191011,10.203942 C32.0224719,10.203942 38.0898876,13.3785017 41.741573,19.104047 C41.9662921,19.5008669 41.8539326,20.011064 41.5168539,20.2945069 C41.1235955,20.5212611 40.6179775,20.407884 40.3370787,20.0677526 C36.9662921,14.7957159 31.4606742,11.904599 24.7191011,11.904599 C17.9775281,11.904599 12.4719101,14.7957159 9.1011236,20.011064 C8.93258427,20.2945069 8.65168539,20.407884 8.37078652,20.407884 L8.37078652,20.407884 L8.37078652,20.407884 Z" id="Shape"></path>
                        <path d="M33.988764,26.5302492 C33.7078652,26.5302492 33.4269663,26.416872 33.258427,26.1334292 C31.4044944,23.2423123 28.3707865,21.711721 24.7191011,21.711721 C21.011236,21.711721 17.9775281,23.2990009 16.1797753,26.1334292 C15.9550562,26.5302492 15.3932584,26.6436263 15,26.3601835 C14.6067416,26.1334292 14.494382,25.5665435 14.7752809,25.1697236 C16.9101124,21.8250981 20.4494382,19.9543755 24.7752809,19.9543755 C29.0449438,19.9543755 32.5842697,21.8250981 34.7752809,25.1697236 C35,25.5665435 34.8876404,26.0767406 34.5505618,26.3601835 C34.3258427,26.4735606 34.1573034,26.5302492 33.988764,26.5302492 L33.988764,26.5302492 L33.988764,26.5302492 Z" id="Shape"></path>
                        <path d="M24.494382,34.8634685 C22.247191,34.8634685 20.4494382,33.0494343 20.4494382,30.7818917 C20.4494382,28.514349 22.247191,26.7003149 24.494382,26.7003149 C26.741573,26.7003149 28.5393258,28.514349 28.5393258,30.7818917 C28.5393258,33.0494343 26.6853933,34.8634685 24.494382,34.8634685 L24.494382,34.8634685 L24.494382,34.8634685 Z M24.494382,28.4009719 C23.2022472,28.4009719 22.1348315,29.4780546 22.1348315,30.7818917 C22.1348315,32.0857287 23.2022472,33.1628115 24.494382,33.1628115 C25.7865169,33.1628115 26.8539326,32.0857287 26.8539326,30.7818917 C26.8539326,29.4780546 25.7865169,28.4009719 24.494382,28.4009719 L24.494382,28.4009719 L24.494382,28.4009719 Z" id="Shape"></path>
                    </g>
                </g>
            </g>
        </g>
    </g>
</svg>