<?xml version="1.0" encoding="UTF-8" standalone="no"?>
<svg width="50px" height="50px" viewBox="0 0 50 50" version="1.1" xmlns="http://www.w3.org/2000/svg" xmlns:xlink="http://www.w3.org/1999/xlink" xmlns:sketch="http://www.bohemiancoding.com/sketch/ns">
    <!-- Generator: Sketch 3.4.4 (17249) - http://www.bohemiancoding.com/sketch -->
    <title>window</title>
    <desc>Created with Sketch.</desc>
    <defs></defs>
    <g id="Blank-Slate" stroke="none" stroke-width="1" fill="none" fill-rule="evenodd" sketch:type="MSPage">
        <g id="Icons" sketch:type="MSArtboardGroup" transform="translate(-100.000000, -18.000000)" fill="#FFFFFF">
            <g id="window" sketch:type="MSLayerGroup" transform="translate(100.000000, 18.000000)">
                <path d="M11.0422481,18.6798 C13.4836841,18.6798 15.4642607,16.7129267 15.4642607,14.2849231 C15.4642607,11.8569195 13.4836841,9.89004614 11.0422481,9.89004614 C8.60081213,9.89004614 6.62023556,11.8569195 6.62023556,14.2849231 C6.62023556,16.7129267 8.60081213,18.6798 11.0422481,18.6798 L11.0422481,18.6798 Z M11.0422481,17.6798 C9.15154866,17.6798 7.62023556,16.1590818 7.62023556,14.2849231 C7.62023556,12.4107644 9.15154866,10.8900461 11.0422481,10.8900461 C12.9329476,10.8900461 14.4642607,12.4107644 14.4642607,14.2849231 C14.4642607,16.1590818 12.9329476,17.6798 11.0422481,17.6798 L11.0422481,17.6798 Z" id="Shape" sketch:type="MSShapeGroup"></path>
                <path d="M27.3101122,31.0720506 L18.4080762,31.0720506 C18.3205289,31.0720506 17.958724,30.7917651 17.9380351,30.7099017 L15.7107918,21.9092657 C15.1741845,19.7871954 13.0083154,18.5006945 10.8739135,19.0326386 C8.73834008,19.565666 7.4413233,21.718754 7.97843623,23.8423709 L10.2056579,32.6425253 C11.1239017,36.2723813 14.6415847,38.996716 18.4080762,38.996716 L25.5670841,38.996716 L25.0670841,38.496716 L25.0670841,46.7680859 C25.0670841,48.4790255 26.4623549,49.8649344 28.1820248,49.8649344 C29.9015481,49.8649344 31.2969655,48.4791716 31.2969655,46.7680859 L31.2969655,35.0343833 C31.2965093,32.8454012 29.5108038,31.0720506 27.3101122,31.0720506 L27.3101122,31.0720506 Z M27.3101122,32.0720506 C28.9601022,32.0720506 30.2966247,33.399326 30.2969655,35.0344875 L30.2969655,46.7680859 C30.2969655,47.9253267 29.3508115,48.8649344 28.1820248,48.8649344 C27.0131382,48.8649344 26.0670841,47.925228 26.0670841,46.7680859 L26.0670841,38.496716 L26.0670841,37.996716 L25.5670841,37.996716 L18.4080762,37.996716 C15.0983709,37.996716 11.9808267,35.5822762 11.1751055,32.3972267 L8.9478891,23.5970933 C8.5468415,22.0114463 9.51626143,20.4021792 11.1159096,20.0029158 C12.717039,19.603876 14.3401457,20.5679824 14.7413314,22.1545136 L16.9685579,30.9550831 C17.1016585,31.4817473 17.8636481,32.0720506 18.4080762,32.0720506 L27.3101122,32.0720506 L27.3101122,32.0720506 Z" id="Shape" sketch:type="MSShapeGroup"></path>
                <path d="M21.9511176,40.2280802 L17.636585,40.2280802 C13.7241364,40.2280802 9.59570213,36.9750942 8.62097721,33.1253317 L6.57548945,25.0415427 C6.39935355,24.3454353 5.68723849,23.9208059 4.98907084,24.0988891 C4.2889107,24.2730148 3.86371385,24.9790157 4.03984975,25.6743316 L6.085736,33.7585163 C7.34977013,38.7575089 12.5322303,42.8249287 17.636585,42.8249287 L21.9511176,42.8249287 C22.6731951,42.8249287 23.258588,42.243586 23.258588,41.5269002 C23.258588,40.8094228 22.6731951,40.2280802 21.9511176,40.2280802 L21.9511176,40.2280802 Z" id="Shape" sketch:type="MSShapeGroup"></path>
                <path d="M20.0932425,12.4765803 C22.3180717,12.4765803 24.1230538,10.6840865 24.1230538,8.47119105 C24.1230538,6.25829558 22.3180717,4.4658018 20.0932425,4.4658018 C17.8684133,4.4658018 16.0634312,6.25829558 16.0634312,8.47119105 C16.0634312,10.6840865 17.8684133,12.4765803 20.0932425,12.4765803 L20.0932425,12.4765803 Z M20.0932425,11.4765803 C18.4191498,11.4765803 17.0634312,10.1302416 17.0634312,8.47119105 C17.0634312,6.81214047 18.4191498,5.4658018 20.0932425,5.4658018 C21.7673352,5.4658018 23.1230538,6.81214047 23.1230538,8.47119105 C23.1230538,10.1302416 21.7673352,11.4765803 20.0932425,11.4765803 L20.0932425,11.4765803 Z" id="Shape" sketch:type="MSShapeGroup"></path>
                <path d="M34.7343202,23.5296058 L26.7224878,23.5296058 C26.6665392,23.5296058 26.3609241,23.2928498 26.3479267,23.2414208 L24.3434036,15.3208323 C23.8536872,13.3841967 21.8772669,12.2102262 19.92965,12.695619 C17.9808292,13.182034 16.7971343,15.1470042 17.2873382,17.0851542 L19.2918396,25.0053007 C20.1238845,28.2944087 23.3098062,30.7618047 26.7224878,30.7618047 L33.1655949,30.7618047 L32.6655949,30.2618047 L32.6655949,37.7060376 C32.6655949,39.2735731 33.9437995,40.5432012 35.5190415,40.5432012 C37.0941493,40.5432012 38.3724882,39.2737069 38.3724882,37.7060376 L38.3724882,27.1457053 C38.3720718,25.1479251 36.7424777,23.5296058 34.7343202,23.5296058 L34.7343202,23.5296058 Z M34.7343202,24.5296058 C36.1917761,24.5296058 37.3721872,25.7018499 37.3724882,27.1458095 L37.3724882,37.7060376 C37.3724882,38.719862 36.5434128,39.5432012 35.5190415,39.5432012 C34.4945828,39.5432012 33.6655949,38.7197756 33.6655949,37.7060376 L33.6655949,30.2618047 L33.6655949,29.7618047 L33.1655949,29.7618047 L26.7224878,29.7618047 C23.7665923,29.7618047 20.9808095,27.6043036 20.2612872,24.7600021 L18.2567911,16.8398766 C17.9026525,15.4396965 18.7587506,14.0185473 20.1716461,13.6658962 C21.5859905,13.3134078 23.0196484,14.1649838 23.3739432,15.5660802 L25.3784495,23.4866022 C25.5038586,23.982832 26.2096585,24.5296058 26.7224878,24.5296058 L34.7343202,24.5296058 L34.7343202,24.5296058 Z" id="Shape" sketch:type="MSShapeGroup"></path>
                <path d="M28.0603237,7.39453155 C29.7931779,7.39453155 31.1979337,5.99949491 31.1979337,4.27863 C31.1979337,2.55776509 29.7931779,1.16272845 28.0603237,1.16272845 C26.3274695,1.16272845 24.9227136,2.55776509 24.9227136,4.27863 C24.9227136,5.99949491 26.3274695,7.39453155 28.0603237,7.39453155 Z M41.074615,18.108332 L33.9529862,18.108332 C33.7001793,18.108332 33.2506741,17.7600805 33.1891461,17.516621 L31.407384,10.4762411 C31.0321588,8.99237295 29.5162742,8.0926176 28.0223867,8.46493016 C26.5281804,8.83787591 25.6218377,10.3429558 25.9970629,11.8265073 L27.778825,18.8665706 C28.4683851,21.5924304 31.1223786,23.6480643 33.9529862,23.6480643 L39.6801925,23.6480643 L39.6801925,30.2651603 C39.6801925,31.4121742 40.6165022,32.342639 41.772145,32.342639 C42.927469,32.342639 43.8640976,31.4124908 43.8640976,30.2651603 L43.8640976,20.8781982 C43.8637788,19.3487407 42.615047,18.108332 41.074615,18.108332 Z" id="Oval" stroke="#FFFFFF" sketch:type="MSShapeGroup"></path>
                <path d="M35.8915275,5.99215194 L35.8915275,5.99215194 L35.8915275,9.51760627 C35.8915275,11.7243597 37.6833144,13.5097582 39.8986301,13.5097582 L40.7235574,13.5097582 C42.9347176,13.5097582 44.73066,11.7201952 44.73066,9.51760627 L44.73066,5.99215194 C44.73066,3.78539851 42.938873,2 40.7235574,2 L39.8986301,2 C37.6874699,2 35.8915275,3.78956301 35.8915275,5.99215194 L35.8915275,5.99215194 Z M34.8915275,5.99215194 C34.8915275,3.23506255 37.1374028,1 39.8986301,1 L40.7235574,1 C43.4889038,1 45.73066,3.2308618 45.73066,5.99215194 L45.73066,9.51760627 C45.73066,12.2746957 43.4847847,14.5097582 40.7235574,14.5097582 L39.8986301,14.5097582 C37.1332837,14.5097582 34.8915275,12.2788964 34.8915275,9.51760627 L34.8915275,5.99215194 L34.8915275,5.99215194 Z" id="Shape" sketch:type="MSShapeGroup"></path>
            </g>
        </g>
    </g>
</svg>