<?xml version="1.0" encoding="UTF-8" standalone="no"?>
<svg width="46px" height="50px" viewBox="0 0 46 50" version="1.1" xmlns="http://www.w3.org/2000/svg" xmlns:xlink="http://www.w3.org/1999/xlink" xmlns:sketch="http://www.bohemiancoding.com/sketch/ns">
    <!-- Generator: Sketch 3.4.2 (15855) - http://www.bohemiancoding.com/sketch -->
    <title>window</title>
    <desc>Created with Sketch.</desc>
    <defs></defs>
    <g id="Blank-Slate" stroke="none" stroke-width="1" fill="none" fill-rule="evenodd" sketch:type="MSPage">
        <g id="Icons" sketch:type="MSArtboardGroup" transform="translate(-17.000000, -159.000000)" fill="#FFFFFF">
            <g id="window" sketch:type="MSLayerGroup" transform="translate(17.000000, 159.000000)">
                <g id="Group" sketch:type="MSShapeGroup">
                    <g>
                        <path d="M39.0562197,17.6535606 C35.697202,18.6074815 33.0222898,21.1866727 31.9869623,24.5108371 C31.0724095,24.0166501 30.0415969,23.7102718 28.9290149,23.7102718 C25.6255871,23.7102718 22.9303337,26.1926232 22.5327863,29.3882951 C21.5149088,28.8768605 20.3055172,28.6921012 18.9906399,29.1632443 C17.4451037,29.7170337 16.2781505,31.0875102 16.0303162,32.7104522 C15.5995694,35.5312208 17.7708927,37.9590104 20.5092127,37.9590104 L35.3885185,37.9590104 C37.414132,37.9590104 39.0562196,36.3169274 39.0562196,34.2913093 L39.0562196,17.6535606 L39.0562197,17.6535606 Z" id="Shape"></path>
                        <path d="M27.195777,7.0458947 C33.5011552,7.0458947 38.6309368,12.1756763 38.6309368,18.4810359 L38.6309368,31.518964 C38.6309368,37.8243237 33.5011552,42.9541052 27.195777,42.9541052 L17.9261743,42.9541052 C11.620796,42.9541052 6.49101445,37.8243237 6.49101445,31.518964 L6.49101445,18.4810359 C6.49101445,12.1756763 11.620796,7.0458947 17.9261743,7.0458947 L27.195777,7.0458947 L27.195777,7.0458947 Z M27.195777,5.2166264 L17.9261743,5.2166264 C10.6307612,5.2166264 4.66174616,11.1856228 4.66174616,18.4810359 L4.66174616,31.518964 C4.66174616,38.8143771 10.6307612,44.7833735 17.9261743,44.7833735 L27.195777,44.7833735 C34.4912645,44.7833735 40.4602051,38.8143771 40.4602051,31.518964 L40.4602051,18.4810359 C40.4602051,11.1856228 34.4912645,5.2166264 27.195777,5.2166264 L27.195777,5.2166264 L27.195777,5.2166264 Z" id="Shape"></path>
                        <rect id="Rectangle-path" x="7.2557403" y="12.3514315" width="30.6104707" height="1.82926829"></rect>
                        <path d="M28.3847716,1.97104476 C36.566311,1.97104476 43.2224925,8.62722628 43.2224925,16.8087843 L43.2224925,33.1912157 C43.2224925,41.3727737 36.566311,48.0289552 28.3847716,48.0289552 L16.7372541,48.0289552 C8.55564024,48.0289552 1.89945872,41.3727737 1.89945872,33.1912157 L1.89945872,16.8087843 C1.89945872,8.62722628 8.55564024,1.97104476 16.7372541,1.97104476 L28.3847716,1.97104476 L28.3847716,1.97104476 Z M28.3847716,0.141776463 L16.7372541,0.141776463 C7.57036909,0.141776463 0.0701904268,7.64193652 0.0701904268,16.8087843 L0.0701904268,33.1912157 C0.0701904268,42.3580635 7.57036909,49.8582235 16.7372541,49.8582235 L28.3847716,49.8582235 C37.5515821,49.8582235 45.0517608,42.3580634 45.0517608,33.1912157 L45.0517608,16.8087843 C45.0517608,7.64193652 37.5515821,0.141776463 28.3847716,0.141776463 L28.3847716,0.141776463 L28.3847716,0.141776463 Z" id="Shape"></path>
                    </g>
                </g>
            </g>
        </g>
    </g>
</svg>