<?xml version="1.0" encoding="UTF-8" standalone="no"?>
<svg width="20px" height="20px" viewBox="0 0 20 20" version="1.1" xmlns="http://www.w3.org/2000/svg" xmlns:xlink="http://www.w3.org/1999/xlink" xmlns:sketch="http://www.bohemiancoding.com/sketch/ns">
    <!-- Generator: Sketch 3.4.4 (17249) - http://www.bohemiancoding.com/sketch -->
    <title>window</title>
    <desc>Created with Sketch.</desc>
    <defs></defs>
    <g id="Blank-Slate" stroke="none" stroke-width="1" fill="none" fill-rule="evenodd" sketch:type="MSPage">
        <g id="Icons" sketch:type="MSArtboardGroup" transform="translate(-30.000000, -5.000000)" fill="#FFFFFF">
            <g id="window" sketch:type="MSLayerGroup" transform="translate(30.000000, 5.000000)">
                <path d="M4.41689925,7.47192001 C5.39347364,7.47192001 6.18570427,6.68517067 6.18570427,5.71396923 C6.18570427,4.7427678 5.39347364,3.95601846 4.41689925,3.95601846 C3.44032485,3.95601846 2.64809422,4.7427678 2.64809422,5.71396923 C2.64809422,6.68517067 3.44032485,7.47192001 4.41689925,7.47192001 L4.41689925,7.47192001 Z M4.41689925,7.07192001 C3.66061946,7.07192001 3.04809422,6.46363271 3.04809422,5.71396923 C3.04809422,4.96430576 3.66061946,4.35601846 4.41689925,4.35601846 C5.17317903,4.35601846 5.78570427,4.96430576 5.78570427,5.71396923 C5.78570427,6.46363271 5.17317903,7.07192001 4.41689925,7.07192001 L4.41689925,7.07192001 Z" id="Shape" sketch:type="MSShapeGroup"></path>
                <path d="M10.9240449,12.4288202 L7.36323049,12.4288202 C7.32821155,12.4288202 7.1834896,12.3167061 7.17521406,12.2839607 L6.28431671,8.76370628 C6.06967382,7.91487814 5.20332615,7.40027779 4.3495654,7.61305543 C3.49533603,7.82626641 2.97652932,8.68750158 3.19137449,9.53694838 L4.08226316,13.0570101 C4.44956068,14.5089525 5.85663389,15.5986864 7.36323049,15.5986864 L10.2268336,15.5986864 L10.0268336,15.3986864 L10.0268336,18.7072344 C10.0268336,19.3916102 10.584942,19.9459738 11.2728099,19.9459738 C11.9606192,19.9459738 12.5187862,19.3916686 12.5187862,18.7072344 L12.5187862,14.0137533 C12.5186037,13.1381605 11.8043215,12.4288202 10.9240449,12.4288202 L10.9240449,12.4288202 Z M10.9240449,12.8288202 C11.5840409,12.8288202 12.1186499,13.3597304 12.1187862,14.013795 L12.1187862,18.7072344 C12.1187862,19.1701307 11.7403246,19.5459738 11.2728099,19.5459738 C10.8052553,19.5459738 10.4268336,19.1700912 10.4268336,18.7072344 L10.4268336,15.3986864 L10.4268336,15.1986864 L10.2268336,15.1986864 L7.36323049,15.1986864 C6.03934836,15.1986864 4.79233067,14.2329105 4.47004218,12.9588907 L3.57915564,9.43883731 C3.4187366,8.80457851 3.80650457,8.1608717 4.44636384,8.00116631 C5.08681559,7.8415504 5.7360583,8.22719295 5.89653255,8.86180543 L6.78742318,12.3820333 C6.84066341,12.5926989 7.14545924,12.8288202 7.36323049,12.8288202 L10.9240449,12.8288202 L10.9240449,12.8288202 Z" id="Shape" sketch:type="MSShapeGroup"></path>
                <path d="M8.78044706,16.0912321 L7.05463401,16.0912321 C5.48965456,16.0912321 3.83828085,14.7900377 3.44839088,13.2501327 L2.63019578,10.0166171 C2.55974142,9.73817413 2.27489539,9.56832235 1.99562833,9.63955562 C1.71556428,9.70920593 1.54548554,9.99160628 1.6159399,10.2697326 L2.4342944,13.5034065 C2.93990805,15.5030036 5.01289213,17.1299715 7.05463401,17.1299715 L8.78044706,17.1299715 C9.06927806,17.1299715 9.3034352,16.8974344 9.3034352,16.6107601 C9.3034352,16.3237691 9.06927806,16.0912321 8.78044706,16.0912321 L8.78044706,16.0912321 Z" id="Shape" sketch:type="MSShapeGroup"></path>
                <path d="M8.03729701,4.99063212 C8.9272287,4.99063212 9.64922153,4.27363461 9.64922153,3.38847642 C9.64922153,2.50331823 8.9272287,1.78632072 8.03729701,1.78632072 C7.14736532,1.78632072 6.42537249,2.50331823 6.42537249,3.38847642 C6.42537249,4.27363461 7.14736532,4.99063212 8.03729701,4.99063212 L8.03729701,4.99063212 Z M8.03729701,4.59063212 C7.36765993,4.59063212 6.82537249,4.05209665 6.82537249,3.38847642 C6.82537249,2.72485619 7.36765993,2.18632072 8.03729701,2.18632072 C8.70693408,2.18632072 9.24922153,2.72485619 9.24922153,3.38847642 C9.24922153,4.05209665 8.70693408,4.59063212 8.03729701,4.59063212 L8.03729701,4.59063212 Z" id="Shape" sketch:type="MSShapeGroup"></path>
                <path d="M13.8937281,9.41184233 L10.6889951,9.41184233 C10.6666157,9.41184233 10.5443696,9.31713991 10.5391707,9.29656831 L9.73736145,6.12833291 C9.5414749,5.3536787 8.75090675,4.88409049 7.97186,5.07824761 C7.19233169,5.27281361 6.71885371,6.05880169 6.91493529,6.8340617 L7.71673585,10.0021203 C8.04955379,11.3177635 9.32392247,12.3047219 10.6889951,12.3047219 L13.266238,12.3047219 L13.066238,12.1047219 L13.066238,15.082415 C13.066238,15.7094292 13.5775198,16.2172805 14.2076166,16.2172805 C14.8376597,16.2172805 15.3489953,15.7094828 15.3489953,15.082415 L15.3489953,10.8582821 C15.3488287,10.05917 14.6969911,9.41184233 13.8937281,9.41184233 L13.8937281,9.41184233 Z M13.8937281,9.81184233 C14.4767105,9.81184233 14.9488749,10.28074 14.9489953,10.8583238 L14.9489953,15.082415 C14.9489953,15.4879448 14.6173651,15.8172805 14.2076166,15.8172805 C13.7978331,15.8172805 13.466238,15.4879103 13.466238,15.082415 L13.466238,12.1047219 L13.466238,11.9047219 L13.266238,11.9047219 L10.6889951,11.9047219 C9.50663694,11.9047219 8.39232379,11.0417214 8.10451487,9.90400082 L7.30271644,6.73595063 C7.16106099,6.17587862 7.50350023,5.6074189 8.06865845,5.46635849 C8.63439619,5.3253631 9.20785938,5.66599351 9.34957729,6.22643207 L10.1513798,9.39464089 C10.2015434,9.59313279 10.4838634,9.81184233 10.6889951,9.81184233 L13.8937281,9.81184233 L13.8937281,9.81184233 Z" id="Shape" sketch:type="MSShapeGroup"></path>
                <path d="M11.2241295,2.95781262 C11.9172711,2.95781262 12.4791735,2.39979796 12.4791735,1.711452 C12.4791735,1.02310604 11.9172711,0.46509138 11.2241295,0.46509138 C10.5309878,0.46509138 9.96908545,1.02310604 9.96908545,1.711452 C9.96908545,2.39979796 10.5309878,2.95781262 11.2241295,2.95781262 Z M16.429846,7.24333281 L13.5811945,7.24333281 C13.4800717,7.24333281 13.3002697,7.10403219 13.2756584,7.0066484 L12.5629536,4.19049645 C12.4128635,3.59694918 11.8065097,3.23704704 11.2089547,3.38597206 C10.6112722,3.53515036 10.2487351,4.13718231 10.3988252,4.73060294 L11.11153,7.54662825 C11.3873541,8.63697218 12.4489514,9.45922573 13.5811945,9.45922573 L15.872077,9.45922573 L15.872077,12.1060641 C15.872077,12.5648697 16.2466009,12.9370556 16.708858,12.9370556 C17.1709876,12.9370556 17.545639,12.5649963 17.545639,12.1060641 L17.545639,8.35127927 C17.5455115,7.73949629 17.0460188,7.24333281 16.429846,7.24333281 Z" id="Oval" stroke="#FFFFFF" sketch:type="MSShapeGroup"></path>
                <path d="M14.356611,2.39686077 L14.356611,2.39686077 L14.356611,3.80704251 C14.356611,4.68974388 15.0733258,5.40390328 15.959452,5.40390328 L16.289423,5.40390328 C17.173887,5.40390328 17.892264,4.68807808 17.892264,3.80704251 L17.892264,2.39686077 C17.892264,1.51415941 17.1755492,0.8 16.289423,0.8 L15.959452,0.8 C15.074988,0.8 14.356611,1.5158252 14.356611,2.39686077 L14.356611,2.39686077 Z M13.956611,2.39686077 C13.956611,1.29402502 14.8549611,0.4 15.959452,0.4 L16.289423,0.4 C17.3955615,0.4 18.292264,1.29234472 18.292264,2.39686077 L18.292264,3.80704251 C18.292264,4.90987826 17.3939139,5.80390328 16.289423,5.80390328 L15.959452,5.80390328 C14.8533135,5.80390328 13.956611,4.91155856 13.956611,3.80704251 L13.956611,2.39686077 L13.956611,2.39686077 Z" id="Shape" sketch:type="MSShapeGroup"></path>
            </g>
        </g>
    </g>
</svg>